<svg xmlns="http://www.w3.org/2000/svg" id="iphone_2" width="16.405" height="20" data-name="iphone 2" viewBox="0 0 16.405 20">
    <defs>
        <style>
            .cls-1{fill:#fff}
        </style>
    </defs>
    <path id="Path_722" d="M51.461 133.35c-2.977-.017-5.439-6.093-5.439-9.188 0-5.055 3.792-6.161 5.253-6.161a6.045 6.045 0 0 1 1.982.487 4.43 4.43 0 0 0 1.132.324 3.522 3.522 0 0 0 .812-.263 6.508 6.508 0 0 1 2.447-.592h.006a5.016 5.016 0 0 1 4.2 2.12l.306.46-.441.332a3.708 3.708 0 0 0-1.778 3.057 3.451 3.451 0 0 0 1.925 3.19c.276.166.561.337.561.711 0 .244-1.95 5.491-4.782 5.491a3.846 3.846 0 0 1-1.615-.392 3.274 3.274 0 0 0-1.437-.346 3.7 3.7 0 0 0-1.138.308 5.574 5.574 0 0 1-1.974.461z" class="cls-1" data-name="Path 722" transform="translate(-46.022 -113.35)"/>
    <path id="Path_723" d="M258.912 0c.074 2.659-1.828 4.5-3.728 4.388A4.238 4.238 0 0 1 258.912 0z" class="cls-1" data-name="Path 723" transform="translate(-246.985)"/>
</svg>
