<svg xmlns="http://www.w3.org/2000/svg" width="15.561" height="19.613" viewBox="0 0 15.561 19.613">
    <defs>
        <style>
            .cls-1{stroke:#000;stroke-width:.5px}
        </style>
    </defs>
    <g id="mon_espace_desactivé" transform="translate(-1523.001 1685.503)">
        <path id="Path_641" d="M1531.888-1675.714h.118a3.381 3.381 0 0 0 2.584-1.119c1.411-1.591 1.177-4.318 1.151-4.579a3.736 3.736 0 0 0-1.778-3.325 4.071 4.071 0 0 0-1.972-.517h-.063a4.086 4.086 0 0 0-1.972.5 3.743 3.743 0 0 0-1.8 3.34c-.025.261-.26 2.988 1.151 4.579a3.37 3.37 0 0 0 2.581 1.121zm-2.753-5.606v-.029c.121-2.629 1.987-2.913 2.787-2.913h.044c.989.022 2.672.426 2.786 2.913a.09.09 0 0 0 0 .029c0 .025.261 2.519-.9 3.831a2.407 2.407 0 0 1-1.889.785h-.036a2.4 2.4 0 0 1-1.884-.785c-1.164-1.3-.914-3.806-.91-3.829z" class="cls-1" transform="translate(-1.17)"/>
        <path id="Path_642" d="M1538.308-1666.683v-.011-.092c-.022-.726-.07-3.057-1.661-3.6l-.037-.011a10.584 10.584 0 0 1-3.04-1.385.5.5 0 0 0-.69.12.5.5 0 0 0 .12.69 11.425 11.425 0 0 0 3.348 1.528c.854.3.949 1.851.975 2.686a.791.791 0 0 0 0 .092 6.729 6.729 0 0 1-.078 1.133 14.644 14.644 0 0 1-12.931 0 6.278 6.278 0 0 1-.076-1.133v-.092c.025-.835.121-2.381.975-2.686a11.52 11.52 0 0 0 3.346-1.528.5.5 0 0 0 .12-.69.5.5 0 0 0-.69-.12 10.494 10.494 0 0 1-3.039 1.385l-.036.011c-1.591.546-1.639 2.876-1.661 3.6a.892.892 0 0 1 0 .092v.011a5.6 5.6 0 0 0 .187 1.661.468.468 0 0 0 .19.23 15.484 15.484 0 0 0 14.312 0 .5.5 0 0 0 .19-.23 5.915 5.915 0 0 0 .176-1.661z" class="cls-1" transform="translate(0 -3.211)"/>
    </g>
</svg>
