<svg xmlns="http://www.w3.org/2000/svg" width="20.476" height="18" viewBox="0 0 20.476 18">
    <g fill="none" stroke-linecap="round">
        <path d="M-121.074-92.053a5.632 5.632 0 0 0-4.007-1.657 5.643 5.643 0 0 0-4.011 1.665l-.56.559-.569-.568a5.638 5.638 0 0 0-4.015-1.667 5.628 5.628 0 0 0-4 1.656 5.609 5.609 0 0 0-1.656 4.012 5.636 5.636 0 0 0 1.666 4l8.154 8.152a.594.594 0 0 0 .414.175.6.6 0 0 0 .411-.17l8.169-8.136a5.652 5.652 0 0 0 1.663-4.012 5.615 5.615 0 0 0-1.659-4.009z" transform="translate(139.892 93.721)"/>
        <path d="M-134.25-92.221c-1.104 0-2.143.431-2.924 1.215l-.002.002-.003.003c-.777.773-1.22 1.844-1.213 2.939v.01c0 1.112.433 2.156 1.223 2.94l.002.001.002.002 7.51 7.508 7.517-7.488c.79-.787 1.224-1.834 1.222-2.947v-.01c.006-1.098-.437-2.17-1.215-2.942l-.003-.003-.003-.003c-.77-.773-1.836-1.216-2.928-1.216h-.025c-1.095 0-2.166.446-2.938 1.223l-.002.002-.002.002-.56.56-1.06 1.057-1.06-1.058-.57-.568-.002-.003-.003-.003c-.77-.777-1.841-1.223-2.937-1.223H-134.25m0-1.5h.026c1.503 0 2.945.6 4.003 1.667l.569.568.56-.559c1.059-1.065 2.5-1.665 4.002-1.665H-125.064c1.496 0 2.933.596 3.99 1.657 1.069 1.061 1.666 2.508 1.658 4.014.002 1.506-.596 2.949-1.663 4.012l-8.168 8.136c-.11.107-.258.169-.41.17-.157-.002-.306-.065-.415-.176l-8.154-8.151c-1.067-1.06-1.667-2.501-1.666-4.005-.009-1.506.588-2.951 1.656-4.012 1.057-1.06 2.49-1.656 3.987-1.656z" transform="translate(139.892 93.721)"/>
    </g>
</svg>
