<svg xmlns="http://www.w3.org/2000/svg" width="18.175" height="18.501" viewBox="0 0 18.175 18.501">
    <g>
        <g>
            <g>
                <path stroke="#000" stroke-width="0.5px" d="M12.163 0h.029a8.83 8.83 0 0 1 6.925 14.333l1.288 2.99a.48.48 0 0 1-.251.632.49.49 0 0 1-.275.034l-4.721-.83a8.509 8.509 0 0 1-2.942.511A8.838 8.838 0 0 1 12.163 0zm.048 16.716a7.741 7.741 0 0 0 2.725-.5.462.462 0 0 1 .256-.024l3.974.694-1.051-2.445a.485.485 0 0 1 .077-.506 7.71 7.71 0 0 0 1.341-2.228A7.874 7.874 0 1 0 4.326 8.8v.029a7.9 7.9 0 0 0 7.885 7.887z" transform="translate(-23.75 -62.75) translate(24 63) translate(-3.366)"/>
            </g>
        </g>
    </g>
</svg>
