<svg xmlns="http://www.w3.org/2000/svg" width="26.173" height="25.507" viewBox="0 0 26.173 25.507">
    <defs>
        <style>
            .cls-1{fill:#45b995;stroke:#45b995;stroke-width:.5px}
        </style>
    </defs>
    <g id="panier_desactivé" transform="translate(-1441.597 1689.491)">
        <path id="Path_637" d="M1467.04-1685.134a1.982 1.982 0 0 0-1.506-.692H1448.1l-.658-3.415h-4.971a.623.623 0 0 0-.624.624.624.624 0 0 0 .624.625h3.939l.667 3.469 1.656 9.632a1.975 1.975 0 0 0 1.96 1.683h13.322a1.968 1.968 0 0 0 1.958-1.666l1.519-8.663a1.975 1.975 0 0 0-.452-1.597zm-2.3 10.053a.731.731 0 0 1-.726.623H1450.7a.735.735 0 0 1-.728-.634l-1.631-9.487h17.2a.735.735 0 0 1 .735.735.789.789 0 0 1-.006.1z" class="cls-1"/>
        <path id="Path_638" d="M1464.241-1670.051h.494a.625.625 0 0 0 .625-.625.625.625 0 0 0-.625-.625h-15.153a.624.624 0 0 0-.624.625.624.624 0 0 0 .624.625h.369a3.131 3.131 0 0 0-1.06 4.3 3.131 3.131 0 0 0 4.3 1.06 3.13 3.13 0 0 0 1.06-4.3 3.124 3.124 0 0 0-1.06-1.06h7.548a3.131 3.131 0 0 0-.842 4.346 3.13 3.13 0 0 0 4.346.842 3.129 3.129 0 0 0 .842-4.346 3.123 3.123 0 0 0-.844-.842zm-12.671 4.547a1.881 1.881 0 0 1-1.881-1.881 1.881 1.881 0 0 1 1.881-1.881 1.882 1.882 0 0 1 1.881 1.88 1.885 1.885 0 0 1-1.881 1.882zm10.92-.073a1.882 1.882 0 0 1-1.882-1.88 1.881 1.881 0 0 1 1.88-1.882 1.88 1.88 0 0 1 1.882 1.88 1.883 1.883 0 0 1-1.88 1.881z" class="cls-1"/>
    </g>
</svg>
