<svg xmlns="http://www.w3.org/2000/svg" width="20.001" height="20" viewBox="0 0 20.001 20">
    <path d="M1420.157 1375.876a.771.771 0 0 0-.171-.483v-.122h-.122a.765.765 0 0 0-.479-.168.772.772 0 0 0-.546.226l-1.578 1.579a2.127 2.127 0 0 0-.234-.075l-5.2-1.284a1.938 1.938 0 0 0-1.824.5l-9.29 9.275a1.928 1.928 0 0 0 0 2.716l6.5 6.5a1.926 1.926 0 0 0 2.715 0l9.274-9.291a1.936 1.936 0 0 0 .505-1.821l-1.284-5.2a1.953 1.953 0 0 0-.075-.234l1.58-1.578a.764.764 0 0 0 .229-.54zm-5.584 4.911a.379.379 0 1 1-.315-.168.383.383 0 0 1 .211.063v.105zm.384-1.577a1.921 1.921 0 1 0 1.088 1.089l1.045-1.043 1.121 4.547a.38.38 0 0 1-.1.359l-9.274 9.289a.376.376 0 0 1-.535 0l-6.5-6.5a.379.379 0 0 1 0-.534l9.29-9.274a.379.379 0 0 1 .27-.111.362.362 0 0 1 .09.012l4.548 1.123z" transform="translate(-1400.156 -1375.103)"/>
</svg>
