<svg xmlns="http://www.w3.org/2000/svg" width="18.669" height="19.397" viewBox="0 0 18.669 19.397">
    <defs>
        <style>
            .cls-1{stroke:#000;stroke-width:.3px}
        </style>
    </defs>
    <g id="sale" transform="translate(-10.14 .249)">
        <g id="Group_811" transform="translate(10.359 -.002)">
            <g id="Group_810">
                <path id="Path_1019" d="M27.711 9.744a.557.557 0 0 1 0-.492L28.42 7.8a1.649 1.649 0 0 0-.712-2.19l-1.425-.756a.557.557 0 0 1-.289-.4l-.279-1.589a1.649 1.649 0 0 0-1.863-1.354l-1.6.226a.557.557 0 0 1-.468-.152L20.626.467a1.649 1.649 0 0 0-2.3 0l-1.16 1.122a.557.557 0 0 1-.468.152l-1.6-.226a1.649 1.649 0 0 0-1.863 1.354l-.279 1.589a.557.557 0 0 1-.289.4l-1.425.756a1.649 1.649 0 0 0-.712 2.19l.709 1.45a.557.557 0 0 1 0 .492l-.709 1.45a1.649 1.649 0 0 0 .712 2.19l1.425.756a.557.557 0 0 1 .289.4l.279 1.589A1.648 1.648 0 0 0 14.86 17.5a1.7 1.7 0 0 0 .237-.017l1.6-.226a.557.557 0 0 1 .468.152l1.16 1.122a1.649 1.649 0 0 0 2.3 0l1.16-1.122a.557.557 0 0 1 .468-.152l1.6.226a1.649 1.649 0 0 0 1.863-1.354l.279-1.589a.557.557 0 0 1 .289-.4l1.425-.756a1.649 1.649 0 0 0 .712-2.19zm-.517 2.672l-1.425.756a1.646 1.646 0 0 0-.855 1.177l-.279 1.589A.558.558 0 0 1 24 16.4l-1.6-.226a1.645 1.645 0 0 0-1.383.45l-1.16 1.122a.558.558 0 0 1-.779 0l-1.16-1.122a1.644 1.644 0 0 0-1.148-.466 1.682 1.682 0 0 0-.236.017l-1.6.226a.558.558 0 0 1-.63-.458l-.279-1.589a1.646 1.646 0 0 0-.855-1.177l-1.425-.756a.558.558 0 0 1-.241-.741l.709-1.45a1.646 1.646 0 0 0 0-1.455l-.709-1.45a.558.558 0 0 1 .241-.741l1.425-.756a1.646 1.646 0 0 0 .855-1.177l.279-1.589a.558.558 0 0 1 .63-.458l1.6.226a1.646 1.646 0 0 0 1.383-.45l1.16-1.122a.558.558 0 0 1 .779 0l1.16 1.122a1.645 1.645 0 0 0 1.383.45L24 2.6a.558.558 0 0 1 .63.458l.279 1.589a1.646 1.646 0 0 0 .855 1.177l1.425.756a.558.558 0 0 1 .241.741l-.709 1.45a1.646 1.646 0 0 0 0 1.455l.709 1.45a.558.558 0 0 1-.236.74z" class="cls-1" transform="translate(-10.359 .002)"/>
            </g>
        </g>
        <g id="Group_813" transform="translate(15.77 5.794)">
            <g id="Group_812">
                <path id="Path_1020" d="M151.057 143.934a.487.487 0 0 0-.689 0l-6.434 6.434a.487.487 0 1 0 .689.689l6.434-6.434a.487.487 0 0 0 0-.689z" class="cls-1" transform="translate(-143.791 -143.791)"/>
            </g>
        </g>
        <g id="Group_815" transform="translate(15.738 5.111)">
            <g id="Group_814">
                <path id="Path_1021" d="M144.589 123.116a1.787 1.787 0 1 0 1.787 1.787 1.789 1.789 0 0 0-1.787-1.787zm0 2.6a.812.812 0 1 1 .812-.812.813.813 0 0 1-.812.812z" class="cls-1" transform="translate(-142.802 -123.116)"/>
            </g>
        </g>
        <g id="Group_817" transform="translate(19.637 10.31)">
            <g id="Group_816">
                <path id="Path_1022" d="M262.709 280.61a1.787 1.787 0 1 0 1.791 1.79 1.789 1.789 0 0 0-1.791-1.79zm0 2.6a.812.812 0 1 1 .812-.812.813.813 0 0 1-.812.812z" class="cls-1" transform="translate(-260.922 -280.61)"/>
            </g>
        </g>
    </g>
</svg>
