<svg xmlns="http://www.w3.org/2000/svg" width="19.79" height="25" viewBox="0 0 19.79 25">
    <g data-name="Group 752">
        <g data-name="Group 751">
            <path d="M10.937 0H.517a.521.521 0 0 0-.521.521v8.333a2.609 2.609 0 0 0 2.083 2.552v2.66a1.562 1.562 0 0 0 3.125 0v-2.6h1.042v2.6a1.562 1.562 0 0 0 3.125 0V11.41a2.608 2.608 0 0 0 2.083-2.552V.525A.52.52 0 0 0 10.937 0z" data-name="Path 724" transform="translate(4.166 9.376)"/>
        </g>
    </g>
    <g data-name="Group 754">
        <g data-name="Group 753">
            <path d="M8.455 2.776L9.333.727a.521.521 0 0 0-.957-.409l-.878 2.05a5.676 5.676 0 0 0-3.535 0l-.88-2.05a.52.52 0 1 0-.956.409l.878 2.049a5.733 5.733 0 0 0-3 5.038.521.521 0 0 0 .521.521h10.416a.521.521 0 0 0 .521-.521 5.734 5.734 0 0 0-3.008-5.038zM3.646 6.252a.521.521 0 1 1 .521-.521.521.521 0 0 1-.521.521zm4.166 0a.521.521 0 1 1 .521-.521.521.521 0 0 1-.517.521z" data-name="Path 725" transform="translate(4.166)"/>
        </g>
    </g>
    <g data-name="Group 756">
        <g data-name="Group 755">
            <path d="M1.562 0A1.564 1.564 0 0 0 0 1.562v5.204a1.562 1.562 0 1 0 3.125 0v-5.2A1.564 1.564 0 0 0 1.562 0z" data-name="Path 726" transform="translate(16.666 9.376)"/>
        </g>
    </g>
    <g data-name="Group 758">
        <g data-name="Group 757">
            <path d="M1.562 0A1.564 1.564 0 0 0 0 1.566v5.2a1.562 1.562 0 1 0 3.125 0v-5.2A1.564 1.564 0 0 0 1.562 0z" data-name="Path 727" transform="translate(0 9.376)"/>
        </g>
    </g>
</svg>
