<svg xmlns="http://www.w3.org/2000/svg" width="1920" height="250" viewBox="0 0 1920 250">
    <defs>
        <clipPath id="clip-path">
            <path id="Rectangle_226" d="M0 0H1920V250H0z" class="cls-1" transform="translate(0 131)"/>
        </clipPath>
        <style>
            .cls-1{fill:#fff}.cls-6{fill:#ffe96f}.cls-7{fill:#ffd24a}.cls-8{fill:#ffa439}.cls-9{fill:#ed9e6d}.cls-12{fill:#fe9b77}.cls-14{fill:#ffd59b}.cls-17{fill:#f06d6d}.cls-18{fill:#ffa6a7}.cls-22{fill:#fdd1a2}.cls-23{fill:#ebb799}.cls-24{fill:#d2c9ff}
        </style>
    </defs>
    <g id="banner_2" clip-path="url(#clip-path)" transform="translate(0 -131)">
        <g id="Group_838">
            <path id="Rectangle_180" fill="#a6ffbe" d="M0 0H1921.724V250H0z" opacity="0.8" transform="translate(-1 131)"/>
            <path id="Path_694" fill="#fff" d="M49 131v247.671h1920.6z" opacity="0.3" transform="translate(-48)"/>
            <g id="Group_644" transform="translate(1807.293 172.934)">
                <g id="Group_598">
                    <circle id="Ellipse_20-2" cx="88.354" cy="88.354" r="88.354" class="cls-1"/>
                    <path id="Path_418-2" fill="#ffd9bf" d="M-1338.708 602.137a72.653 72.653 0 0 1 88.988 51.363 72.654 72.654 0 0 1-51.359 88.991 72.658 72.658 0 0 1-88.991-51.362 72.656 72.656 0 0 1 51.362-88.992z" transform="translate(1407.43 -584.43)"/>
                    <g id="Group_588" transform="translate(96.173 61.301)">
                        <path id="Path_406" d="M-1347.482 665.36s-1.15.067-2.332.089-2.4 0-2.4 0-.546-.722-1.4-2.043c-.428-.658-.968-1.449-1.545-2.379l-1.9-3.132a84.711 84.711 0 0 1-7.375-17.739 70.71 70.71 0 0 1-2.662-17.985l.061-3.247.2-2.5a14.072 14.072 0 0 1 .166-1.571l.076-.549s1 1.054 2.014 2.056 2.092 1.979 2.092 1.979l-.15 1.976c-.009 1.283-.108 3.1.032 5.344a65.12 65.12 0 0 0 .875 7.714 71.851 71.851 0 0 0 2.235 8.94 76.071 76.071 0 0 0 7.379 16.219c.6 1.076 1.27 2 1.81 2.848s1.053 1.561 1.484 2.146z" class="cls-6" transform="translate(1367.099 -613.589)"/>
                        <path id="Path_407" d="M-1352.194 662.895s-.945 1.373-1.855 2.8-1.788 2.889-1.788 2.889l-1.283-1.8a20.664 20.664 0 0 1-1.392-2.126c-.485-.856-1.121-1.766-1.629-2.874a50.543 50.543 0 0 1-5.223-17.257 60.464 60.464 0 0 1-.358-10.057 66.576 66.576 0 0 1 1.146-9.023c.482-2.653 1.156-4.872 1.568-6.4l.807-2.423s1.612-.543 3.206-1.018 3.244-.881 3.244-.881l-.23.575a16.4 16.4 0 0 0-.584 1.619l-.846 2.529-.89 3.3a58.554 58.554 0 0 0-1.523 17.608 49.56 49.56 0 0 0 4 16.155l1.347 2.714c.431.786.856 1.44 1.181 2a12.763 12.763 0 0 0 1.102 1.67z" class="cls-7" transform="translate(1369.968 -612.679)"/>
                        <path id="Path_408" d="M-1367.071 615.1s1.274 1.248 2.571 2.423 2.707 2.3 2.707 2.3 1.692-.434 3.375-.792 3.436-.626 3.436-.626-1.338-1.016-2.663-2.1-2.624-2.222-2.624-2.222-1.679.192-3.384.444-3.418.573-3.418.573z" class="cls-8" transform="translate(1367.16 -614.076)"/>
                    </g>
                    <g id="Group_589" transform="translate(101.157 67.488)">
                        <path id="Path_409" d="M-1325.425 655.24l-2.308 1.606-2.388 1.565s-.779-.393-2.062-1.2l-2.331-1.443-2.934-2a82.784 82.784 0 0 1-14-12.835 81.879 81.879 0 0 1-10.594-15.772l-1.546-3.2-1.076-2.519c-.307-.693-.524-1.252-.657-1.638l-.214-.584 2.81.351 2.848.252.875 2.053c.629 1.274 1.459 3.129 2.659 5.242a79.056 79.056 0 0 0 4.413 7.037 77.6 77.6 0 0 0 6.012 7.388 74.549 74.549 0 0 0 13.521 11.577c2.034 1.338 3.768 2.394 5.022 3.056z" class="cls-6" transform="translate(1365.538 -613.361)"/>
                        <path id="Path_410" d="M-1329.082 652.061l-.151 2.784-.07 2.829-1.957-1.066c-1.254-.655-2.988-1.718-5.022-3.055a74.436 74.436 0 0 1-13.524-11.577 77.533 77.533 0 0 1-6.009-7.388 78.386 78.386 0 0 1-4.419-7.04c-1.2-2.12-2.034-3.969-2.66-5.243l-.875-2.053 1.839-2.1 1.932-2.04.195.5c.115.332.3.817.571 1.421l.932 2.19 1.332 2.8a71.573 71.573 0 0 0 9.262 13.783 72.536 72.536 0 0 0 12.251 11.216l2.554 1.74 2.034 1.268c1.108.699 1.785 1.031 1.785 1.031z" class="cls-7" transform="translate(1369.419 -615.795)"/>
                        <path id="Path_411" d="M-1365.538 619.877l2.81.351 2.848.252 1.832-2.107c.961-1.022 1.932-2.04 1.932-2.04l-2.73-.122-2.756-.2-1.985 1.9z" class="cls-8" transform="translate(1365.538 -616.014)"/>
                    </g>
                    <g id="Group_570" transform="translate(30.367 85.477)">
                        <path id="Path_366" d="M-1363.6 639.151l-3.541.971.946 2.267c.306.137.613.271.913.415l11.414 5.565a5.877 5.877 0 0 0 2.807 7.816 5.874 5.874 0 0 0 7.815-2.807 5.876 5.876 0 0 0 .258-4.368 5.871 5.871 0 0 0 3.551-7.506 5.873 5.873 0 0 0-7.5-3.553 5.877 5.877 0 0 0-3.314 2.982l-11.689-5.7c-.147-.061-.261-.141-.4-.2l-2.679.734z" class="cls-9" transform="translate(1432.813 -592.299)"/>
                        <g id="Group_569">
                            <path id="Path_367" fill="#944434" d="M-1339.409 661.424c-7.347-1.711-15.159.281-22.582-1.14a25.56 25.56 0 0 1-19.486-18.256 25.516 25.516 0 0 1 2.44-18.412 25.325 25.325 0 0 0-2.43 35.73 25.321 25.321 0 0 0 28.208 6.973 40.964 40.964 0 0 1 20.118-2.366 22.321 22.321 0 0 0-6.268-2.529z" transform="translate(1387.71 -617.334)"/>
                            <path id="Path_368" fill="#b85f3e" d="M-1323.687 665.113l2.679-.734a42.2 42.2 0 0 1-21.018-25.133 25.312 25.312 0 0 0-31.823-16.385 25.372 25.372 0 0 0-8.965 5.07 25.5 25.5 0 0 0-2.436 18.412 25.557 25.557 0 0 0 19.473 18.266c7.423 1.417 15.225-.565 22.585 1.14a22.464 22.464 0 0 1 6.277 2.526 42.141 42.141 0 0 1 12.043 3.467l-.948-2.267 3.54-.974z" transform="translate(1391.486 -621.648)"/>
                        </g>
                    </g>
                    <g id="Group_578" transform="translate(103.089 64.762)">
                        <path id="Path_382" d="M-1336.974 663.576l-2.784-.556-2.772-.511s-.83-3.033-2.379-7.493a142.187 142.187 0 0 0-6.756-15.916 140.932 140.932 0 0 0-8.7-14.942c-2.628-3.917-4.572-6.395-4.572-6.395l2.78-.527 2.781-.476s1.967 2.612 4.61 6.724a140.4 140.4 0 0 1 8.742 15.648 141.729 141.729 0 0 1 6.7 16.628c1.536 4.658 2.35 7.816 2.35 7.816z" class="cls-6" transform="translate(1364.933 -611.649)"/>
                        <path id="Path_383" d="M-1336.624 663.224l-2.078 1.954-2.095 1.916s-.814-3.161-2.344-7.81a141.873 141.873 0 0 0-6.7-16.628 140.545 140.545 0 0 0-8.742-15.648c-2.637-4.128-4.6-6.74-4.6-6.74l1.277-2.554 1.229-2.554s2.088 2.663 4.907 6.874a150.241 150.241 0 0 1 9.345 16.047 152.838 152.838 0 0 1 7.251 17.094c1.656 4.786 2.55 8.049 2.55 8.049z" class="cls-7" transform="translate(1368.752 -615.16)"/>
                        <path id="Path_384" d="M-1364.933 621.274l2.78-.527 2.781-.479 1.277-2.554 1.229-2.554-2.711.623-2.682.654-1.325 2.436z" class="cls-8" transform="translate(1364.933 -615.16)"/>
                    </g>
                    <g id="Group_579" transform="translate(128.037 64.19)">
                        <path id="Path_385" d="M-1337.592 666.555l-5.475-1.063-14.051-49.42 5.482 1.063z" class="cls-6" transform="translate(1357.118 -612.589)"/>
                        <path id="Path_386" d="M-1337.258 664.636l-4.093 3.79-14.051-49.42 4.1-3.787z" class="cls-7" transform="translate(1360.884 -614.459)"/>
                        <path id="Path_387" d="M-1357.118 618.464l5.482 1.063 4.1-3.787-5.39-.76z" class="cls-8" transform="translate(1357.118 -614.981)"/>
                    </g>
                    <g id="Group_580" transform="translate(114.835 57.15)">
                        <path id="Path_388" d="M-1336.526 668.958l-6.07-1.526s-.753-3.445-2.1-8.56-3.371-11.88-5.7-18.54-4.99-13.2-7.145-18.039-3.713-7.985-3.713-7.985l3.128.035 3.126.074s1.574 3.247 3.7 8.221 4.789 11.682 7.091 18.521a260.488 260.488 0 0 1 7.683 27.799z" class="cls-6" transform="translate(1361.254 -609.417)"/>
                        <path id="Path_389" d="M-1335.981 668.314l-4.837 4a259.859 259.859 0 0 0-7.665-27.783c-2.315-6.845-4.962-13.553-7.107-18.534s-3.7-8.221-3.7-8.221l1.918-2.49 1.894-2.509s1.644 3.3 3.882 8.362 5.013 11.89 7.468 18.84 4.55 14.029 5.958 19.377 2.189 8.958 2.189 8.958z" class="cls-7" transform="translate(1365.549 -612.776)"/>
                        <path id="Path_390" d="M-1361.254 617.667l3.128.035 3.126.074 1.919-2.49 1.893-2.509-6.123.22z" class="cls-8" transform="translate(1361.254 -612.776)"/>
                    </g>
                    <g id="Group_591" transform="translate(89.52 75.125)">
                        <path id="Path_388-2" d="M-1368.191 618.406l5.323.006s1.331 2.685 3.5 6.628 5.227 9.109 8.521 14.115 6.833 9.859 9.6 13.4 4.715 5.83 4.715 5.83l-2.586.613-2.6.581s-1.964-2.353-4.745-6.015-6.366-8.646-9.677-13.815a220.729 220.729 0 0 1-12.051-21.343z" class="cls-6" transform="translate(1371.358 -618.406)"/>
                        <path id="Path_389-2" d="M-1369.183 622.7l3.167-4.3a221.061 221.061 0 0 0 12.062 21.343c3.311 5.169 6.877 10.162 9.674 13.815s4.748 6.018 4.748 6.018l-1.073 2.452-1.041 2.459s-2.037-2.385-4.926-6.095-6.587-8.777-10.042-14.01-6.647-10.629-8.911-14.744-3.658-6.938-3.658-6.938z" class="cls-7" transform="translate(1369.183 -618.406)"/>
                        <path id="Path_390-2" d="M-1353.26 630.93l-2.589.613-2.593.581-1.073 2.449-1.044 2.459 5.006-1.443z" class="cls-8" transform="translate(1388.093 -590.944)"/>
                    </g>
                    <g id="Group_574" transform="translate(117.127 65.413)">
                        <path id="Path_373" d="M-1357.34 660.092l-1.593-1.718-1.6-1.682s.913-2.43 2.03-6.156a116.811 116.811 0 0 0 3.18-13.895 115.488 115.488 0 0 0 1.415-14.185c.141-3.892.038-6.484.038-6.484l2.117.98 2.085 1.038s.058 2.692-.166 6.721a115.524 115.524 0 0 1-1.727 14.671 117.389 117.389 0 0 1-3.56 14.348c-1.229 3.859-2.219 6.362-2.219 6.362z" class="cls-6" transform="translate(1360.536 -614.031)"/>
                        <path id="Path_374" d="M-1354.882 659.655l-2.331.291-2.321.265s.984-2.506 2.2-6.338a117.243 117.243 0 0 0 3.563-14.348 115.6 115.6 0 0 0 1.731-14.683c.223-4.029.169-6.724.169-6.724l2.085-1.082 2.059-1.121s.105 2.787-.044 6.967a123.624 123.624 0 0 1-1.511 15.233 125.1 125.1 0 0 1-3.416 14.923c-1.202 4.005-2.184 6.617-2.184 6.617z" class="cls-7" transform="translate(1362.733 -614.158)"/>
                        <path id="Path_375" d="M-1358.449 617.305l2.117.98 2.084 1.028 2.085-1.073 2.059-1.121-2.11-.894-2.107-.862-2.066.986z" class="cls-8" transform="translate(1365.112 -615.364)"/>
                    </g>
                    <g id="Group_575" transform="translate(127.507 76.971)">
                        <path id="Path_376" d="M-1354.14 662.242l-3.145-3.359 14.5-39.8 3.148 3.359z" class="cls-6" transform="translate(1357.285 -618.776)"/>
                        <path id="Path_377" d="M-1351.728 659.766l-4.572.546 14.5-39.8 4.569-.549z" class="cls-7" transform="translate(1359.445 -616.846)"/>
                        <path id="Path_378" d="M-1352.743 619.281l3.145 3.362 4.572-.546-3.234-3.113z" class="cls-8" transform="translate(1367.244 -618.984)"/>
                    </g>
                    <g id="Group_576" transform="translate(122.696 65.914)">
                        <path id="Path_379" d="M-1355.471 664.361l-3.321-3.953s1.146-2.656 2.727-6.737 3.493-9.565 5.15-15.14 3.049-11.229 3.94-15.491 1.395-7.139 1.395-7.139l2.075 1.536 2.053 1.561s-.517 2.931-1.5 7.279-2.443 10.124-4.211 15.8a213.727 213.727 0 0 1-8.308 22.284z" class="cls-6" transform="translate(1358.792 -614.686)"/>
                        <path id="Path_380" d="M-1352.586 662.932l-5.165.335a214.866 214.866 0 0 0 8.307-22.282c1.766-5.68 3.244-11.446 4.211-15.8s1.5-7.292 1.5-7.292l2.483-.728 2.471-.763s-.492 3-1.443 7.461-2.4 10.37-4.125 16.2-3.742 11.571-5.383 15.826-2.856 7.043-2.856 7.043z" class="cls-7" transform="translate(1361.072 -613.591)"/>
                        <path id="Path_381" d="M-1354.654 616.737l2.075 1.536 2.049 1.558 2.5-.734 2.461-.766-4.2-2.81z" class="cls-8" transform="translate(1367.865 -615.521)"/>
                    </g>
                    <g id="Group_590" transform="translate(103.418 79.292)">
                        <path id="Path_379-2" d="M-1324.814 620.6l.275 5.153s-2.513 1.43-6.232 3.739-8.544 5.539-13.221 8.994-9.192 7.136-12.47 10-5.409 4.863-5.409 4.863l-.734-2.474-.7-2.484s2.178-2.027 5.581-4.914 8.043-6.612 12.87-10.086a213.989 213.989 0 0 1 20.04-12.791z" class="cls-6" transform="translate(1368.171 -617.757)"/>
                        <path id="Path_380-2" d="M-1325.8 619.711l4.326 2.845a214.054 214.054 0 0 0-20.041 12.8c-4.827 3.474-9.479 7.19-12.87 10.083s-5.59 4.92-5.59 4.92l-2.42-.913-2.436-.878s2.2-2.1 5.645-5.089 8.155-6.839 13.042-10.459 9.952-6.989 13.825-9.4 6.519-3.909 6.519-3.909z" class="cls-7" transform="translate(1364.83 -619.711)"/>
                        <path id="Path_381-2" d="M-1358.531 635.491l-.734-2.474-.7-2.481-2.436-.916-2.43-.872 1.66 4.77z" class="cls-8" transform="translate(1364.83 -599.895)"/>
                    </g>
                    <g id="Group_586" transform="translate(104.985 65.352)">
                        <path id="Path_400" d="M-1359.856 658.852s-1.056-.374-2.116-.785-2.11-.868-2.11-.868-.1-.7-.153-1.935c-.026-.613-.083-1.357-.1-2.212l.01-2.883a60.7 60.7 0 0 1 2.452-15.115 59.862 59.862 0 0 1 6.293-13.994l1.568-2.407 1.306-1.785c.364-.5.655-.878.869-1.13l.319-.393s.437 1.067.9 2.091.993 2.063.993 2.063l-1.057 1.446c-.616.958-1.555 2.292-2.494 4.007a57.227 57.227 0 0 0-2.947 5.986 57.438 57.438 0 0 0-2.42 7.254 54.309 54.309 0 0 0-1.759 14.173c-.026.98.064 1.871.089 2.663s.1 1.478.163 2.047z" class="cls-6" transform="translate(1364.339 -615.345)"/>
                        <path id="Path_401" d="M-1358.821 653.586s-.951.559-1.906 1.172-1.9 1.248-1.9 1.248l-.194-1.782c-.067-.565-.137-1.255-.163-2.046s-.121-1.686-.089-2.663a54.343 54.343 0 0 1 1.755-14.179 57.706 57.706 0 0 1 2.43-7.254 57.747 57.747 0 0 1 2.934-5.977c.945-1.711 1.871-3.043 2.5-4.007l1.06-1.453s1.111.188 2.206.415 2.2.511 2.2.511l-.288.329c-.182.214-.437.54-.74.964l-1.121 1.529-1.344 2.063a51.794 51.794 0 0 0-5.421 12.065 52.492 52.492 0 0 0-2.126 13.058c0 .9-.007 1.73-.007 2.462s.067 1.37.09 1.893a15.679 15.679 0 0 0 .124 1.652z" class="cls-7" transform="translate(1367.106 -612.492)"/>
                        <path id="Path_402" d="M-1360.325 615.345s.438 1.067.9 2.091.984 2.063.984 2.063 1.111.185 2.206.412 2.2.514 2.2.514-.527-.955-1.028-1.935-.983-1.992-.983-1.992-1.044-.316-2.117-.6-2.162-.553-2.162-.553z" class="cls-8" transform="translate(1373.141 -615.345)"/>
                    </g>
                </g>
                <circle id="Ellipse_25" cx="10.768" cy="10.768" r="10.768" class="cls-12" transform="translate(48.133 40.213)"/>
                <circle id="Ellipse_26" cx="6.851" cy="6.851" r="6.851" class="cls-12" transform="translate(67.41 59.725)"/>
                <circle id="Ellipse_27" cx="8.811" cy="8.811" r="8.811" class="cls-12" transform="translate(74.903 36.17)"/>
            </g>
            <g id="Group_640" transform="translate(-64 154)">
                <circle id="Ellipse_20" cx="88.5" cy="88.5" r="88.5" class="cls-1"/>
                <path id="Path_418" fill="#ffd2d3" d="M-1655.454 445.7a72.655 72.655 0 0 1 101.746 14.308 72.655 72.655 0 0 1-14.307 101.746 72.654 72.654 0 0 1-101.747-14.307 72.654 72.654 0 0 1 14.308-101.747z" transform="translate(1699.144 -415.508)"/>
                <g id="Group_635" transform="translate(30.585 73.565)">
                    <circle id="Ellipse_21" cx="22.579" cy="22.579" r="22.579" class="cls-9"/>
                    <g id="Group_634" transform="translate(5.228 4.162)">
                        <g id="Group_602" transform="translate(14.441 11.419)">
                            <path id="Path_435" d="M-1667.819 465.555a.868.868 0 0 0 .576-1.024 3.053 3.053 0 0 0-.884-1.311.331.331 0 0 0-.47.009.316.316 0 0 0-.069.106 3.061 3.061 0 0 0-.239 1.593.857.857 0 0 0 1.021.645z" class="cls-14" transform="translate(1668.926 -463.127)"/>
                        </g>
                        <g id="Group_603" transform="translate(19.063 13.903)">
                            <path id="Path_436" d="M-1666.821 465.359a.736.736 0 0 0 .948.289 2.585 2.585 0 0 0 .923-.966.28.28 0 0 0-.094-.383.293.293 0 0 0-.1-.037 2.573 2.573 0 0 0-1.357.09.724.724 0 0 0-.347.962z" class="cls-14" transform="translate(1666.913 -464.209)"/>
                        </g>
                        <g id="Group_604" transform="translate(21.12 17.972)">
                            <path id="Path_437" d="M-1665.992 466.629a.874.874 0 0 0 .576 1.033 3.081 3.081 0 0 0 1.588-.064.332.332 0 0 0 .241-.4.34.34 0 0 0-.055-.117 3.037 3.037 0 0 0-1.237-1.047.857.857 0 0 0-1.093.528z" class="cls-14" transform="translate(1666.016 -465.982)"/>
                        </g>
                        <g id="Group_605" transform="translate(16.027 20.157)">
                            <path id="Path_438" d="M-1667.982 468.571a.757.757 0 0 0 1.019-.041 2.655 2.655 0 0 0 .561-1.244.29.29 0 0 0-.216-.344.277.277 0 0 0-.115 0 2.631 2.631 0 0 0-1.281.546.74.74 0 0 0-.009 1.047z" class="cls-14" transform="translate(1668.235 -466.934)"/>
                        </g>
                        <g id="Group_606" transform="translate(12.495 16.416)">
                            <path id="Path_439" d="M-1669.774 465.976a.691.691 0 0 0 .638.689 2.442 2.442 0 0 0 1.21-.349.266.266 0 0 0 .113-.358.292.292 0 0 0-.069-.08 2.406 2.406 0 0 0-1.151-.572.692.692 0 0 0-.739.636z" class="cls-14" transform="translate(1669.774 -465.304)"/>
                        </g>
                        <g id="Group_607" transform="translate(11.441 21.404)">
                            <path id="Path_440" d="M-1668.835 467.628a.672.672 0 0 0-.907.053 2.352 2.352 0 0 0-.486 1.125.258.258 0 0 0 .2.3.225.225 0 0 0 .1 0 2.322 2.322 0 0 0 1.136-.505.66.66 0 0 0 0-.934z" class="cls-14" transform="translate(1670.233 -467.477)"/>
                        </g>
                        <g id="Group_608" transform="translate(17.053 25.502)">
                            <path id="Path_441" d="M-1667.165 469.294a.87.87 0 0 0-.606 1.005 3.068 3.068 0 0 0 .843 1.338.333.333 0 0 0 .468.012.32.32 0 0 0 .076-.113 3.008 3.008 0 0 0 .287-1.582.85.85 0 0 0-1-.677z" class="cls-14" transform="translate(1667.788 -469.262)"/>
                        </g>
                        <g id="Group_609" transform="translate(23.736 24.329)">
                            <path id="Path_442" d="M-1664.819 469.258a.839.839 0 0 0 .406 1.056 2.955 2.955 0 0 0 1.513.151.319.319 0 0 0 .282-.353.3.3 0 0 0-.037-.117 2.927 2.927 0 0 0-1.033-1.155.822.822 0 0 0-1.1.36z" class="cls-14" transform="translate(1664.877 -468.751)"/>
                        </g>
                        <g id="Group_610" transform="translate(27.131 19.71)">
                            <path id="Path_443" d="M-1663.343 467.747a.73.73 0 0 0 .9.4 2.583 2.583 0 0 0 1.024-.838.28.28 0 0 0-.051-.39.357.357 0 0 0-.092-.048 2.55 2.55 0 0 0-1.345-.073.717.717 0 0 0-.455.9z" class="cls-14" transform="translate(1663.398 -466.739)"/>
                        </g>
                        <g id="Group_611" transform="translate(26.178 15.183)">
                            <path id="Path_444" d="M-1663.767 465.651a.641.641 0 0 0 .787.351 2.233 2.233 0 0 0 .895-.737.241.241 0 0 0-.041-.34.242.242 0 0 0-.083-.044 2.231 2.231 0 0 0-1.177-.064.627.627 0 0 0-.4.794z" class="cls-14" transform="translate(1663.813 -464.767)"/>
                        </g>
                        <g id="Group_612" transform="translate(23.981 11.075)">
                            <path id="Path_445" d="M-1664.6 464.087a.506.506 0 0 0 .686-.03 1.778 1.778 0 0 0 .376-.845.193.193 0 0 0-.147-.232.219.219 0 0 0-.078 0 1.778 1.778 0 0 0-.863.374.5.5 0 0 0 0 .707z" class="cls-14" transform="translate(1664.77 -462.977)"/>
                        </g>
                        <g id="Group_613" transform="translate(19.249 8.287)">
                            <path id="Path_446" d="M-1666.336 463.375a.571.571 0 0 0 .617-.464 2.027 2.027 0 0 0-.186-1.019.23.23 0 0 0-.308-.106.213.213 0 0 0-.046.032 1.984 1.984 0 0 0-.562.891.558.558 0 0 0 .441.659z" class="cls-14" transform="translate(1666.832 -461.763)"/>
                        </g>
                        <g id="Group_614" transform="translate(10.282 7.443)">
                            <path id="Path_447" d="M-1668.789 463.2a.876.876 0 0 0-.082-1.18 3.063 3.063 0 0 0-1.469-.615.332.332 0 0 0-.392.262.365.365 0 0 0 0 .133 3.054 3.054 0 0 0 .677 1.469.859.859 0 0 0 1.214-.014z" class="cls-14" transform="translate(1670.738 -461.395)"/>
                        </g>
                        <g id="Group_615" transform="translate(7.091 13.082)">
                            <path id="Path_448" d="M-1669.759 464.773a.837.837 0 0 0-.67-.909 2.941 2.941 0 0 0-1.5.259.317.317 0 0 0-.179.415.311.311 0 0 0 .067.1 2.923 2.923 0 0 0 1.3.835.824.824 0 0 0 .969-.643z" class="cls-14" transform="translate(1672.128 -463.852)"/>
                        </g>
                        <g id="Group_616" transform="translate(6.216 18.622)">
                            <path id="Path_449" d="M-1670.528 466.7a.733.733 0 0 0-.9-.4 2.583 2.583 0 0 0-1.024.84.278.278 0 0 0 .05.39.288.288 0 0 0 .092.046 2.529 2.529 0 0 0 1.345.076.715.715 0 0 0 .452-.907z" class="cls-14" transform="translate(1672.509 -466.265)"/>
                        </g>
                        <g id="Group_617" transform="translate(6.994 25.327)">
                            <path id="Path_450" d="M-1671.081 469.248a.69.69 0 0 0-.877.273 2.4 2.4 0 0 0-.2 1.214.257.257 0 0 0 .266.248.227.227 0 0 0 .1-.025 2.338 2.338 0 0 0 .985-.771.666.666 0 0 0-.228-.914z" class="cls-14" transform="translate(1672.17 -469.186)"/>
                        </g>
                        <g id="Group_618" transform="translate(12.619 29.782)">
                            <path id="Path_451" d="M-1669.272 471.283a1.1 1.1 0 0 0-.445.96c.094.324.381.76.487 1.173a.334.334 0 0 0 .4.253.308.308 0 0 0 .122-.055 1.852 1.852 0 0 0 .663-1.777.919.919 0 0 0-.533-.661.691.691 0 0 0-.694.107z" class="cls-14" transform="translate(1669.72 -471.127)"/>
                        </g>
                        <g id="Group_619" transform="translate(18.691 31.25)">
                            <path id="Path_452" d="M-1666.705 471.949a.941.941 0 0 0-.225 1.249 3.273 3.273 0 0 0 1.364 1.026.355.355 0 0 0 .475-.17.351.351 0 0 0 .034-.138 3.263 3.263 0 0 0-.312-1.708.921.921 0 0 0-1.262-.31l-.074.051z" class="cls-14" transform="translate(1667.075 -471.766)"/>
                        </g>
                        <g id="Group_620" transform="translate(27.692 27.399)">
                            <path id="Path_453" d="M-1661.192 472.318a.984.984 0 0 0 .076-1.322 3.453 3.453 0 0 0-1.547-.888.377.377 0 0 0-.473.239.406.406 0 0 0-.016.149 3.4 3.4 0 0 0 .549 1.726.966.966 0 0 0 1.357.147z" class="cls-14" transform="translate(1663.154 -470.089)"/>
                        </g>
                        <g id="Group_621" transform="translate(30.707 11.209)">
                            <path id="Path_454" d="M-1659.732 463.622a.743.743 0 0 0-.815-.581 2.627 2.627 0 0 0-1.191.629.281.281 0 0 0-.035.4.244.244 0 0 0 .085.069 2.566 2.566 0 0 0 1.32.349.731.731 0 0 0 .647-.8z" class="cls-14" transform="translate(1661.84 -463.036)"/>
                        </g>
                        <g id="Group_622" transform="translate(32.94 16.931)">
                            <path id="Path_455" d="M-1659.662 465.754a.565.565 0 0 0-.48-.225 5.268 5.268 0 0 1-.587.227.165.165 0 0 0-.135.193.144.144 0 0 0 .023.062.916.916 0 0 0 .9.363.391.391 0 0 0 .279-.62z" class="cls-14" transform="translate(1660.867 -465.529)"/>
                        </g>
                        <g id="Group_623" transform="translate(22.573 3.598)">
                            <path id="Path_456" d="M-1663.748 459.8a1.066 1.066 0 0 0-1.356.478 3.746 3.746 0 0 0-.246 1.917.406.406 0 0 0 .436.372.4.4 0 0 0 .154-.044 3.7 3.7 0 0 0 1.5-1.267 1.046 1.046 0 0 0-.413-1.419z" class="cls-14" transform="translate(1665.383 -459.72)"/>
                        </g>
                        <g id="Group_624" transform="translate(14.798 3.155)">
                            <path id="Path_457" d="M-1668.2 459.552a.78.78 0 0 0-.551.9 2.757 2.757 0 0 0 .746 1.207.3.3 0 0 0 .418.011.283.283 0 0 0 .069-.1 2.711 2.711 0 0 0 .264-1.416.763.763 0 0 0-.883-.622z" class="cls-14" transform="translate(1668.771 -459.527)"/>
                        </g>
                        <g id="Group_625" transform="translate(7.157 3.553)">
                            <path id="Path_458" d="M-1671.981 460.007a.724.724 0 0 0 .154.962 2.538 2.538 0 0 0 1.246.4.275.275 0 0 0 .3-.248.272.272 0 0 0-.009-.106 2.52 2.52 0 0 0-.663-1.155.705.705 0 0 0-.994.106z" class="cls-14" transform="translate(1672.099 -459.7)"/>
                        </g>
                        <g id="Group_626" transform="translate(3.278 9.646)">
                            <path id="Path_459" d="M-1673.763 462.718a.55.55 0 0 0 .307.675 1.916 1.916 0 0 0 1 .039.207.207 0 0 0 .165-.243.205.205 0 0 0-.027-.071 1.9 1.9 0 0 0-.716-.716.541.541 0 0 0-.711.275z" class="cls-14" transform="translate(1673.79 -462.355)"/>
                        </g>
                        <g id="Group_627" transform="translate(0 16.007)">
                            <path id="Path_460" d="M-1675.214 465.8a.773.773 0 0 0 .634.833 2.706 2.706 0 0 0 1.382-.257.3.3 0 0 0 .161-.386.348.348 0 0 0-.062-.094 2.7 2.7 0 0 0-1.212-.76.759.759 0 0 0-.893.6z" class="cls-14" transform="translate(1675.217 -465.126)"/>
                        </g>
                        <g id="Group_628" transform="translate(1.817 21.715)">
                            <path id="Path_461" d="M-1674.426 468.242a.634.634 0 0 0 .606.606 2.238 2.238 0 0 0 1.092-.353.243.243 0 0 0 .088-.331.244.244 0 0 0-.064-.071 2.215 2.215 0 0 0-1.07-.48.624.624 0 0 0-.652.594z" class="cls-14" transform="translate(1674.426 -467.613)"/>
                        </g>
                        <g id="Group_629" transform="translate(4.629 30.267)">
                            <path id="Path_462" d="M-1673.171 472.1a.6.6 0 0 0 .7.386 2.085 2.085 0 0 0 .886-.617.232.232 0 0 0-.014-.324.232.232 0 0 0-.071-.044 2.077 2.077 0 0 0-1.088-.149.586.586 0 0 0-.432.7z" class="cls-14" transform="translate(1673.2 -471.338)"/>
                        </g>
                        <g id="Group_630" transform="translate(13.279 35.208)">
                            <path id="Path_463" d="M-1669.418 473.955a.624.624 0 0 0 .42.728 2.2 2.2 0 0 0 1.125-.067.23.23 0 0 0 .17-.278.228.228 0 0 0-.049-.094 2.185 2.185 0 0 0-.888-.725.61.61 0 0 0-.765.393z" class="cls-14" transform="translate(1669.432 -473.491)"/>
                        </g>
                        <g id="Group_631" transform="translate(31.449 22.515)">
                            <path id="Path_464" d="M-1661.127 469.976a.826.826 0 0 0 1.084-.241 2.9 2.9 0 0 0 .365-1.446.316.316 0 0 0-.3-.328.336.336 0 0 0-.124.021 2.865 2.865 0 0 0-1.265.833.807.807 0 0 0 .184 1.125z" class="cls-14" transform="translate(1661.517 -467.961)"/>
                        </g>
                        <g id="Group_632" transform="translate(28.485 5.651)">
                            <path id="Path_465" d="M-1662.645 460.862a.713.713 0 0 0 .039.953 2.49 2.49 0 0 0 1.182.528.27.27 0 0 0 .323-.211.25.25 0 0 0 0-.1 2.508 2.508 0 0 0-.526-1.21.689.689 0 0 0-.973-.009z" class="cls-14" transform="translate(1662.808 -460.614)"/>
                        </g>
                        <g id="Group_633" transform="translate(18.088)">
                            <path id="Path_466" d="M-1667.316 458.7a.751.751 0 0 0 .485.888 2.632 2.632 0 0 0 1.354-.046.283.283 0 0 0 .211-.342.282.282 0 0 0-.048-.1 2.6 2.6 0 0 0-1.049-.9.736.736 0 0 0-.937.448z" class="cls-14" transform="translate(1667.337 -458.153)"/>
                        </g>
                    </g>
                </g>
                <g id="Group_636" transform="translate(73.09 80.046)">
                    <path id="Path_468" fill="#aa595f" d="M-1591.007 481.518l-1.279 2.252a28.079 28.079 0 0 0-7.793-13.6 23.459 23.459 0 0 0-16.525-7.017 16.391 16.391 0 0 0-14.659 9.43c-1.937 4.683-1.244 10.219-3.6 14.707-4.219 8.03-15.914 9.021-21.366 16.266-.067.09-.124.181-.191.273l-1.859-2.238-.638 9.127a13.83 13.83 0 0 0 1.193 7.043 14.151 14.151 0 0 0 11.84 7.974 27.853 27.853 0 0 0 11.718-2.888l21.834-8.925a43.117 43.117 0 0 0 13.632-7.622 23.165 23.165 0 0 0 6.99-14.845z" transform="translate(1658.978 -453.995)"/>
                    <path id="Path_469" fill="#ffb78e" d="M-1599.8 466.18a23.453 23.453 0 0 0-16.523-7.017 16.387 16.387 0 0 0-14.659 9.43c-1.937 4.683-1.244 10.219-3.6 14.7-4.219 8.032-15.906 9.023-21.369 16.266a14.157 14.157 0 0 0-1.492 14.2 14.15 14.15 0 0 0 11.84 7.974 27.837 27.837 0 0 0 11.721-2.89l21.832-8.925a43.108 43.108 0 0 0 13.635-7.621 23.446 23.446 0 0 0 7.045-18.263 27.5 27.5 0 0 0-8.43-17.854z" transform="translate(1659.34 -459.163)"/>
                    <path id="Path_470" d="M-1597.458 483.561c.007-.5 0-.994-.023-1.494a20.582 20.582 0 0 0-.294-2.406 21.887 21.887 0 0 0-.946-3.581 24.314 24.314 0 0 0-4.793-8.013c-.392-.438-.785-.87-1.21-1.281-.379-.367-.776-.716-1.175-1.051a20.722 20.722 0 0 0-8.851-4.495 16.2 16.2 0 0 0-2.25-.344c-.478-.032-.962-.044-1.433-.03a13.331 13.331 0 0 0-2.826.381 12.492 12.492 0 0 0-7.611 5.263 9.466 9.466 0 0 0-.719 1.382 25.106 25.106 0 0 0-1.3 5.913c-.078.549-.161 1.116-.25 1.689a26.948 26.948 0 0 1-1.462 5.8 16.712 16.712 0 0 1-.732 1.628 16.5 16.5 0 0 1-.925 1.531 21.832 21.832 0 0 1-6.781 6.2c-.964.606-1.958 1.159-2.938 1.689-.716.379-1.412.748-2.1 1.106a47.846 47.846 0 0 0-6.058 3.519 14.289 14.289 0 0 0-2.458 2.233c-.147.172-.3.34-.438.519a10.194 10.194 0 0 0-1.224 9.795c.055.133.092.271.151.4a9.62 9.62 0 0 0 1.7 2.463 10.231 10.231 0 0 0 6.636 3.257l.163.011a13.526 13.526 0 0 0 3.875-.42 44.374 44.374 0 0 0 6.168-2.174l2.642-1.081 5.9-2.413 3.25-1.327 8.987-3.675 1.054-.432 2.188-.9a53.428 53.428 0 0 0 6.01-2.876 22.74 22.74 0 0 0 4.244-3.078 17.614 17.614 0 0 0 2.211-2.534 19.31 19.31 0 0 0 3.06-6.746 20.172 20.172 0 0 0 .558-4.428z" class="cls-17" transform="translate(1661.55 -456.964)"/>
                </g>
                <circle id="Ellipse_22" cx="12.624" cy="12.624" r="12.624" class="cls-18" transform="translate(65.041 39.955)"/>
                <circle id="Ellipse_23" cx="8.034" cy="8.034" r="8.034" class="cls-18" transform="translate(87.639 62.829)"/>
                <circle id="Ellipse_24" cx="10.329" cy="10.329" r="10.329" class="cls-18" transform="translate(96.426 35.213)"/>
            </g>
            <g id="Group_3" transform="matrix(.998 -.07 .07 .998 1856.426 -495.812)">
                <g id="Group_1" transform="translate(-1626.389 561.739)">
                    <path id="Path_7" fill="#f7e7c8" d="M-1621.512 598.082l54.571 35.673a1.612 1.612 0 0 0 2.252-.37 1.614 1.614 0 0 0 .285-1.17l-6.491-63.705c-37.676 4.498-50.617 29.572-50.617 29.572z" transform="translate(1630.354 -556.232)"/>
                    <path id="Path_8" d="M-1618.181 601.338a15.65 15.65 0 0 1 8.368-6.887c6.377-2.58 10.756-8.72 15.587-13.9 5.161-5.529 8.456-2.258 18.373-5.083s5.15-9.211 5.15-9.211l-22.184 4.4-30.038 25.613 2.84 3.721z" transform="translate(1629.206 -558.061)" style="isolation:isolate" fill="#e3dabe"/>
                    <path id="Path_9" fill="#ffcfb3" d="M-1572.37 561.74a60.354 60.354 0 0 0-53.052 31.541 7.157 7.157 0 0 0 1.668 9.137 6.767 6.767 0 0 0 6.475 1.264s6.175-9.531 13.221-12.008c6.578-2.314 7.866-8.107 11.882-10.4q.452-.223.916-.441c4.754-1.882 8.281-1.946 17.514-4.37 3.431-.9 5.248-1.467 6.185-1.826a5.918 5.918 0 0 0 .584-.252l.573-.245a6.512 6.512 0 0 0 1.913-5.9 7.874 7.874 0 0 0-7.879-6.5z" transform="translate(1626.389 -561.739)"/>
                </g>
                <path id="Path_10" d="M-1602.776 581.879a5.524 5.524 0 0 1-1.948 7.567 5.525 5.525 0 0 1-7.567-1.948 5.526 5.526 0 0 1 1.94-7.563 5.525 5.525 0 0 1 7.569 1.935z" class="cls-17" transform="translate(10.84 14.171)"/>
                <path id="Path_11" d="M-1592.685 578.425a5.525 5.525 0 0 1-1.947 7.567 5.525 5.525 0 0 1-7.567-1.946 5.526 5.526 0 0 1 1.942-7.565 5.525 5.525 0 0 1 7.568 1.938z" class="cls-17" transform="translate(19.047 11.362)"/>
                <path id="Path_12" d="M-1591.762 590.99a5.526 5.526 0 0 1-1.946 7.567 5.526 5.526 0 0 1-7.569-1.946 5.526 5.526 0 0 1 1.942-7.565 5.526 5.526 0 0 1 7.569 1.938z" class="cls-17" transform="translate(19.798 21.581)"/>
                <g id="Group_2" transform="translate(-1607.673 580.994)">
                    <path id="Path_13" d="M-1602.555 584.046l-.272 5.38c-.071 1.347 2.02 1.331 2.089-.009l.277-5.375c.068-1.347-2.024-1.329-2.091.009z" class="cls-22" transform="translate(1626.834 -563.67)"/>
                    <path id="Path_14" d="M-1615.56 585.963l2.666 1.614c1.15.7 2.167-1.131 1.015-1.828l-2.664-1.612c-1.151-.697-2.17 1.131-1.017 1.826z" class="cls-22" transform="translate(1616.067 -562.904)"/>
                    <path id="Path_15" d="M-1606.622 575.812l-.263 2.473a1.052 1.052 0 0 0 1.05 1.041 1.074 1.074 0 0 0 1.041-1.052l.263-2.473a1.055 1.055 0 0 0-1.052-1.041 1.069 1.069 0 0 0-1.039 1.052z" class="cls-22" transform="translate(1623.536 -570.404)"/>
                    <path id="Path_16" d="M-1596.467 587.516l3.068.789a1.045 1.045 0 0 0 1.271-.753 1.045 1.045 0 0 0-.752-1.271l-3.066-.789a1.047 1.047 0 0 0-1.237.813 1.048 1.048 0 0 0 .716 1.211z" class="cls-22" transform="translate(1631.408 -561.693)"/>
                    <path id="Path_17" d="M-1593.581 597.844l-.7 3.823c-.241 1.318 1.786 1.844 2.024.519l.7-3.821c.243-1.319-1.784-1.845-2.024-.521z" class="cls-22" transform="translate(1633.769 -552.255)"/>
                    <path id="Path_18" d="M-1597.984 574.416l2.854.912a1.045 1.045 0 0 0 1.271-.753 1.045 1.045 0 0 0-.751-1.273l-2.854-.912a1.045 1.045 0 0 0-1.271.753 1.045 1.045 0 0 0 .751 1.273z" class="cls-22" transform="translate(1630.137 -572.358)"/>
                    <path id="Path_19" d="M-1605.394 592.6c.241.241.481.486.722.729a1.042 1.042 0 0 0 1.474-.08 1.045 1.045 0 0 0-.024-1.42l-.72-.731a1.044 1.044 0 0 0-1.477-.049 1.044 1.044 0 0 0-.051 1.478c.024.025.051.051.076.074z" class="cls-22" transform="translate(1624.457 -557.388)"/>
                </g>
                <path id="Path_20" d="M-1606.96 593.71a45.671 45.671 0 0 1 4.642-6.49c1.168-1.362-.842-3.327-2.014-1.953a49.924 49.924 0 0 0-5.074 7.076c-.921 1.552 1.53 2.925 2.45 1.363z" class="cls-23" transform="translate(13.646 18.756)"/>
                <path id="Path_21" d="M-1592.967 586.919a45.86 45.86 0 0 1 .749-7.944c.321-1.766-2.4-2.453-2.723-.669a49.96 49.96 0 0 0-.827 8.668c-.014 1.806 2.791 1.755 2.807-.054z" class="cls-23" transform="translate(24.904 12.625)"/>
                <path id="Path_22" d="M-1595.243 601.306a45.9 45.9 0 0 1 5.948-5.318c1.438-1.07-.092-3.431-1.545-2.344a50.034 50.034 0 0 0-6.5 5.793c-1.238 1.315.854 3.184 2.092 1.868z" class="cls-23" transform="translate(23.32 25.721)"/>
            </g>
            <circle id="Ellipse_28" cx="9" cy="9" r="9" class="cls-24" transform="translate(670 310.736)"/>
            <circle id="Ellipse_29" cx="8" cy="8" r="8" fill="#c578ff" transform="translate(215 313.736)"/>
            <circle id="Ellipse_33" cx="8" cy="8" r="8" fill="#5cc1a0" transform="translate(997 165)"/>
            <circle id="Ellipse_31" cx="8" cy="8" r="8" fill="#ffb14a" transform="translate(1515 329.736)"/>
            <circle id="Ellipse_31-2" cx="8" cy="8" r="8" fill="#ffe242" transform="translate(1055 333.736)"/>
            <path id="oversized-wine-glass-2" d="M-1504.1 639.427l10.97-18.254a19.247 19.247 0 0 0 24.537-7.543 35.53 35.53 0 0 0 4.072-12.11 2.445 2.445 0 0 0-1.151-2.486l-24.355-14.634a2.444 2.444 0 0 0-2.737.15 34.759 34.759 0 0 0-8.961 9.623 19.2 19.2 0 0 0 5.045 24.853l-10.97 18.254c-5.871-2.9-11.655-3-12.406-1.747-.829 1.381 3.721 5.635 10.165 9.508s12.337 5.891 13.166 4.51c.744-1.238-2.041-6.297-7.375-10.124zm12.936-50.854l22.341 13.422a30.254 30.254 0 0 1-3.335 9.505 15.179 15.179 0 0 1-1.145 1.626 6.854 6.854 0 0 0-3.578-1.98 12.4 12.4 0 0 1-8.961-4.573c-2.5-3.241-1.062-10.3-5.241-12.214a11.87 11.87 0 0 0-4.935-1.065 35.043 35.043 0 0 1 4.854-4.723z" class="cls-24" transform="translate(3137.157 -394.051)"/>
        </g>
    </g>
</svg>
