<svg xmlns="http://www.w3.org/2000/svg" width="1920" height="750" viewBox="0 0 1920 750">
    <defs>
        <clipPath id="clip-path">
            <path id="Rectangle_225" d="M0 0H1920V750H0z" class="cls-1" data-name="Rectangle 225" transform="translate(0 131)"/>
        </clipPath>
        <clipPath id="clip-path-2">
            <path id="Path_675" d="M-1360.225 459.347c-5.528 1.681-3.562 13.779-12.734 13.367s-11.373 15.008-2.094 19.375-2.58 24.5 11.085 18.322c14.356-6.484 9.415 1.112 17.107 3.752 6.332 2.181 13.017.077 11.451-6.24-1.231-4.967 3.642-5.945 7.035-4.828 5.112 1.681 7.359-3.156 9.244-7.129 3.876-8.156-5.53-12.576-8.027-13.4s8.231-17.063-4.634-19.15-9.54 3.853-15.578 2.645-2.737-9.791-12.855-6.714z" class="cls-2" data-name="Path 675" transform="translate(1381.018 -458.685)"/>
        </clipPath>
        <style>
            .cls-1{fill:#fff}.cls-2{fill:#ffcfb3}.cls-7{fill:#ffe96f}.cls-8{fill:#ffd24a}.cls-9{fill:#ffa439}.cls-10{fill:#ed9e6d}.cls-13{fill:#fe9b77}.cls-15{fill:#ffd59b}.cls-18{fill:#f06d6d}.cls-19{fill:#ffa6a7}.cls-20{fill:#f7e7c8}.cls-22{fill:#fdd1a2}.cls-23{fill:#ebb799}.cls-24{fill:#ff85f3}.cls-25{fill:#d2c9ff}.cls-26{fill:#45b995}.cls-32{opacity:.86}.cls-38{fill:#f3dc35}.cls-39{fill:#fd657a}
        </style>
    </defs>
    <g id="banner" clip-path="url(#clip-path)" transform="translate(0 -131)">
        <g id="Group_839" data-name="Group 839">
            <path id="Rectangle_180" fill="#a6ffbe" d="M0 0H1996.724V750H0z" data-name="Rectangle 180" opacity="0.8" transform="translate(-41 131)"/>
            <path id="Path_694" fill="#fff" d="M49 131v748.6h1921.6z" data-name="Path 694" opacity="0.3" transform="translate(-49)"/>
            <g id="Group_644" data-name="Group 644" transform="translate(3104.819 -45.14)">
                <g id="Group_598" data-name="Group 598" transform="translate(-1397.222 594.876)">
                    <circle id="Ellipse_20-2" cx="150" cy="150" r="150" class="cls-1" data-name="Ellipse 20-2"/>
                    <path id="Path_418-2" fill="#ffd9bf" d="M-1301.13 603.879a123.345 123.345 0 0 1 151.078 87.192 123.346 123.346 0 0 1-87.193 151.083 123.353 123.353 0 0 1-151.083-87.2 123.35 123.35 0 0 1 87.198-151.075z" data-name="Path 418-2" transform="translate(1417.802 -573.817)"/>
                    <g id="Group_588" data-name="Group 588" transform="translate(163.276 104.072)">
                        <path id="Path_406" d="M-1333.8 700.987s-1.952.114-3.958.151-4.075-.005-4.075-.005-.927-1.225-2.385-3.469c-.726-1.117-1.643-2.461-2.623-4.038l-3.22-5.317a143.82 143.82 0 0 1-12.522-30.116 120.051 120.051 0 0 1-4.52-30.533l.1-5.513.342-4.25a23.979 23.979 0 0 1 .281-2.667l.13-.932s1.7 1.789 3.42 3.491 3.551 3.36 3.551 3.36l-.255 3.355c-.016 2.179-.184 5.257.055 9.073a110.564 110.564 0 0 0 1.485 13.1 121.957 121.957 0 0 0 3.794 15.177 129.136 129.136 0 0 0 12.527 27.536c1.024 1.827 2.157 3.4 3.074 4.835s1.788 2.65 2.52 3.643z" class="cls-7" data-name="Path 406" transform="translate(1367.099 -613.095)"/>
                        <path id="Path_407" d="M-1342.708 696.512s-1.6 2.331-3.149 4.748-3.036 4.905-3.036 4.905l-2.178-3.062a35.066 35.066 0 0 1-2.364-3.61c-.824-1.453-1.9-3-2.765-4.878a85.813 85.813 0 0 1-8.867-29.3 102.677 102.677 0 0 1-.607-17.074 113.01 113.01 0 0 1 1.946-15.318c.819-4.5 1.962-8.271 2.662-10.873l1.37-4.114s2.738-.921 5.442-1.729 5.508-1.5 5.508-1.5l-.391.976a27.857 27.857 0 0 0-.992 2.748l-1.437 4.293-1.511 5.61a99.407 99.407 0 0 0-2.586 29.893 84.136 84.136 0 0 0 6.8 27.427l2.287 4.607c.732 1.334 1.452 2.445 2.006 3.388a21.667 21.667 0 0 0 1.862 2.863z" class="cls-8" data-name="Path 407" transform="translate(1372.883 -611.26)"/>
                        <path id="Path_408" d="M-1367.071 615.81s2.163 2.119 4.364 4.114 4.6 3.9 4.6 3.9 2.873-.737 5.729-1.344 5.833-1.062 5.833-1.062-2.271-1.724-4.521-3.572-4.455-3.772-4.455-3.772-2.851.325-5.745.754-5.805.982-5.805.982z" class="cls-9" data-name="Path 408" transform="translate(1367.223 -614.076)"/>
                    </g>
                    <g id="Group_589" data-name="Group 589" transform="translate(171.738 114.577)">
                        <path id="Path_409" d="M-1297.437 681.764l-3.919 2.726-4.054 2.656s-1.322-.667-3.5-2.033l-3.958-2.45-4.981-3.4a140.552 140.552 0 0 1-23.774-21.79 139.014 139.014 0 0 1-17.985-26.776l-2.624-5.426-1.826-4.277c-.521-1.176-.889-2.125-1.116-2.781l-.363-.992 4.77.6 4.834.428 1.485 3.485c1.068 2.163 2.477 5.312 4.514 8.9a134.183 134.183 0 0 0 7.491 11.946 131.748 131.748 0 0 0 10.206 12.543 126.554 126.554 0 0 0 22.955 19.654c3.453 2.271 6.4 4.065 8.526 5.188z" class="cls-7" data-name="Path 409" transform="translate(1365.538 -610.665)"/>
                        <path id="Path_410" d="M-1304.881 677.142l-.255 4.727-.119 4.8-3.323-1.81c-2.13-1.111-5.073-2.917-8.526-5.187a126.364 126.364 0 0 1-22.961-19.655 131.655 131.655 0 0 1-10.2-12.543 133.1 133.1 0 0 1-7.5-11.952c-2.033-3.6-3.453-6.738-4.515-8.9l-1.485-3.485 3.121-3.561 3.28-3.464.331.851c.195.564.514 1.388.97 2.412l1.583 3.718 2.261 4.754a121.513 121.513 0 0 0 15.724 23.4 123.149 123.149 0 0 0 20.8 19.042l4.336 2.954 3.453 2.152c1.876 1.183 3.025 1.747 3.025 1.747z" class="cls-8" data-name="Path 410" transform="translate(1373.362 -615.572)"/>
                        <path id="Path_411" d="M-1365.538 622.573l4.77.6 4.834.428 3.111-3.578c1.632-1.735 3.28-3.464 3.28-3.464l-4.635-.206-4.678-.336-3.37 3.22z" class="cls-9" data-name="Path 411" transform="translate(1365.538 -616.014)"/>
                    </g>
                    <g id="Group_570" data-name="Group 570" transform="translate(51.555 145.117)">
                        <path id="Path_366" d="M-1361.13 642.025l-6.011 1.648 1.605 3.848c.519.233 1.04.461 1.55.7l19.378 9.448a9.977 9.977 0 0 0 4.765 13.269 9.972 9.972 0 0 0 13.268-4.765 9.976 9.976 0 0 0 .439-7.415 9.968 9.968 0 0 0 6.028-12.744 9.97 9.97 0 0 0-12.738-6.033 9.979 9.979 0 0 0-5.626 5.062l-19.844-9.67c-.249-.1-.444-.239-.672-.346l-4.548 1.246z" class="cls-10" data-name="Path 366" transform="translate(1478.635 -562.483)"/>
                        <g id="Group_569" data-name="Group 569">
                            <path id="Path_367" fill="#944434" d="M-1305.709 687.8c-12.473-2.905-25.736.477-38.338-1.935a43.393 43.393 0 0 1-33.082-30.994 43.32 43.32 0 0 1 4.142-31.259 43 43 0 0 0-4.125 60.659 42.988 42.988 0 0 0 47.889 11.838 69.546 69.546 0 0 1 34.155-4.017 37.9 37.9 0 0 0-10.641-4.292z" data-name="Path 367" transform="translate(1387.71 -612.951)"/>
                            <path id="Path_368" fill="#b85f3e" d="M-1280.218 695.44l4.548-1.247a71.638 71.638 0 0 1-35.683-42.669 42.972 42.972 0 0 0-54.026-27.817 43.075 43.075 0 0 0-15.22 8.608 43.286 43.286 0 0 0-4.136 31.259 43.389 43.389 0 0 0 33.06 31.01c12.6 2.406 25.849-.96 38.344 1.935a38.144 38.144 0 0 1 10.656 4.288 71.548 71.548 0 0 1 20.446 5.886l-1.609-3.849 6.01-1.653z" data-name="Path 368" transform="translate(1395.322 -621.648)"/>
                        </g>
                    </g>
                    <g id="Group_578" data-name="Group 578" transform="translate(175.017 109.948)">
                        <path id="Path_382" d="M-1317.467 696.24l-4.726-.943-4.705-.867s-1.41-5.149-4.039-12.722a241.368 241.368 0 0 0-11.469-27.021 239.274 239.274 0 0 0-14.764-25.367c-4.461-6.651-7.762-10.857-7.762-10.857l4.72-.895 4.721-.807s3.34 4.434 7.827 11.415a238.345 238.345 0 0 1 14.841 26.565 240.572 240.572 0 0 1 11.383 28.229c2.591 7.909 3.973 13.27 3.973 13.27z" class="cls-7" data-name="Path 382" transform="translate(1364.933 -608.083)"/>
                        <path id="Path_383" d="M-1318.088 696.759l-3.528 3.317-3.556 3.253s-1.382-5.367-3.979-13.258a240.878 240.878 0 0 0-11.382-28.23 238.605 238.605 0 0 0-14.842-26.565c-4.476-7.008-7.816-11.442-7.816-11.442l2.168-4.336 2.087-4.337s3.545 4.521 8.331 11.67a255.012 255.012 0 0 1 15.865 27.243 259.455 259.455 0 0 1 12.31 29.021c2.824 8.124 4.342 13.664 4.342 13.664z" class="cls-8" data-name="Path 383" transform="translate(1372.633 -615.16)"/>
                        <path id="Path_384" d="M-1364.933 625.54l4.72-.895 4.721-.813 2.168-4.336 2.087-4.337-4.6 1.057-4.553 1.111-2.25 4.136z" class="cls-9" data-name="Path 384" transform="translate(1364.933 -615.16)"/>
                    </g>
                    <g id="Group_579" data-name="Group 579" transform="translate(217.371 108.978)">
                        <path id="Path_385" d="M-1323.968 701.779l-9.3-1.8-23.855-83.9 9.307 1.8z" class="cls-7" data-name="Path 385" transform="translate(1357.118 -610.158)"/>
                        <path id="Path_386" d="M-1324.6 699.116l-6.948 6.434-23.855-83.9 6.965-6.429z" class="cls-8" data-name="Path 386" transform="translate(1364.709 -613.929)"/>
                        <path id="Path_387" d="M-1357.118 620.895l9.307 1.805 6.959-6.429-9.15-1.29z" class="cls-9" data-name="Path 387" transform="translate(1357.118 -614.981)"/>
                    </g>
                    <g id="Group_580" data-name="Group 580" transform="translate(194.958 97.025)">
                        <path id="Path_388" d="M-1319.273 707.089l-10.3-2.591s-1.279-5.849-3.561-14.532-5.723-20.169-9.681-31.476-8.472-22.4-12.13-30.625-6.3-13.557-6.3-13.557l5.311.059 5.307.125s2.673 5.513 6.288 13.958 8.131 19.833 12.039 31.444a442.229 442.229 0 0 1 13.027 47.195z" class="cls-7" data-name="Path 388" transform="translate(1361.254 -606.004)"/>
                        <path id="Path_389" d="M-1319.715 707.064l-8.212 6.792a441.194 441.194 0 0 0-13.014-47.168c-3.929-11.621-8.424-23.01-12.066-31.465s-6.287-13.958-6.287-13.958l3.257-4.228 3.215-4.26s2.792 5.6 6.591 14.2 8.511 20.185 12.678 31.986 7.724 23.817 10.114 32.9 3.724 15.201 3.724 15.201z" class="cls-8" data-name="Path 389" transform="translate(1369.913 -612.776)"/>
                        <path id="Path_390" d="M-1361.254 621.08l5.311.059 5.307.125 3.258-4.228 3.214-4.26-10.4.374z" class="cls-9" data-name="Path 390" transform="translate(1361.254 -612.776)"/>
                    </g>
                    <g id="Group_591" data-name="Group 591" transform="translate(151.98 127.542)">
                        <path id="Path_388-2" d="M-1368.191 618.406l9.036.011s2.26 4.559 5.941 11.253 8.873 15.464 14.466 23.964 11.6 16.738 16.305 22.749 8.005 9.9 8.005 9.9l-4.39 1.041-4.407.987s-3.334-3.995-8.055-10.212-10.808-14.678-16.429-23.454a374.742 374.742 0 0 1-20.472-36.239z" class="cls-7" data-name="Path 388-2" transform="translate(1373.568 -618.406)"/>
                        <path id="Path_389-2" d="M-1369.183 625.7l5.377-7.3a375.349 375.349 0 0 0 20.479 36.235c5.621 8.776 11.675 17.253 16.423 23.454s8.06 10.217 8.06 10.217l-1.821 4.163-1.767 4.174s-3.459-4.049-8.363-10.347-11.182-14.9-17.048-23.785-11.286-18.044-15.128-25.031-6.212-11.78-6.212-11.78z" class="cls-8" data-name="Path 389-2" transform="translate(1369.183 -618.406)"/>
                        <path id="Path_390-2" d="M-1348.168 630.93l-4.4 1.041-4.4.987-1.821 4.157-1.772 4.174 8.5-2.45z" class="cls-9" data-name="Path 390-2" transform="translate(1407.304 -563.045)"/>
                    </g>
                    <g id="Group_574" data-name="Group 574" transform="translate(198.85 111.054)">
                        <path id="Path_373" d="M-1355.11 690.876l-2.7-2.916-2.721-2.856s1.551-4.125 3.447-10.451a198.3 198.3 0 0 0 5.4-23.589 196.007 196.007 0 0 0 2.4-24.083c.239-6.607.065-11.009.065-11.009l3.594 1.664 3.539 1.762s.1 4.57-.282 11.41a196.123 196.123 0 0 1-2.932 24.907 199.277 199.277 0 0 1-6.044 24.359c-2.086 6.553-3.766 10.802-3.766 10.802z" class="cls-7" data-name="Path 373" transform="translate(1360.536 -612.676)"/>
                        <path id="Path_374" d="M-1351.636 690.173l-3.957.493-3.94.45s1.67-4.255 3.74-10.76a199.016 199.016 0 0 0 6.048-24.356 196.236 196.236 0 0 0 2.939-24.928c.379-6.841.287-11.416.287-11.416l3.54-1.837 3.5-1.9s.179 4.732-.075 11.827a209.88 209.88 0 0 1-2.565 25.861 212.352 212.352 0 0 1-5.8 25.335c-2.048 6.798-3.717 11.231-3.717 11.231z" class="cls-8" data-name="Path 374" transform="translate(1364.965 -612.933)"/>
                        <path id="Path_375" d="M-1358.449 618.659l3.594 1.664 3.539 1.746 3.54-1.821 3.5-1.9-3.583-1.518-3.577-1.463-3.507 1.674z" class="cls-9" data-name="Path 375" transform="translate(1369.761 -615.364)"/>
                    </g>
                    <g id="Group_575" data-name="Group 575" transform="translate(216.472 130.675)">
                        <path id="Path_376" d="M-1351.946 692.357l-5.339-5.7 24.62-67.576 5.345 5.7z" class="cls-7" data-name="Path 376" transform="translate(1357.285 -618.564)"/>
                        <path id="Path_377" d="M-1348.538 687.54l-7.762.927 24.625-67.576 7.757-.932z" class="cls-8" data-name="Path 377" transform="translate(1361.639 -614.674)"/>
                        <path id="Path_378" d="M-1352.743 619.488l5.339 5.708 7.763-.927-5.491-5.285z" class="cls-9" data-name="Path 378" transform="translate(1377.362 -618.984)"/>
                    </g>
                    <g id="Group_576" data-name="Group 576" transform="translate(208.303 111.904)">
                        <path id="Path_379" d="M-1353.154 698.173l-5.638-6.71s1.946-4.51 4.629-11.437 5.93-16.239 8.743-25.7 5.176-19.063 6.689-26.3 2.368-12.12 2.368-12.12l3.523 2.607 3.485 2.651s-.877 4.976-2.547 12.358-4.147 17.188-7.15 26.831a362.944 362.944 0 0 1-14.102 37.82z" class="cls-7" data-name="Path 379" transform="translate(1358.792 -613.837)"/>
                        <path id="Path_380" d="M-1348.982 695.4l-8.769.569a364.821 364.821 0 0 0 14.1-37.829c3-9.643 5.507-19.432 7.15-26.826s2.553-12.38 2.553-12.38l4.216-1.236 4.2-1.3s-.835 5.1-2.45 12.667-4.076 17.606-7 27.509-6.353 19.644-9.138 26.869-4.862 11.957-4.862 11.957z" class="cls-8" data-name="Path 380" transform="translate(1363.389 -611.631)"/>
                        <path id="Path_381" d="M-1354.654 617.586l3.523 2.607 3.479 2.645 4.245-1.247 4.178-1.3-7.122-4.77z" class="cls-9" data-name="Path 381" transform="translate(1377.083 -615.521)"/>
                    </g>
                    <g id="Group_590" data-name="Group 590" transform="translate(175.575 134.616)">
                        <path id="Path_379-2" d="M-1297.958 620.6l.467 8.749s-4.267 2.428-10.581 6.347-14.505 9.4-22.446 15.269-15.605 12.115-21.172 16.982-9.183 8.256-9.183 8.256l-1.246-4.2-1.187-4.217s3.7-3.442 9.475-8.342 13.654-11.226 21.85-17.123a363.316 363.316 0 0 1 34.023-21.721z" class="cls-7" data-name="Path 379-2" transform="translate(1371.566 -615.772)"/>
                        <path id="Path_380-2" d="M-1298.565 619.711l7.344 4.829a363.43 363.43 0 0 0-34.024 21.725c-8.2 5.9-16.093 12.207-21.849 17.118s-9.491 8.353-9.491 8.353l-4.109-1.55-4.136-1.491s3.735-3.566 9.583-8.64 13.844-11.61 22.143-17.757 16.9-11.865 23.471-15.963 11.068-6.624 11.068-6.624z" class="cls-8" data-name="Path 380-2" transform="translate(1364.83 -619.711)"/>
                        <path id="Path_381-2" d="M-1354.136 640.2l-1.246-4.2-1.187-4.212-4.136-1.555-4.125-1.48 2.818 8.1z" class="cls-9" data-name="Path 381-2" transform="translate(1364.83 -579.764)"/>
                    </g>
                    <g id="Group_586" data-name="Group 586" transform="translate(178.236 110.95)">
                        <path id="Path_400" d="M-1356.729 689.209s-1.793-.634-3.593-1.334-3.583-1.474-3.583-1.474-.169-1.182-.26-3.285c-.044-1.041-.141-2.3-.174-3.756l.016-4.895a103.045 103.045 0 0 1 4.163-25.66 101.638 101.638 0 0 1 10.683-23.757l2.661-4.087 2.217-3.03c.618-.851 1.112-1.491 1.474-1.919l.542-.667s.742 1.811 1.529 3.55 1.686 3.5 1.686 3.5l-1.794 2.456c-1.047 1.626-2.641 3.892-4.234 6.8a97.125 97.125 0 0 0-5 10.163 97.482 97.482 0 0 0-4.109 12.315 92.2 92.2 0 0 0-2.986 24.061c-.044 1.664.108 3.176.152 4.52s.163 2.51.277 3.475z" class="cls-7" data-name="Path 400" transform="translate(1364.339 -615.345)"/>
                        <path id="Path_401" d="M-1355.852 679.36s-1.615.948-3.235 1.989-3.221 2.119-3.221 2.119l-.33-3.025c-.114-.959-.233-2.13-.277-3.474s-.205-2.862-.151-4.521a92.256 92.256 0 0 1 2.98-24.072 97.956 97.956 0 0 1 4.125-12.315 98.028 98.028 0 0 1 4.981-10.147c1.6-2.906 3.176-5.166 4.239-6.8l1.8-2.466s1.885.32 3.745.7 3.735.867 3.735.867l-.488.558c-.309.364-.742.916-1.257 1.637l-1.9 2.6-2.281 3.5a87.932 87.932 0 0 0-9.2 20.484 89.107 89.107 0 0 0-3.61 22.17c-.006 1.534-.012 2.938-.012 4.179s.114 2.325.153 3.214a26.632 26.632 0 0 0 .204 2.803z" class="cls-8" data-name="Path 401" transform="translate(1369.917 -609.594)"/>
                        <path id="Path_402" d="M-1360.325 615.345s.743 1.811 1.529 3.55 1.67 3.5 1.67 3.5 1.886.314 3.746.7 3.734.872 3.734.872-.895-1.62-1.745-3.285-1.669-3.382-1.669-3.382-1.773-.536-3.594-1.024-3.671-.931-3.671-.931z" class="cls-9" data-name="Path 402" transform="translate(1382.083 -615.345)"/>
                    </g>
                </g>
                <circle id="Ellipse_25" cx="18.282" cy="18.282" r="18.282" class="cls-13" data-name="Ellipse 25" transform="translate(-1315.505 663.147)"/>
                <circle id="Ellipse_26" cx="11.631" cy="11.631" r="11.631" class="cls-13" data-name="Ellipse 26" transform="translate(-1282.777 696.272)"/>
                <circle id="Ellipse_27" cx="14.959" cy="14.959" r="14.959" class="cls-13" data-name="Ellipse 27" transform="translate(-1270.057 656.282)"/>
            </g>
            <g id="Group_640" data-name="Group 640" transform="translate(1606.819 -212.292)">
                <circle id="Ellipse_20" cx="150" cy="150" r="150" class="cls-1" data-name="Ellipse 20" transform="translate(-1690.819 424.292)"/>
                <path id="Path_418" fill="#ffd2d3" d="M-1635.263 455.909a123.348 123.348 0 0 1 172.737 24.29 123.349 123.349 0 0 1-24.29 172.737 123.347 123.347 0 0 1-172.738-24.29 123.346 123.346 0 0 1 24.291-172.737z" data-name="Path 418" transform="translate(18.617 19.642)"/>
                <g id="Group_635" data-name="Group 635" transform="translate(-1638.894 549.184)">
                    <circle id="Ellipse_21" cx="38.333" cy="38.333" r="38.333" class="cls-10" data-name="Ellipse 21"/>
                    <g id="Group_634" data-name="Group 634" transform="translate(8.875 7.066)">
                        <g id="Group_602" data-name="Group 602" transform="translate(24.517 19.386)">
                            <path id="Path_435" d="M-1667.047 467.249a1.474 1.474 0 0 0 .978-1.738 5.184 5.184 0 0 0-1.5-2.225.562.562 0 0 0-.8.016.535.535 0 0 0-.117.179 5.2 5.2 0 0 0-.406 2.7 1.455 1.455 0 0 0 1.734 1.095z" class="cls-15" data-name="Path 435" transform="translate(1668.926 -463.127)"/>
                        </g>
                        <g id="Group_603" data-name="Group 603" transform="translate(32.363 23.603)">
                            <path id="Path_436" d="M-1666.757 466.16a1.249 1.249 0 0 0 1.61.491 4.389 4.389 0 0 0 1.566-1.641.475.475 0 0 0-.159-.651.494.494 0 0 0-.164-.062 4.369 4.369 0 0 0-2.3.152 1.23 1.23 0 0 0-.588 1.633z" class="cls-15" data-name="Path 436" transform="translate(1666.913 -464.209)"/>
                        </g>
                        <g id="Group_604" data-name="Group 604" transform="translate(35.857 30.512)">
                            <path id="Path_437" d="M-1665.975 467.081a1.484 1.484 0 0 0 .978 1.754 5.232 5.232 0 0 0 2.7-.109.564.564 0 0 0 .409-.686.581.581 0 0 0-.093-.2 5.156 5.156 0 0 0-2.1-1.777 1.455 1.455 0 0 0-1.855.9z" class="cls-15" data-name="Path 437" transform="translate(1666.016 -465.982)"/>
                        </g>
                        <g id="Group_605" data-name="Group 605" transform="translate(27.209 34.221)">
                            <path id="Path_438" d="M-1667.8 469.713a1.286 1.286 0 0 0 1.73-.07 4.506 4.506 0 0 0 .951-2.112.492.492 0 0 0-.367-.585.47.47 0 0 0-.2 0 4.467 4.467 0 0 0-2.174.928 1.256 1.256 0 0 0-.015 1.777z" class="cls-15" data-name="Path 438" transform="translate(1668.235 -466.934)"/>
                        </g>
                        <g id="Group_606" data-name="Group 606" transform="translate(21.213 27.87)">
                            <path id="Path_439" d="M-1669.774 466.445a1.173 1.173 0 0 0 1.083 1.169 4.146 4.146 0 0 0 2.054-.592.451.451 0 0 0 .191-.608.49.49 0 0 0-.116-.136 4.084 4.084 0 0 0-1.953-.97 1.174 1.174 0 0 0-1.254 1.08z" class="cls-15" data-name="Path 439" transform="translate(1669.774 -465.304)"/>
                        </g>
                        <g id="Group_607" data-name="Group 607" transform="translate(19.424 36.338)">
                            <path id="Path_440" d="M-1667.859 467.734a1.141 1.141 0 0 0-1.54.09 3.994 3.994 0 0 0-.826 1.91.438.438 0 0 0 .343.514.382.382 0 0 0 .164 0 3.943 3.943 0 0 0 1.929-.857 1.121 1.121 0 0 0 .007-1.586z" class="cls-15" data-name="Path 440" transform="translate(1670.233 -467.477)"/>
                        </g>
                        <g id="Group_608" data-name="Group 608" transform="translate(28.952 43.295)">
                            <path id="Path_441" d="M-1666.731 469.316a1.477 1.477 0 0 0-1.029 1.707 5.208 5.208 0 0 0 1.431 2.272.565.565 0 0 0 .8.02.538.538 0 0 0 .128-.191 5.107 5.107 0 0 0 .487-2.685 1.444 1.444 0 0 0-1.7-1.15z" class="cls-15" data-name="Path 441" transform="translate(1667.788 -469.262)"/>
                        </g>
                        <g id="Group_609" data-name="Group 609" transform="translate(40.296 41.304)">
                            <path id="Path_442" d="M-1664.779 469.611a1.424 1.424 0 0 0 .69 1.793 5.017 5.017 0 0 0 2.569.257.541.541 0 0 0 .479-.6.516.516 0 0 0-.063-.2 4.968 4.968 0 0 0-1.753-1.96 1.4 1.4 0 0 0-1.874.612z" class="cls-15" data-name="Path 442" transform="translate(1664.877 -468.751)"/>
                        </g>
                        <g id="Group_610" data-name="Group 610" transform="translate(46.062 33.462)">
                            <path id="Path_443" d="M-1663.305 468.45a1.239 1.239 0 0 0 1.528.678 4.385 4.385 0 0 0 1.738-1.422.476.476 0 0 0-.086-.663.605.605 0 0 0-.156-.082 4.329 4.329 0 0 0-2.283-.125 1.217 1.217 0 0 0-.772 1.535z" class="cls-15" data-name="Path 443" transform="translate(1663.398 -466.739)"/>
                        </g>
                        <g id="Group_611" data-name="Group 611" transform="translate(44.443 25.777)">
                            <path id="Path_444" d="M-1663.734 466.267a1.089 1.089 0 0 0 1.337.6 3.792 3.792 0 0 0 1.519-1.251.41.41 0 0 0-.07-.577.411.411 0 0 0-.141-.074 3.788 3.788 0 0 0-2-.109 1.065 1.065 0 0 0-.671 1.348z" class="cls-15" data-name="Path 444" transform="translate(1663.813 -464.767)"/>
                        </g>
                        <g id="Group_612" data-name="Group 612" transform="translate(40.713 18.803)">
                            <path id="Path_445" d="M-1664.477 464.862a.859.859 0 0 0 1.165-.051 3.018 3.018 0 0 0 .639-1.434.327.327 0 0 0-.249-.394.372.372 0 0 0-.132 0 3.018 3.018 0 0 0-1.466.635.849.849 0 0 0 0 1.2z" class="cls-15" data-name="Path 445" transform="translate(1664.77 -462.977)"/>
                        </g>
                        <g id="Group_613" data-name="Group 613" transform="translate(32.68 14.069)">
                            <path id="Path_446" d="M-1665.991 464.5a.97.97 0 0 0 1.048-.787 3.439 3.439 0 0 0-.315-1.73.39.39 0 0 0-.522-.179.362.362 0 0 0-.078.055 3.368 3.368 0 0 0-.954 1.512.948.948 0 0 0 .748 1.119z" class="cls-15" data-name="Path 446" transform="translate(1666.832 -461.763)"/>
                        </g>
                        <g id="Group_614" data-name="Group 614" transform="translate(17.456 12.636)">
                            <path id="Path_447" d="M-1667.429 464.454a1.487 1.487 0 0 0-.14-2 5.2 5.2 0 0 0-2.494-1.044.564.564 0 0 0-.666.444.619.619 0 0 0 0 .226 5.186 5.186 0 0 0 1.15 2.494 1.458 1.458 0 0 0 2.061-.023z" class="cls-15" data-name="Path 447" transform="translate(1670.738 -461.395)"/>
                        </g>
                        <g id="Group_615" data-name="Group 615" transform="translate(12.039 22.21)">
                            <path id="Path_448" d="M-1668.106 465.415a1.421 1.421 0 0 0-1.137-1.543 4.993 4.993 0 0 0-2.541.44.539.539 0 0 0-.3.705.529.529 0 0 0 .113.175 4.965 4.965 0 0 0 2.21 1.418 1.4 1.4 0 0 0 1.645-1.091z" class="cls-15" data-name="Path 448" transform="translate(1672.128 -463.852)"/>
                        </g>
                        <g id="Group_616" data-name="Group 616" transform="translate(10.554 31.615)">
                            <path id="Path_449" d="M-1669.145 467.009a1.244 1.244 0 0 0-1.528-.682 4.386 4.386 0 0 0-1.738 1.426.472.472 0 0 0 .085.662.488.488 0 0 0 .156.078 4.294 4.294 0 0 0 2.284.129 1.214 1.214 0 0 0 .768-1.539z" class="cls-15" data-name="Path 449" transform="translate(1672.509 -466.265)"/>
                        </g>
                        <g id="Group_617" data-name="Group 617" transform="translate(11.873 42.998)">
                            <path id="Path_450" d="M-1670.321 469.291a1.171 1.171 0 0 0-1.488.464 4.081 4.081 0 0 0-.343 2.062.436.436 0 0 0 .452.421.385.385 0 0 0 .171-.043 3.969 3.969 0 0 0 1.672-1.31 1.13 1.13 0 0 0-.386-1.551z" class="cls-15" data-name="Path 450" transform="translate(1672.17 -469.186)"/>
                        </g>
                        <g id="Group_618" data-name="Group 618" transform="translate(21.423 50.562)">
                            <path id="Path_451" d="M-1668.96 471.392a1.867 1.867 0 0 0-.756 1.629c.16.549.647 1.29.827 1.991a.567.567 0 0 0 .674.429.523.523 0 0 0 .207-.094 3.146 3.146 0 0 0 1.126-3.016 1.56 1.56 0 0 0-.9-1.122 1.174 1.174 0 0 0-1.178.183z" class="cls-15" data-name="Path 451" transform="translate(1669.72 -471.127)"/>
                        </g>
                        <g id="Group_619" data-name="Group 619" transform="translate(31.732 53.053)">
                            <path id="Path_452" d="M-1666.447 472.077a1.6 1.6 0 0 0-.382 2.12 5.557 5.557 0 0 0 2.315 1.742.6.6 0 0 0 .807-.288.6.6 0 0 0 .058-.234 5.541 5.541 0 0 0-.53-2.9 1.563 1.563 0 0 0-2.143-.526c-.043.027-.078.055-.125.086z" class="cls-15" data-name="Path 452" transform="translate(1667.075 -471.766)"/>
                        </g>
                        <g id="Group_620" data-name="Group 620" transform="translate(47.014 46.516)">
                            <path id="Path_453" d="M-1659.823 473.873a1.67 1.67 0 0 0 .128-2.245 5.863 5.863 0 0 0-2.626-1.508.641.641 0 0 0-.8.405.688.688 0 0 0-.027.253 5.767 5.767 0 0 0 .932 2.931 1.64 1.64 0 0 0 2.3.249z" class="cls-15" data-name="Path 453" transform="translate(1663.154 -470.089)"/>
                        </g>
                        <g id="Group_621" data-name="Group 621" transform="translate(52.133 19.029)">
                            <path id="Path_454" d="M-1658.262 464.031a1.262 1.262 0 0 0-1.383-.986 4.46 4.46 0 0 0-2.023 1.068.477.477 0 0 0-.059.674.414.414 0 0 0 .144.117 4.356 4.356 0 0 0 2.241.592 1.241 1.241 0 0 0 1.1-1.36z" class="cls-15" data-name="Path 454" transform="translate(1661.84 -463.036)"/>
                        </g>
                        <g id="Group_622" data-name="Group 622" transform="translate(55.924 28.745)">
                            <path id="Path_455" d="M-1658.821 465.912a.96.96 0 0 0-.814-.382 8.945 8.945 0 0 1-1 .386.28.28 0 0 0-.23.327.246.246 0 0 0 .039.105 1.556 1.556 0 0 0 1.524.616.665.665 0 0 0 .481-1.052z" class="cls-15" data-name="Path 455" transform="translate(1660.867 -465.529)"/>
                        </g>
                        <g id="Group_623" data-name="Group 623" transform="translate(38.323 6.108)">
                            <path id="Path_456" d="M-1662.607 459.864a1.809 1.809 0 0 0-2.3.811 6.36 6.36 0 0 0-.417 3.254.689.689 0 0 0 .74.631.673.673 0 0 0 .261-.074 6.29 6.29 0 0 0 2.549-2.151 1.776 1.776 0 0 0-.7-2.408z" class="cls-15" data-name="Path 456" transform="translate(1665.383 -459.72)"/>
                        </g>
                        <g id="Group_624" data-name="Group 624" transform="translate(25.123 5.357)">
                            <path id="Path_457" d="M-1667.809 459.569a1.324 1.324 0 0 0-.936 1.532 4.679 4.679 0 0 0 1.267 2.05.5.5 0 0 0 .709.019.478.478 0 0 0 .117-.164 4.6 4.6 0 0 0 .448-2.4 1.3 1.3 0 0 0-1.5-1.056z" class="cls-15" data-name="Path 457" transform="translate(1668.771 -459.527)"/>
                        </g>
                        <g id="Group_625" data-name="Group 625" transform="translate(12.151 6.031)">
                            <path id="Path_458" d="M-1671.9 460.221a1.229 1.229 0 0 0 .261 1.633 4.308 4.308 0 0 0 2.116.674.468.468 0 0 0 .51-.421.466.466 0 0 0-.016-.179 4.279 4.279 0 0 0-1.126-1.96 1.2 1.2 0 0 0-1.688.179z" class="cls-15" data-name="Path 458" transform="translate(1672.099 -459.7)"/>
                        </g>
                        <g id="Group_626" data-name="Group 626" transform="translate(5.564 16.377)">
                            <path id="Path_459" d="M-1673.744 462.971a.934.934 0 0 0 .522 1.146 3.253 3.253 0 0 0 1.7.066.352.352 0 0 0 .281-.413.349.349 0 0 0-.047-.121 3.223 3.223 0 0 0-1.216-1.216.918.918 0 0 0-1.208.468z" class="cls-15" data-name="Path 459" transform="translate(1673.79 -462.355)"/>
                        </g>
                        <g id="Group_627" data-name="Group 627" transform="translate(0 27.175)">
                            <path id="Path_460" d="M-1675.212 466.276a1.313 1.313 0 0 0 1.076 1.415 4.592 4.592 0 0 0 2.346-.436.5.5 0 0 0 .273-.655.591.591 0 0 0-.105-.16 4.591 4.591 0 0 0-2.058-1.29 1.289 1.289 0 0 0-1.516 1.017z" class="cls-15" data-name="Path 460" transform="translate(1675.217 -465.126)"/>
                        </g>
                        <g id="Group_628" data-name="Group 628" transform="translate(3.084 36.866)">
                            <path id="Path_461" d="M-1674.426 468.682a1.076 1.076 0 0 0 1.029 1.029 3.8 3.8 0 0 0 1.855-.6.412.412 0 0 0 .148-.561.411.411 0 0 0-.109-.121 3.76 3.76 0 0 0-1.816-.814 1.059 1.059 0 0 0-1.107 1.009z" class="cls-15" data-name="Path 461" transform="translate(1674.426 -467.613)"/>
                        </g>
                        <g id="Group_629" data-name="Group 629" transform="translate(7.859 51.385)">
                            <path id="Path_462" d="M-1673.151 472.639a1.011 1.011 0 0 0 1.2.655 3.539 3.539 0 0 0 1.5-1.048.393.393 0 0 0-.023-.55.394.394 0 0 0-.121-.074 3.526 3.526 0 0 0-1.847-.253.994.994 0 0 0-.733 1.193z" class="cls-15" data-name="Path 462" transform="translate(1673.2 -471.338)"/>
                        </g>
                        <g id="Group_630" data-name="Group 630" transform="translate(22.545 59.773)">
                            <path id="Path_463" d="M-1669.407 474.28a1.059 1.059 0 0 0 .713 1.235 3.738 3.738 0 0 0 1.909-.113.39.39 0 0 0 .289-.472.388.388 0 0 0-.083-.16 3.71 3.71 0 0 0-1.508-1.231 1.036 1.036 0 0 0-1.3.666z" class="cls-15" data-name="Path 463" transform="translate(1669.432 -473.491)"/>
                        </g>
                        <g id="Group_631" data-name="Group 631" transform="translate(53.392 38.224)">
                            <path id="Path_464" d="M-1660.855 471.383a1.4 1.4 0 0 0 1.84-.409 4.929 4.929 0 0 0 .62-2.455.537.537 0 0 0-.507-.557.568.568 0 0 0-.211.035 4.864 4.864 0 0 0-2.148 1.415 1.371 1.371 0 0 0 .312 1.91z" class="cls-15" data-name="Path 464" transform="translate(1661.517 -467.961)"/>
                        </g>
                        <g id="Group_632" data-name="Group 632" transform="translate(48.359 9.593)">
                            <path id="Path_465" d="M-1662.53 461.034a1.21 1.21 0 0 0 .067 1.617 4.226 4.226 0 0 0 2.007.9.458.458 0 0 0 .549-.359.428.428 0 0 0 0-.172 4.26 4.26 0 0 0-.892-2.054 1.169 1.169 0 0 0-1.652-.016z" class="cls-15" data-name="Path 465" transform="translate(1662.808 -460.614)"/>
                        </g>
                        <g id="Group_633" data-name="Group 633" transform="translate(30.709)">
                            <path id="Path_466" d="M-1667.3 459.078a1.275 1.275 0 0 0 .823 1.508 4.468 4.468 0 0 0 2.3-.078.481.481 0 0 0 .358-.581.472.472 0 0 0-.082-.175 4.417 4.417 0 0 0-1.78-1.528 1.249 1.249 0 0 0-1.591.76z" class="cls-15" data-name="Path 466" transform="translate(1667.337 -458.153)"/>
                        </g>
                    </g>
                </g>
                <g id="Group_636" data-name="Group 636" transform="translate(-1566.733 560.188)">
                    <path id="Path_468" fill="#aa595f" d="M-1543.582 494.332l-2.171 3.823a47.672 47.672 0 0 0-13.23-23.09 39.827 39.827 0 0 0-28.055-11.913 27.827 27.827 0 0 0-24.887 16.009c-3.289 7.95-2.113 17.35-6.114 24.969-7.163 13.632-27.018 15.315-36.274 27.615-.114.152-.21.308-.324.464l-3.156-3.8-1.083 15.495a23.483 23.483 0 0 0 2.026 11.956 24.025 24.025 0 0 0 20.1 13.538 47.287 47.287 0 0 0 19.895-4.9l37.069-15.152a73.205 73.205 0 0 0 23.148-12.946 39.328 39.328 0 0 0 11.867-25.2z" data-name="Path 468" transform="translate(1658.978 -447.607)"/>
                    <path id="Path_469" fill="#ffb78e" d="M-1558.709 471.076a39.816 39.816 0 0 0-28.051-11.913 27.82 27.82 0 0 0-24.886 16.009c-3.289 7.95-2.112 17.35-6.115 24.965-7.163 13.636-27 15.319-36.278 27.615a24.035 24.035 0 0 0-2.532 24.1 24.023 24.023 0 0 0 20.1 13.538 47.258 47.258 0 0 0 19.9-4.906l37.065-15.152a73.186 73.186 0 0 0 23.149-12.938 39.8 39.8 0 0 0 11.96-31.005 46.688 46.688 0 0 0-14.312-30.313z" data-name="Path 469" transform="translate(1659.788 -459.163)"/>
                    <path id="Path_470" d="M-1555.92 499.4c.012-.842.008-1.687-.039-2.537a34.958 34.958 0 0 0-.5-4.084 37.144 37.144 0 0 0-1.606-6.079 41.277 41.277 0 0 0-8.137-13.6c-.666-.744-1.333-1.477-2.054-2.175-.643-.623-1.318-1.216-2-1.785a35.18 35.18 0 0 0-15.027-7.631 27.488 27.488 0 0 0-3.819-.585c-.811-.055-1.634-.074-2.432-.051a22.633 22.633 0 0 0-4.8.647 21.21 21.21 0 0 0-12.922 8.936 16.09 16.09 0 0 0-1.22 2.346 42.626 42.626 0 0 0-2.214 10.039c-.133.932-.273 1.894-.425 2.868a45.755 45.755 0 0 1-2.483 9.84 28.308 28.308 0 0 1-1.243 2.763 27.926 27.926 0 0 1-1.571 2.6 37.065 37.065 0 0 1-11.512 10.522c-1.637 1.029-3.324 1.968-4.988 2.868-1.216.643-2.4 1.27-3.57 1.878a81.225 81.225 0 0 0-10.285 5.974 24.268 24.268 0 0 0-4.174 3.792c-.25.292-.515.577-.744.881a17.306 17.306 0 0 0-2.077 16.629c.094.226.156.46.257.678a16.33 16.33 0 0 0 2.88 4.182 17.368 17.368 0 0 0 11.266 5.53l.277.02a22.963 22.963 0 0 0 6.578-.713 75.332 75.332 0 0 0 10.471-3.691l4.486-1.835 10.015-4.1 5.518-2.252 15.257-6.239 1.789-.733q1.847-.76 3.714-1.535a90.73 90.73 0 0 0 10.2-4.883 38.6 38.6 0 0 0 7.206-5.226 29.889 29.889 0 0 0 3.753-4.3 32.778 32.778 0 0 0 5.194-11.454 34.237 34.237 0 0 0 .981-7.505z" class="cls-18" data-name="Path 470" transform="translate(1664.73 -454.245)"/>
                </g>
                <circle id="Ellipse_22" cx="21.433" cy="21.433" r="21.433" class="cls-19" data-name="Ellipse 22" transform="translate(-1580.398 492.125)"/>
                <circle id="Ellipse_23" cx="13.639" cy="13.639" r="13.639" class="cls-19" data-name="Ellipse 23" transform="translate(-1542.032 530.959)"/>
                <circle id="Ellipse_24" cx="17.536" cy="17.536" r="17.536" class="cls-19" data-name="Ellipse 24" transform="translate(-1527.114 484.073)"/>
            </g>
            <g id="Group_3" data-name="Group 3" transform="rotate(-4.01 -4989.88 -27538.01)">
                <g id="Group_1" data-name="Group 1" transform="translate(-1626.389 561.739)">
                    <path id="Path_7" d="M-1621.512 598.082l54.571 35.673a1.612 1.612 0 0 0 2.252-.37 1.614 1.614 0 0 0 .285-1.17l-6.491-63.705c-37.676 4.498-50.617 29.572-50.617 29.572z" class="cls-20" data-name="Path 7" transform="translate(1630.354 -556.232)"/>
                    <path id="Path_8" fill="#e3dabe" d="M-1618.181 601.338a15.65 15.65 0 0 1 8.368-6.887c6.377-2.58 10.756-8.72 15.587-13.9 5.161-5.529 8.456-2.258 18.373-5.083s5.15-9.211 5.15-9.211l-22.184 4.4-30.038 25.613 2.84 3.721z" data-name="Path 8" transform="translate(1629.206 -558.061)" style="isolation:isolate"/>
                    <path id="Path_9" d="M-1572.37 561.74a60.354 60.354 0 0 0-53.052 31.541 7.157 7.157 0 0 0 1.668 9.137 6.767 6.767 0 0 0 6.475 1.264s6.175-9.531 13.221-12.008c6.578-2.314 7.866-8.107 11.882-10.4q.452-.223.916-.441c4.754-1.882 8.281-1.946 17.514-4.37 3.431-.9 5.248-1.467 6.185-1.826a5.918 5.918 0 0 0 .584-.252l.573-.245a6.512 6.512 0 0 0 1.913-5.9 7.874 7.874 0 0 0-7.879-6.5z" class="cls-2" data-name="Path 9" transform="translate(1626.389 -561.739)"/>
                </g>
                <path id="Path_10" d="M-1602.776 581.879a5.524 5.524 0 0 1-1.948 7.567 5.525 5.525 0 0 1-7.567-1.948 5.526 5.526 0 0 1 1.94-7.563 5.525 5.525 0 0 1 7.569 1.935z" class="cls-18" data-name="Path 10" transform="translate(10.84 14.171)"/>
                <path id="Path_11" d="M-1592.685 578.425a5.525 5.525 0 0 1-1.947 7.567 5.525 5.525 0 0 1-7.567-1.946 5.526 5.526 0 0 1 1.942-7.565 5.525 5.525 0 0 1 7.568 1.938z" class="cls-18" data-name="Path 11" transform="translate(19.047 11.362)"/>
                <path id="Path_12" d="M-1591.762 590.99a5.526 5.526 0 0 1-1.946 7.567 5.526 5.526 0 0 1-7.569-1.946 5.526 5.526 0 0 1 1.942-7.565 5.526 5.526 0 0 1 7.569 1.938z" class="cls-18" data-name="Path 12" transform="translate(19.798 21.581)"/>
                <g id="Group_2" data-name="Group 2" transform="translate(-1607.673 580.994)">
                    <path id="Path_13" d="M-1602.555 584.046l-.272 5.38c-.071 1.347 2.02 1.331 2.089-.009l.277-5.375c.068-1.347-2.024-1.329-2.091.009z" class="cls-22" data-name="Path 13" transform="translate(1626.834 -563.67)"/>
                    <path id="Path_14" d="M-1615.56 585.963l2.666 1.614c1.15.7 2.167-1.131 1.015-1.828l-2.664-1.612c-1.151-.697-2.17 1.131-1.017 1.826z" class="cls-22" data-name="Path 14" transform="translate(1616.067 -562.904)"/>
                    <path id="Path_15" d="M-1606.622 575.812l-.263 2.473a1.052 1.052 0 0 0 1.05 1.041 1.074 1.074 0 0 0 1.041-1.052l.263-2.473a1.055 1.055 0 0 0-1.052-1.041 1.069 1.069 0 0 0-1.039 1.052z" class="cls-22" data-name="Path 15" transform="translate(1623.536 -570.404)"/>
                    <path id="Path_16" d="M-1596.467 587.516l3.068.789a1.045 1.045 0 0 0 1.271-.753 1.045 1.045 0 0 0-.752-1.271l-3.066-.789a1.047 1.047 0 0 0-1.237.813 1.048 1.048 0 0 0 .716 1.211z" class="cls-22" data-name="Path 16" transform="translate(1631.408 -561.693)"/>
                    <path id="Path_17" d="M-1593.581 597.844l-.7 3.823c-.241 1.318 1.786 1.844 2.024.519l.7-3.821c.243-1.319-1.784-1.845-2.024-.521z" class="cls-22" data-name="Path 17" transform="translate(1633.769 -552.255)"/>
                    <path id="Path_18" d="M-1597.984 574.416l2.854.912a1.045 1.045 0 0 0 1.271-.753 1.045 1.045 0 0 0-.751-1.273l-2.854-.912a1.045 1.045 0 0 0-1.271.753 1.045 1.045 0 0 0 .751 1.273z" class="cls-22" data-name="Path 18" transform="translate(1630.137 -572.358)"/>
                    <path id="Path_19" d="M-1605.394 592.6c.241.241.481.486.722.729a1.042 1.042 0 0 0 1.474-.08 1.045 1.045 0 0 0-.024-1.42l-.72-.731a1.044 1.044 0 0 0-1.477-.049 1.044 1.044 0 0 0-.051 1.478c.024.025.051.051.076.074z" class="cls-22" data-name="Path 19" transform="translate(1624.457 -557.388)"/>
                </g>
                <path id="Path_20" d="M-1606.96 593.71a45.671 45.671 0 0 1 4.642-6.49c1.168-1.362-.842-3.327-2.014-1.953a49.924 49.924 0 0 0-5.074 7.076c-.921 1.552 1.53 2.925 2.45 1.363z" class="cls-23" data-name="Path 20" transform="translate(13.646 18.756)"/>
                <path id="Path_21" d="M-1592.967 586.919a45.86 45.86 0 0 1 .749-7.944c.321-1.766-2.4-2.453-2.723-.669a49.96 49.96 0 0 0-.827 8.668c-.014 1.806 2.791 1.755 2.807-.054z" class="cls-23" data-name="Path 21" transform="translate(24.904 12.625)"/>
                <path id="Path_22" d="M-1595.243 601.306a45.9 45.9 0 0 1 5.948-5.318c1.438-1.07-.092-3.431-1.545-2.344a50.034 50.034 0 0 0-6.5 5.793c-1.238 1.315.854 3.184 2.092 1.868z" class="cls-23" data-name="Path 22" transform="translate(23.32 25.721)"/>
            </g>
            <path id="oversized-wine-glass-2" d="M-1504.1 639.427l10.97-18.254a19.247 19.247 0 0 0 24.537-7.543 35.53 35.53 0 0 0 4.072-12.11 2.445 2.445 0 0 0-1.151-2.486l-24.355-14.634a2.444 2.444 0 0 0-2.737.15 34.759 34.759 0 0 0-8.961 9.623 19.2 19.2 0 0 0 5.045 24.853l-10.97 18.254c-5.871-2.9-11.655-3-12.406-1.747-.829 1.381 3.721 5.635 10.165 9.508s12.337 5.891 13.166 4.51c.744-1.238-2.041-6.297-7.375-10.124zm12.936-50.854l22.341 13.422a30.254 30.254 0 0 1-3.335 9.505 15.179 15.179 0 0 1-1.145 1.626 6.854 6.854 0 0 0-3.578-1.98 12.4 12.4 0 0 1-8.961-4.573c-2.5-3.241-1.062-10.3-5.241-12.214a11.87 11.87 0 0 0-4.935-1.065 35.043 35.043 0 0 1 4.854-4.723z" class="cls-24" transform="translate(1632.157 72.685)"/>
            <circle id="Ellipse_28" cx="9" cy="9" r="9" class="cls-25" data-name="Ellipse 28" transform="translate(1282 759.736)"/>
            <circle id="Ellipse_28-2" cx="9" cy="9" r="9" class="cls-25" data-name="Ellipse 28" transform="translate(670 303.736)"/>
            <circle id="Ellipse_29" cx="8" cy="8" r="8" class="cls-26" data-name="Ellipse 29" transform="translate(301 445.736)"/>
            <circle id="Ellipse_32" cx="8" cy="8" r="8" class="cls-24" data-name="Ellipse 32" transform="translate(1580 697.736)"/>
            <circle id="Ellipse_33" cx="8" cy="8" r="8" fill="#5cc1a0" data-name="Ellipse 33" transform="translate(1040 218)"/>
            <circle id="Ellipse_30" cx="8" cy="8" r="8" fill="#fb5557" data-name="Ellipse 30" opacity="0.8" transform="translate(762 779)"/>
            <circle id="Ellipse_31" cx="8" cy="8" r="8" fill="#ffb14a" data-name="Ellipse 31" transform="translate(1515 329.736)"/>
            <circle id="Ellipse_31-2" cx="8" cy="8" r="8" fill="#ffe242" data-name="Ellipse 31" transform="translate(436 689.736)"/>
            <path id="oversized-wine-glass-2-2" fill="#45b995" d="M-1504.1 639.427l10.97-18.254a19.247 19.247 0 0 0 24.537-7.543 35.53 35.53 0 0 0 4.072-12.11 2.445 2.445 0 0 0-1.151-2.486l-24.355-14.634a2.444 2.444 0 0 0-2.737.15 34.759 34.759 0 0 0-8.961 9.623 19.2 19.2 0 0 0 5.045 24.853l-10.97 18.254c-5.871-2.9-11.655-3-12.406-1.747-.829 1.381 3.721 5.635 10.165 9.508s12.337 5.891 13.166 4.51c.744-1.238-2.041-6.297-7.375-10.124zm12.936-50.854l22.341 13.422a30.254 30.254 0 0 1-3.335 9.505 15.179 15.179 0 0 1-1.145 1.626 6.854 6.854 0 0 0-3.578-1.98 12.4 12.4 0 0 1-8.961-4.573c-2.5-3.241-1.062-10.3-5.241-12.214a11.87 11.87 0 0 0-4.935-1.065 35.043 35.043 0 0 1 4.854-4.723z" data-name="oversized-wine-glass-2" opacity="0.8" transform="translate(3272.491 -271.315)"/>
            <g id="Group_567" data-name="Group 567" transform="translate(2372.444 222.933)">
                <g id="Group_86" data-name="Group 86" transform="translate(-1383.353 454.803)">
                    <g id="Group_84" class="cls-32" data-name="Group 84" transform="translate(0 .169)">
                        <path id="Path_258" fill="#e4d297" d="M-1346.438 454.875a36.916 36.916 0 0 0-36.916 36.916 36.914 36.914 0 0 0 36.916 36.916 36.914 36.914 0 0 0 36.915-36.916 36.916 36.916 0 0 0-36.915-36.916zm0 48.709a11.793 11.793 0 0 1-11.793-11.793A11.793 11.793 0 0 1-1346.438 480a11.794 11.794 0 0 1 11.793 11.793 11.793 11.793 0 0 1-11.793 11.791z" data-name="Path 258" transform="translate(1383.354 -454.875)" style="isolation:isolate" opacity="0.37"/>
                    </g>
                    <g id="Group_85" data-name="Group 85">
                        <path id="Path_259" d="M-1346.438 454.8a36.916 36.916 0 0 0-36.916 36.916 36.916 36.916 0 0 0 36.916 36.915 36.916 36.916 0 0 0 36.915-36.915 36.916 36.916 0 0 0-36.915-36.916zm0 48.709a11.793 11.793 0 0 1-11.793-11.793 11.793 11.793 0 0 1 11.793-11.793 11.8 11.8 0 0 1 11.793 11.793 11.792 11.792 0 0 1-11.793 11.788z" class="cls-20" data-name="Path 259" transform="translate(1383.354 -454.803)"/>
                    </g>
                </g>
                <g id="Group_87" data-name="Group 87" opacity="0.46" transform="translate(-1370.964 461.803)">
                    <path id="Path_260" fill="#c7c7c7" d="M-1331.58 457.788a36.974 36.974 0 0 1 3.238 52.187 36.97 36.97 0 0 1-49.729 5.227 36.973 36.973 0 0 0 52.186-3.236 36.973 36.973 0 0 0-3.239-52.186q-1.184-1.049-2.456-1.992z" data-name="Path 260" transform="translate(1378.07 -457.788)" style="isolation:isolate" opacity="0.38"/>
                </g>
                <g id="Group_723" data-name="Group 723" transform="translate(-1377.876 463.906)">
                    <g id="Group_722" clip-path="url(#clip-path-2)" data-name="Group 722">
                        <g id="Group_91" data-name="Group 91" transform="translate(-4.332 -7.959)">
                            <g id="Group_90" data-name="Group 90">
                                <g id="Group_88" class="cls-32" data-name="Group 88" transform="translate(0 .169)">
                                    <path id="Path_261" fill="#ffcfb3" d="M-1345.95 455.363a36.915 36.915 0 0 0-36.915 36.915 36.914 36.914 0 0 0 36.915 36.915 36.914 36.914 0 0 0 36.916-36.915 36.916 36.916 0 0 0-36.916-36.915zm0 48.709a11.793 11.793 0 0 1-11.793-11.793 11.8 11.8 0 0 1 11.793-11.793 11.794 11.794 0 0 1 11.793 11.793 11.793 11.793 0 0 1-11.793 11.793z" data-name="Path 261" transform="translate(1382.865 -455.363)" style="isolation:isolate" opacity="0.37"/>
                                </g>
                                <g id="Group_89" data-name="Group 89">
                                    <path id="Path_262" d="M-1345.95 455.291a36.915 36.915 0 0 0-36.915 36.916 36.914 36.914 0 0 0 36.915 36.916 36.914 36.914 0 0 0 36.916-36.916 36.916 36.916 0 0 0-36.916-36.916zm0 48.709a11.793 11.793 0 0 1-11.793-11.793 11.8 11.8 0 0 1 11.793-11.793 11.794 11.794 0 0 1 11.793 11.793A11.792 11.792 0 0 1-1345.95 504z" class="cls-2" data-name="Path 262" transform="translate(1382.865 -455.291)"/>
                                </g>
                            </g>
                        </g>
                    </g>
                </g>
                <g id="Group_93" data-name="Group 93" transform="translate(-1377.322 460.973)">
                    <path id="Path_264" d="M-1357.419 477.942a1.039 1.039 0 0 1-1.37-.511l-2-4.395a1.037 1.037 0 0 1 .514-1.372 1.036 1.036 0 0 1 1.372.514l2 4.395a1.038 1.038 0 0 1-.516 1.369z" class="cls-38" data-name="Path 264" transform="translate(1407.545 -438.419)"/>
                    <path id="Path_265" d="M-1367.032 482.611a1.04 1.04 0 0 1 .882-1.173l4.784-.668a1.038 1.038 0 0 1 1.172.882 1.037 1.037 0 0 1-.879 1.173l-4.782.668a1.037 1.037 0 0 1-1.177-.882z" class="cls-38" data-name="Path 265" transform="translate(1399.261 -426.06)"/>
                    <path id="Path_266" d="M-1373.133 462.941a1.039 1.039 0 0 1 .073-1.461l3.576-3.245a1.037 1.037 0 0 1 1.461.073 1.039 1.039 0 0 1-.073 1.461l-3.576 3.243a1.039 1.039 0 0 1-1.461-.071z" class="cls-19" data-name="Path 266" transform="translate(1390.712 -456.717)"/>
                    <path id="Path_267" d="M-1368.587 465.35a1.039 1.039 0 0 1-.584-1.341l1.766-4.493a1.038 1.038 0 0 1 1.341-.586 1.037 1.037 0 0 1 .586 1.344l-1.766 4.493a1.037 1.037 0 0 1-1.343.583z" class="cls-25" data-name="Path 267" transform="translate(1396.304 -455.518)"/>
                    <path id="Path_268" d="M-1376.907 466.89a1.04 1.04 0 0 1 .11-1.461l3.663-3.147a1.042 1.042 0 0 1 1.459.11 1.038 1.038 0 0 1-.11 1.458l-3.663 3.145a1.039 1.039 0 0 1-1.459-.105z" class="cls-26" data-name="Path 268" transform="translate(1385.659 -451.246)"/>
                    <path id="Path_269" d="M-1358.332 479.9a1.04 1.04 0 0 1 .11-1.461l3.663-3.145a1.042 1.042 0 0 1 1.458.11 1.037 1.037 0 0 1-.11 1.459l-3.667 3.149a1.04 1.04 0 0 1-1.454-.112z" class="cls-26" data-name="Path 269" transform="translate(1410.642 -433.748)"/>
                    <path id="Path_270" d="M-1378.041 469.684a1.04 1.04 0 0 1 1.449.218l2.875 3.881a1.039 1.039 0 0 1-.216 1.449 1.041 1.041 0 0 1-1.449-.216l-2.875-3.881a1.039 1.039 0 0 1 .216-1.451z" class="cls-38" data-name="Path 270" transform="translate(1383.905 -441.229)"/>
                    <path id="Path_271" d="M-1366.233 466.029a1.038 1.038 0 0 1-1.222.8l-4.73-.973a1.035 1.035 0 0 1-.8-1.222 1.039 1.039 0 0 1 1.222-.8l4.732.976a1.035 1.035 0 0 1 .798 1.219z" class="cls-38" data-name="Path 271" transform="translate(1391.232 -448.854)"/>
                    <path id="Path_272" d="M-1369.936 483.931a1.036 1.036 0 0 1-1.463 0l-3.386-3.445a1.035 1.035 0 0 1 .012-1.461 1.034 1.034 0 0 1 1.463.012l3.386 3.44a1.035 1.035 0 0 1-.012 1.454z" class="cls-38" data-name="Path 272" transform="translate(1388.449 -428.793)"/>
                    <path id="Path_273" d="M-1356.7 471.569a1.034 1.034 0 0 1 .807-1.222l4.732-.966a1.042 1.042 0 0 1 1.219.807 1.038 1.038 0 0 1-.807 1.219l-4.732.964a1.037 1.037 0 0 1-1.219-.802z" class="cls-39" data-name="Path 273" transform="translate(1413.146 -441.391)"/>
                    <path id="Path_274" d="M-1379.953 469a1.038 1.038 0 0 1 .807-1.219l4.732-.964a1.042 1.042 0 0 1 1.219.807 1.036 1.036 0 0 1-.806 1.219l-4.732.964a1.039 1.039 0 0 1-1.22-.807z" class="cls-25" data-name="Path 274" transform="translate(1381.869 -444.842)"/>
                    <path id="Path_275" d="M-1373.92 473.824a1.038 1.038 0 0 1-.823-1.21l.9-4.744a1.036 1.036 0 0 1 1.21-.825 1.039 1.039 0 0 1 .826 1.21l-.9 4.744a1.038 1.038 0 0 1-1.213.825z" class="cls-39" data-name="Path 275" transform="translate(1388.88 -444.532)"/>
                    <path id="Path_276" d="M-1360.72 461.355a1.042 1.042 0 0 1 1.172-.882l4.781.673a1.039 1.039 0 0 1 .882 1.173 1.038 1.038 0 0 1-1.173.882l-4.781-.673a1.037 1.037 0 0 1-.881-1.173z" class="cls-39" data-name="Path 276" transform="translate(1407.751 -453.359)"/>
                    <path id="Path_277" d="M-1365.085 477.79a1.039 1.039 0 0 1 1.173-.879l4.781.673a1.037 1.037 0 0 1 .882 1.172 1.038 1.038 0 0 1-1.172.882l-4.782-.673a1.034 1.034 0 0 1-.882-1.17z" class="cls-39" data-name="Path 277" transform="translate(1401.88 -431.251)"/>
                    <path id="Path_278" d="M-1363.126 461.952a1.038 1.038 0 0 1 1.119.938l.408 4.812a1.037 1.037 0 0 1-.938 1.118 1.034 1.034 0 0 1-1.118-.938l-.408-4.812a1.04 1.04 0 0 1 .937-1.118z" class="cls-39" data-name="Path 278" transform="translate(1403.262 -451.362)"/>
                    <path id="Path_279" d="M-1356.9 469.631a1.037 1.037 0 0 1-.572-1.349l1.806-4.479a1.041 1.041 0 0 1 1.348-.572 1.04 1.04 0 0 1 .572 1.346l-1.806 4.479a1.039 1.039 0 0 1-1.348.575z" class="cls-25" data-name="Path 279" transform="translate(1412.034 -449.736)"/>
                    <path id="Path_280" d="M-1374.516 479.734a1.035 1.035 0 0 1-.572-1.348l1.806-4.479a1.042 1.042 0 0 1 1.349-.572 1.04 1.04 0 0 1 .572 1.351l-1.806 4.479a1.034 1.034 0 0 1-1.349.569z" class="cls-25" data-name="Path 280" transform="translate(1388.337 -436.147)"/>
                    <path id="Path_281" d="M-1363.7 457.526a1.039 1.039 0 0 1 1.37.516l1.991 4.4a1.039 1.039 0 0 1-.516 1.369 1.04 1.04 0 0 1-1.369-.516l-1.991-4.4a1.038 1.038 0 0 1 .515-1.369z" class="cls-38" data-name="Path 281" transform="translate(1402.938 -457.434)"/>
                    <path id="Path_282" d="M-1380.771 473.977a1.042 1.042 0 0 1 1.173-.882l4.781.673a1.039 1.039 0 0 1 .882 1.172 1.039 1.039 0 0 1-1.173.882l-4.781-.673a1.037 1.037 0 0 1-.882-1.172z" class="cls-26" data-name="Path 282" transform="translate(1380.782 -436.382)"/>
                    <path id="Path_283" d="M-1357.2 472.545a1.036 1.036 0 0 1-1.447-.235l-2.845-3.9a1.041 1.041 0 0 1 .235-1.447 1.038 1.038 0 0 1 1.447.234l2.847 3.9a1.038 1.038 0 0 1-.237 1.448z" class="cls-25" data-name="Path 283" transform="translate(1406.467 -444.883)"/>
                    <path id="Path_284" d="M-1366.21 482.817a1.036 1.036 0 0 1-1.447-.234l-2.847-3.9a1.04 1.04 0 0 1 .234-1.447 1.04 1.04 0 0 1 1.447.234l2.847 3.9a1.04 1.04 0 0 1-.234 1.447z" class="cls-25" data-name="Path 284" transform="translate(1394.344 -431.064)"/>
                </g>
            </g>
        </g>
    </g>
</svg>
