<svg xmlns="http://www.w3.org/2000/svg" width="62" height="60" viewBox="0 0 62 60">
    <defs>
        <style>
            .cls-1{fill:#858891}
        </style>
    </defs>
    <g id="clients_" transform="translate(-237.914 -285.566)">
        <path id="Path_1108" d="M286.5 318.051l-5.441 5.607a4.065 4.065 0 0 0-2.977-1.305h-10.59a12.476 12.476 0 0 0-4.794-.955h-.024a12.016 12.016 0 0 0-10.9 6.091 3.093 3.093 0 0 0-2.6.892l-4.535 4.562a1.212 1.212 0 0 0 0 1.7l10.716 10.825a1.2 1.2 0 0 0 1.7.009l4.628-4.572a3.128 3.128 0 0 0 .785-3.07l.882-.856a2.584 2.584 0 0 1 1.809-.734h12.7a8.711 8.711 0 0 0 6.133-2.5c.036-.029.036-.029 1.714-2.041l6.967-8.353a4.069 4.069 0 0 0-6.174-5.3zm-26.518 21.143l-3.768 3.721-9.026-9.121 3.7-3.714a.7.7 0 0 1 .852-.113c.357.3 8.267 8.268 8.307 8.31a.711.711 0 0 1-.063.918zm30.857-17.394l-8.539 10.24a6.343 6.343 0 0 1-4.438 1.8h-12.705a4.96 4.96 0 0 0-3.477 1.412l-.636.617-7.169-7.189a9.693 9.693 0 0 1 8.78-4.871h.046a10.077 10.077 0 0 1 4.068.855 1.185 1.185 0 0 0 .482.1h10.834a1.666 1.666 0 0 1 .087 3.329H270.3a1.205 1.205 0 0 0 0 2.411h7.783a4.066 4.066 0 0 0 4.042-4.487l5.277-5.439c.709-.73.881-.907.9-.93a1.662 1.662 0 1 1 2.534 2.153z" class="cls-1" transform="translate(-.051 -.256)"/>
        <path id="Path_1109" d="M268.942 298.656h.348a4.744 4.744 0 0 0 3.547-1.591c1.854-2.1 1.641-5.48 1.58-6.105a5.266 5.266 0 0 0-2.508-4.675 5.676 5.676 0 0 0-2.74-.72h-.076a5.873 5.873 0 0 0-2.755.711 5.225 5.225 0 0 0-2.521 4.613c-.038.407-.317 4.03 1.582 6.174a4.76 4.76 0 0 0 3.543 1.593zm-2.839-7.379l.025-.232c.12-2.6 1.7-3.146 3-3.146 1.873.044 2.872 1.082 2.967 3.075V291.121c.042.5.191 3.053-.987 4.381a2.859 2.859 0 0 1-3.982.012c-1.14-1.273-1.051-3.762-1.026-4.236z" class="cls-1" transform="translate(-.207)"/>
        <path id="Path_1110" d="M259.86 310.371a19.954 19.954 0 0 0 18.5-.027 1.2 1.2 0 0 0 .467-.61 8 8 0 0 0 .241-2.251v-.163c-.031-1.035-.127-4.187-2.527-5.011a12.615 12.615 0 0 1-3.645-1.662 1.164 1.164 0 0 0-1.621.285 1.176 1.176 0 0 0 .293 1.63 14.683 14.683 0 0 0 4.32 1.983c.355.127.794.724.864 2.835v.154a8.132 8.132 0 0 1-.054 1.054 17.808 17.808 0 0 1-15.224 0 7.542 7.542 0 0 1-.052-1.061v-.1c.065-2.148.494-2.747.825-2.865a14.909 14.909 0 0 0 4.363-2 1.166 1.166 0 0 0-.466-2.1 1.147 1.147 0 0 0-.859.187 12.87 12.87 0 0 1-3.734 1.7c-2.33.8-2.42 4-2.449 5.062v.089a7.625 7.625 0 0 0 .271 2.306 1.153 1.153 0 0 0 .487.565z" class="cls-1" transform="translate(-.169 -.123)"/>
        <g id="Group_860" transform="translate(237.914 285.566)">
            <path id="Path_1111" d="M247.763 298.656h.363a4.71 4.71 0 0 0 3.533-1.592c1.845-2.09 1.639-5.478 1.58-6.105a5.269 5.269 0 0 0-2.509-4.675 5.665 5.665 0 0 0-2.738-.72h-.09a5.687 5.687 0 0 0-2.743.711 5.218 5.218 0 0 0-2.519 4.612c-.039.4-.33 4.017 1.581 6.175a4.76 4.76 0 0 0 3.542 1.594zm-2.84-7.369l.026-.236c.119-2.6 1.7-3.146 3-3.146 1.873.044 2.872 1.082 2.967 3.074v.142c.043.5.192 3.053-1 4.391a2.515 2.515 0 0 1-2.039.811 2.462 2.462 0 0 1-1.932-.8c-1.145-1.298-1.052-3.765-1.022-4.236z" class="cls-1" transform="translate(-237.951 -285.566)"/>
            <path id="Path_1112" d="M257.181 310.337a1.2 1.2 0 0 0 .466-.61 8.022 8.022 0 0 0 .248-2.008v-.045-.355c-.031-1.036-.125-4.189-2.526-5.014a12.6 12.6 0 0 1-3.645-1.662 1.163 1.163 0 0 0-1.581.23l-.041.055a1.176 1.176 0 0 0 .293 1.63 14.7 14.7 0 0 0 4.32 1.983c.355.127.793.724.864 2.832a1.186 1.186 0 0 0 0 .157 8.1 8.1 0 0 1-.054 1.053 17.8 17.8 0 0 1-15.224 0 7.393 7.393 0 0 1-.053-1.06v-.1c.065-2.149.494-2.748.825-2.867a14.935 14.935 0 0 0 4.365-2 1.172 1.172 0 0 0 .283-1.622 1.157 1.157 0 0 0-1.61-.291 12.8 12.8 0 0 1-3.734 1.695c-2.332.805-2.42 4-2.449 5.06v.09a7.583 7.583 0 0 0 .27 2.3 1.149 1.149 0 0 0 .494.578 19.95 19.95 0 0 0 18.5-.027z" class="cls-1" transform="translate(-237.914 -285.689)"/>
            <path id="Path_1113" d="M290.121 298.656h.374a4.682 4.682 0 0 0 3.522-1.592c1.848-2.092 1.64-5.479 1.579-6.105a5.268 5.268 0 0 0-2.507-4.675 5.675 5.675 0 0 0-2.74-.72h-.089a5.687 5.687 0 0 0-2.743.711 5.223 5.223 0 0 0-2.52 4.614c-.062.663-.279 4.071 1.582 6.173a4.76 4.76 0 0 0 3.542 1.594zm-2.839-7.375l.026-.236c.119-2.6 1.7-3.146 3-3.146 1.874.044 2.873 1.082 2.967 3.075v.147c.043.5.192 3.053-.987 4.381a2.856 2.856 0 0 1-3.981.013c-1.151-1.295-1.055-3.763-1.025-4.234z" class="cls-1" transform="translate(-238.289 -285.566)"/>
            <path id="Path_1114" d="M300.242 307.323c-.031-1.035-.125-4.187-2.526-5.013a12.61 12.61 0 0 1-3.638-1.657 1.166 1.166 0 1 0-1.406 1.862l.069.049a14.7 14.7 0 0 0 4.32 1.983c.355.127.793.724.864 2.829a1.239 1.239 0 0 0 0 .16 7.975 7.975 0 0 1-.053 1.054 17.809 17.809 0 0 1-15.225 0 7.431 7.431 0 0 1-.052-1.061v-.1c.064-2.15.494-2.749.824-2.867a14.957 14.957 0 0 0 4.365-2 1.166 1.166 0 0 0-.468-2.1 1.146 1.146 0 0 0-.859.187 12.791 12.791 0 0 1-3.734 1.695c-2.332.806-2.42 4-2.449 5.06v.089a7.6 7.6 0 0 0 .27 2.306 1.153 1.153 0 0 0 .494.576 19.95 19.95 0 0 0 18.5-.027 1.2 1.2 0 0 0 .466-.61 8.007 8.007 0 0 0 .243-2.251z" class="cls-1" transform="translate(-238.252 -285.688)"/>
        </g>
    </g>
</svg>
