<svg xmlns="http://www.w3.org/2000/svg" width="20.506" height="25" viewBox="0 0 20.506 25">
    <path d="M6.798 25.002c-3.721-.021-6.8-7.617-6.8-11.485 0-6.319 4.74-7.7 6.567-7.7a7.556 7.556 0 0 1 2.478.609 5.538 5.538 0 0 0 1.415.406 4.4 4.4 0 0 0 1.02-.33 8.135 8.135 0 0 1 3.059-.74h.007a6.27 6.27 0 0 1 5.247 2.65l.383.575-.551.416a4.634 4.634 0 0 0-2.222 3.822 4.313 4.313 0 0 0 2.407 3.988c.345.207.7.421.7.889 0 .305-2.438 6.864-5.977 6.864a4.807 4.807 0 0 1-2.018-.49 4.093 4.093 0 0 0-1.8-.433 4.622 4.622 0 0 0-1.423.385 6.968 6.968 0 0 1-2.468.576z" data-name="Path 722"/>
    <path d="M14.908 0c.092 3.324-2.285 5.63-4.659 5.485C9.857 2.833 12.623 0 14.908 0z" data-name="Path 723"/>
</svg>
