<svg xmlns="http://www.w3.org/2000/svg" width="60" height="60" viewBox="0 0 60 60">
    <defs>
        <style>
            .cls-1{fill:#858891}
        </style>
    </defs>
    <g id="_ressources_" transform="translate(-738 -3459)">
        <path id="Path_1076" d="M38.75 55.5H6.25A6.257 6.257 0 0 1 0 49.25v-40A6.257 6.257 0 0 1 6.25 3h5a1.25 1.25 0 0 1 0 2.5h-5A3.755 3.755 0 0 0 2.5 9.25v40A3.755 3.755 0 0 0 6.25 53h32.5a3.755 3.755 0 0 0 3.75-3.75v-40a3.755 3.755 0 0 0-3.75-3.75h-5a1.25 1.25 0 0 1 0-2.5h5A6.257 6.257 0 0 1 45 9.25v40a6.257 6.257 0 0 1-6.25 6.25z" class="cls-1" transform="translate(738 3463.5)"/>
        <path id="Path_1077" d="M25.25 15H7.75A3.755 3.755 0 0 1 4 11.25v-5A1.25 1.25 0 0 1 5.25 5h5.125a6.252 6.252 0 0 1 12.25 0h5.125A1.25 1.25 0 0 1 29 6.25v5A3.755 3.755 0 0 1 25.25 15zM6.5 7.5v3.75a1.252 1.252 0 0 0 1.25 1.25h17.5a1.252 1.252 0 0 0 1.25-1.25V7.5h-5a1.25 1.25 0 0 1-1.25-1.25 3.75 3.75 0 0 0-7.5 0A1.25 1.25 0 0 1 11.5 7.5z" class="cls-1" transform="translate(744 3459)"/>
        <path id="Path_1078" d="M25 43.5a1.252 1.252 0 0 1-1.118-.69l-3.222-6.445A6.276 6.276 0 0 1 20 33.57V11a5 5 0 0 1 10 0v22.57a6.276 6.276 0 0 1-.66 2.795l-3.222 6.445A1.252 1.252 0 0 1 25 43.5zm0-35a2.5 2.5 0 0 0-2.5 2.5v22.57a3.794 3.794 0 0 0 .4 1.677l2.1 4.208 2.1-4.208a3.794 3.794 0 0 0 .4-1.677V11A2.5 2.5 0 0 0 25 8.5zm3.222 27.305h.025z" class="cls-1" transform="translate(768 3468)"/>
        <path id="Path_1079" d="M31.75 11.5H4.25a1.25 1.25 0 0 1 0-2.5h27.5a1.25 1.25 0 0 1 0 2.5z" class="cls-1" transform="translate(742.5 3472.5)"/>
        <path id="Path_1080" d="M31.75 14.5H4.25a1.25 1.25 0 0 1 0-2.5h27.5a1.25 1.25 0 0 1 0 2.5z" class="cls-1" transform="translate(742.5 3477)"/>
        <path id="Path_1081" d="M31.75 17.5H4.25a1.25 1.25 0 0 1 0-2.5h27.5a1.25 1.25 0 0 1 0 2.5z" class="cls-1" transform="translate(742.5 3481.5)"/>
        <path id="Path_1082" d="M31.75 20.5H4.25a1.25 1.25 0 0 1 0-2.5h27.5a1.25 1.25 0 0 1 0 2.5z" class="cls-1" transform="translate(742.5 3486)"/>
    </g>
</svg>
