<svg xmlns="http://www.w3.org/2000/svg" width="59.794" height="60" viewBox="0 0 59.794 60">
    <defs>
        <style>
            .cls-1{fill:#858891}
        </style>
    </defs>
    <g id="temps_" transform="translate(-677 -3460)">
        <path id="Path_1093" d="M317.234 396.216l-7.364-.007a4.248 4.248 0 0 0-2.9-2.9v-10.288a1.18 1.18 0 0 0-1.178-1.141h-.037a1.18 1.18 0 0 0-1.14 1.146v10.288a4.247 4.247 0 1 0 5.251 5.252h7.206a1.2 1.2 0 0 0 .842-.318 1.177 1.177 0 0 0-.685-2.03zm-9.538 1.17a1.9 1.9 0 1 1-1.9-1.9 1.905 1.905 0 0 1 1.904 1.9z" class="cls-1" transform="translate(401.099 3093.696)"/>
        <path id="Path_1094" d="M326.228 378.367l1.508-1.511 4.095 4.095a1.178 1.178 0 0 0 1.647.018l.018-.018.041-.041a8.483 8.483 0 0 0-12.037-11.955 1.179 1.179 0 0 0-.044 1.618l.041.043 4.572 4.572-1.533 1.538a27.734 27.734 0 0 0-36.914 0l-1.535-1.538 4.571-4.571a1.178 1.178 0 0 0 0-1.665 8.482 8.482 0 1 0-12 12 1.178 1.178 0 0 0 1.665 0l4.094-4.095 1.507 1.507a27.8 27.8 0 0 0 5.871 43.1l-2.961 2.961a1.177 1.177 0 0 0 .717 2.054h.069a1.169 1.169 0 0 0 .784-.3c.033-.031.066-.064.09-.09l3.462-3.463a27.6 27.6 0 0 0 24.236 0l3.463 3.463a1.178 1.178 0 1 0 1.665-1.667l-2.968-2.961a27.8 27.8 0 0 0 5.871-43.091zm-38.148-8.5l-8.5 8.5a6.128 6.128 0 0 1 8.5-8.5zm43.492 27.689a25.494 25.494 0 1 1-25.495-25.493 25.564 25.564 0 0 1 25.496 25.494zm-7.5-27.689a6.128 6.128 0 0 1 8.5 8.505z" class="cls-1" transform="translate(400.817 3093.525)"/>
        <path id="Path_1095" d="M305.764 376.989a1.179 1.179 0 0 0 1.177-1.178v-1.02a1.178 1.178 0 1 0-2.355-.073v1.093a1.18 1.18 0 0 0 1.178 1.178z" class="cls-1" transform="translate(401.133 3093.604)"/>
        <path id="Path_1096" d="M305.765 417.234a1.179 1.179 0 0 0-1.178 1.179v1.031a1.179 1.179 0 0 0 1.177 1.141h.037a1.182 1.182 0 0 0 1.141-1.146v-1.026a1.18 1.18 0 0 0-1.177-1.179z" class="cls-1" transform="translate(401.133 3094.089)"/>
        <path id="Path_1097" d="M327.065 398.284h1.065a1.178 1.178 0 0 0 .038-2.355h-1.1a1.178 1.178 0 0 0 0 2.355z" class="cls-1" transform="translate(401.37 3093.852)"/>
        <path id="Path_1098" d="M284.538 395.929h-1.1a1.178 1.178 0 0 0 .005 2.355h1.057a1.178 1.178 0 0 0 .036-2.355z" class="cls-1" transform="translate(400.885 3093.852)"/>
    </g>
</svg>
