<?xml version="1.0" encoding="UTF-8"?>
<svg xmlns="http://www.w3.org/2000/svg" xmlns:xlink="http://www.w3.org/1999/xlink" width="300pt" height="500pt" viewBox="0 0 300 500" version="1.1">
<defs>
<filter id="alpha" filterUnits="objectBoundingBox" x="0%" y="0%" width="100%" height="100%">
  <feColorMatrix type="matrix" in="SourceGraphic" values="0 0 0 0 1 0 0 0 0 1 0 0 0 0 1 0 0 0 1 0"/>
</filter>
<mask id="mask0">
  <g filter="url(#alpha)">
<rect x="0" y="0" width="300" height="500" style="fill:rgb(0%,0%,0%);fill-opacity:0.74902;stroke:none;"/>
  </g>
</mask>
<clipPath id="clip1">
  <rect x="0" y="0" width="300" height="500"/>
</clipPath>
<g id="surface5" clip-path="url(#clip1)">
<path style=" stroke:none;fill-rule:nonzero;fill:rgb(65.098039%,100%,74.509804%);fill-opacity:1;" d="M 68.746094 133.605469 C 70.140625 141.449219 71.070312 149.949219 71.484375 158.726562 C 72.503906 180.769531 70.066406 203.792969 65.246094 220.734375 C 59.933594 239.402344 53.257812 252.671875 52.074219 279.121094 C 50.75 308.78125 56.378906 356.710938 48.5 380.152344 C 38.425781 410.109375 20.921875 410.355469 8.617188 394.371094 C -5.796875 375.644531 -7.847656 326.863281 -13.066406 288.140625 C -17.84375 252.679688 -34.589844 234.878906 -28.820312 189.324219 C -25.976562 166.882812 -20.292969 141.621094 -12.082031 134.410156 C -5.890625 128.972656 -0.464844 138.035156 5.0625 144.667969 C 18.433594 160.710938 24.136719 119.875 34.625 103.375 C 41.835938 92.027344 50.265625 88.023438 57.652344 99.988281 C 62.382812 107.734375 66.238281 119.425781 68.742188 133.605469 "/>
</g>
<mask id="mask1">
  <g filter="url(#alpha)">
<rect x="0" y="0" width="300" height="500" style="fill:rgb(0%,0%,0%);fill-opacity:0.101961;stroke:none;"/>
  </g>
</mask>
<clipPath id="clip2">
  <rect x="0" y="0" width="300" height="500"/>
</clipPath>
<g id="surface8" clip-path="url(#clip2)">
<path style=" stroke:none;fill-rule:nonzero;fill:rgb(0%,0%,0%);fill-opacity:1;" d="M 279.875 185.8125 L 279.871094 185.8125 C 278.261719 185.808594 276.886719 182.554688 275.660156 179.46875 C 275.574219 179.242188 275.332031 178.566406 275.332031 178.566406 L 275.304688 178.566406 C 273.511719 174.054688 271.726562 169.5 270.117188 164.421875 C 267.914062 157.480469 265.882812 149.25 262.910156 145.859375 L 262.90625 145.8125 C 262.8125 144.535156 262.722656 143.277344 262.636719 142.042969 C 263.324219 140.617188 264.148438 139.882812 264.984375 139.945312 C 265.667969 139.945312 266.34375 140.355469 266.972656 141.140625 C 268.691406 143.316406 269.992188 147.5625 271.359375 151.328125 C 274.230469 159.226562 277.59375 165.398438 281.257812 169.503906 C 281.933594 170.257812 282.671875 171.066406 283.046875 172.894531 C 283.289062 174.199219 283.367188 175.714844 283.269531 177.171875 C 283.027344 181.933594 281.5 185.8125 279.875 185.8125 "/>
</g>
<mask id="mask2">
  <g filter="url(#alpha)">
<rect x="0" y="0" width="300" height="500" style="fill:rgb(0%,0%,0%);fill-opacity:0.0784314;stroke:none;"/>
  </g>
</mask>
<clipPath id="clip3">
  <rect x="0" y="0" width="300" height="500"/>
</clipPath>
<g id="surface11" clip-path="url(#clip3)">
<path style=" stroke:none;fill-rule:nonzero;fill:rgb(0%,0%,0%);fill-opacity:1;" d="M 39.917969 299.023438 L 38.496094 299.023438 L 36.726562 257.984375 L 36.726562 251.3125 L 34.929688 245.8125 C 33.074219 251.445312 30.664062 254.128906 28.113281 254.128906 C 27.316406 254.125 26.519531 253.875 25.742188 253.382812 C 24.726562 252.75 23.585938 250.851562 23.148438 248.070312 L 20.816406 258.664062 L 13.96875 299.023438 L 14.519531 274.089844 L 16.15625 247.71875 L 18.277344 244.808594 L 22.082031 222.566406 L 31.070312 213.726562 L 38.679688 249.023438 L 39.917969 299.023438 "/>
</g>
</defs>
<g id="surface1">
<use xlink:href="#surface5" mask="url(#mask0)"/>
<path style=" stroke:none;fill-rule:nonzero;fill:rgb(36.470588%,28.235294%,28.235294%);fill-opacity:1;" d="M 38.59375 295.941406 C 42.40625 351.109375 38.65625 444.445312 37.28125 505.554688 C 35.90625 566.667969 27.9375 505.554688 27.9375 505.554688 L 26.5625 359.816406 L 19.6875 505.554688 L 10.6875 505.554688 C 10.6875 505.554688 10.65625 337.035156 15.9375 295.941406 C 21.21875 254.84375 34.78125 240.769531 38.59375 295.941406 Z M 38.59375 295.941406 "/>
<path style=" stroke:none;fill-rule:nonzero;fill:rgb(100%,82.352941%,82.745098%);fill-opacity:1;" d="M 23.859375 178.863281 L 22.648438 203.277344 L 32.148438 205.648438 L 29.171875 185.355469 L 26.742188 183.757812 L 23.859375 178.863281 "/>
<path style=" stroke:none;fill-rule:nonzero;fill:rgb(100%,74.901961%,75.294118%);fill-opacity:1;" d="M 24.953125 182.375 L 30.125 192.105469 L 29.328125 184.894531 L 27.835938 182.367188 L 24.953125 182.375 "/>
<path style=" stroke:none;fill-rule:nonzero;fill:rgb(100%,82.352941%,82.745098%);fill-opacity:1;" d="M 23.859375 151.605469 L 23.859375 183.765625 C 23.859375 185.15625 24.238281 186.28125 24.707031 186.28125 L 27.296875 186.28125 C 30.230469 186.28125 32.609375 179.234375 32.609375 170.542969 L 32.609375 166.246094 C 32.609375 158.160156 30.394531 151.605469 27.667969 151.605469 L 23.859375 151.605469 "/>
<path style=" stroke:none;fill-rule:nonzero;fill:rgb(100%,100%,100%);fill-opacity:1;" d="M 24.636719 164.320312 L 24.78125 158.929688 C 24.808594 157.121094 25.28125 155.652344 25.890625 155.5 C 26.621094 155.390625 27.585938 154.882812 28.199219 153.121094 C 28.351562 152.707031 28.558594 152.53125 28.761719 152.648438 C 28.964844 152.761719 29.132812 153.160156 29.21875 153.710938 C 29.742188 156.789062 30.8125 161.574219 32.519531 161.042969 C 34.222656 160.511719 34.3125 155.3125 34.3125 155.3125 C 35.050781 150.269531 33.871094 144.503906 32.128906 144.636719 L 31.019531 144.722656 L 30.144531 141.570312 C 28.933594 137.21875 26.722656 138.238281 25.945312 143.5 L 25.671875 145.359375 L 24.265625 145.429688 C 22.335938 145.527344 20.902344 151.160156 21.265625 157.203125 L 21.644531 163.429688 L 22.515625 176.566406 C 22.640625 178.457031 23.019531 180.0625 23.609375 180.480469 L 23.777344 180.550781 L 24.636719 164.320312 "/>
<path style=" stroke:none;fill-rule:nonzero;fill:rgb(100%,82.352941%,82.745098%);fill-opacity:1;" d="M 25.125 164.96875 C 25.125 164.96875 23.757812 158.8125 23.542969 163.886719 C 23.328125 168.960938 24.6875 171.75 24.6875 171.75 "/>
<path style=" stroke:none;fill-rule:nonzero;fill:rgb(100%,90.588235%,85.098039%);fill-opacity:1;" d="M 291.65625 264.160156 C 285.128906 269.304688 278.109375 269.710938 271.949219 265.941406 C 256.539062 256.503906 251.109375 210.054688 243.285156 175.390625 C 236.125 143.648438 218.496094 136.550781 220.945312 88.4375 C 222.148438 64.734375 225.933594 36.523438 233.460938 24.410156 C 239.136719 15.28125 245.082031 20.800781 250.949219 23.882812 C 265.15625 31.339844 267.871094 -12.121094 276.972656 -34.71875 C 283.226562 -50.257812 291.191406 -59.367188 299.257812 -52.214844 C 304.425781 -47.550781 309.019531 -38.492188 312.464844 -26.164062 C 314.382812 -19.355469 315.886719 -11.613281 316.910156 -3.28125 C 319.453125 17.652344 318.683594 41.671875 315.160156 61.214844 C 311.269531 82.746094 305.671875 99.835938 306.371094 126.441406 C 307.15625 156.269531 316.027344 199.679688 309.960938 227.464844 C 307.449219 238.972656 303.957031 247.910156 299.929688 254.460938 L 299.929688 275.742188 Z M 291.65625 264.160156 "/>
<path style=" stroke:none;fill-rule:nonzero;fill:rgb(36.470588%,28.235294%,28.235294%);fill-opacity:1;" d="M 272.96875 50.535156 C 272.34375 45.925781 269.964844 47.8125 268.984375 49.871094 C 266.8125 54.417969 266.023438 62.222656 266.390625 69.753906 C 266.605469 74.21875 267.125 79.28125 266.457031 83.671875 C 266.105469 85.972656 265.222656 87.410156 264.757812 89.632812 C 263.953125 93.449219 263.640625 99.613281 264.730469 103.273438 C 265.847656 107.019531 267.625 106.945312 269.121094 106.347656 C 270.542969 105.777344 272.164062 105.203125 273.128906 101.699219 C 274.96875 95.03125 275.105469 86.835938 275.152344 78.476562 C 275.191406 70.542969 275.117188 61.542969 273.839844 54.359375 C 273.664062 53.359375 273.273438 50.894531 272.96875 50.535156 "/>
<path style=" stroke:none;fill-rule:nonzero;fill:rgb(96.470588%,75.294118%,63.529412%);fill-opacity:1;" d="M 276.625 79.722656 L 276.625 102.082031 L 270.9375 102.082031 L 271.941406 92.964844 L 272.664062 86.4375 L 274.011719 84.148438 L 276.625 79.71875 "/>
<path style=" stroke:none;fill-rule:nonzero;fill:rgb(90.196078%,67.843137%,55.686275%);fill-opacity:1;" d="M 276.625 84.15625 L 271.941406 92.964844 L 272.664062 86.433594 L 274.011719 84.148438 L 276.625 84.15625 "/>
<path style=" stroke:none;fill-rule:nonzero;fill:rgb(96.470588%,75.294118%,63.529412%);fill-opacity:1;" d="M 276.625 55.050781 L 276.625 84.15625 C 276.625 85.414062 276.28125 86.4375 275.855469 86.4375 L 273.515625 86.4375 C 270.859375 86.4375 268.707031 80.058594 268.707031 72.1875 L 268.707031 68.300781 C 268.707031 60.980469 270.707031 55.046875 273.175781 55.050781 L 276.625 55.050781 "/>
<path style=" stroke:none;fill-rule:nonzero;fill:rgb(36.470588%,28.235294%,28.235294%);fill-opacity:1;" d="M 272.054688 55.21875 C 271.34375 55.875 273.414062 63.785156 273.703125 64.734375 C 274.390625 66.984375 275.621094 69.179688 276.644531 69.152344 C 276.488281 69.832031 276.542969 71.441406 276.53125 72.300781 C 276.496094 74.367188 276.441406 76.394531 276.375 78.449219 C 276.195312 84.074219 276.097656 89.726562 276.042969 95.394531 C 275.996094 100.035156 275.671875 104.980469 277.601562 106.179688 C 279.175781 107.152344 280.84375 106.515625 282.402344 107.65625 C 283.160156 108.210938 283.894531 109.121094 284.636719 109.851562 C 285.589844 110.792969 286.960938 110.824219 287.546875 107.761719 C 287.984375 105.476562 287.679688 101.808594 287.214844 99.808594 C 286.367188 96.179688 285.15625 95.445312 283.984375 93.09375 C 281.699219 88.484375 284.457031 78.027344 282.003906 73.722656 C 280.925781 71.835938 280.015625 71.257812 279.371094 67.753906 C 278.734375 64.296875 278.976562 60.117188 278.8125 56.355469 C 278.433594 47.699219 275.675781 44.777344 273.3125 49.210938 C 272.863281 49.984375 272.511719 51.167969 272.308594 52.582031 C 272.1875 53.425781 272.101562 54.3125 272.054688 55.21875 "/>
<path style=" stroke:none;fill-rule:nonzero;fill:rgb(11.372549%,2.352941%,29.803922%);fill-opacity:1;" d="M 268.347656 152.277344 C 268.941406 153.824219 269.703125 152.578125 270.347656 151.820312 C 270.855469 151.21875 271.449219 150.660156 271.851562 149.515625 C 272.226562 148.445312 272.488281 146.953125 272.738281 145.613281 C 273.042969 143.964844 273.246094 141.8125 272.535156 140.882812 C 271.371094 139.359375 269.613281 142.882812 269.035156 145.652344 C 268.785156 146.847656 268.082031 150.609375 268.347656 152.277344 "/>
<path style=" stroke:none;fill-rule:nonzero;fill:rgb(11.372549%,2.352941%,29.803922%);fill-opacity:1;" d="M 272.820312 139.179688 C 272.480469 139.652344 272.175781 138.261719 272.015625 137.425781 C 271.355469 133.941406 271.816406 129.59375 272.75 127.019531 C 274.957031 120.953125 278.953125 121.140625 279.410156 131.664062 C 279.617188 136.460938 279.050781 142.292969 277.53125 144.621094 C 276.574219 146.085938 274.957031 146.664062 274.011719 144.777344 C 273.574219 143.894531 273.367188 140.21875 272.820312 139.179688 "/>
<path style=" stroke:none;fill-rule:nonzero;fill:rgb(100%,82.352941%,82.745098%);fill-opacity:1;" d="M 265.0625 234.589844 C 266.636719 234.949219 268.292969 234.691406 269.523438 236.167969 C 270.15625 236.929688 270.65625 237.644531 270.871094 240.128906 C 271.054688 242.273438 270.476562 245.855469 269.941406 247.421875 C 268.371094 251.996094 267.761719 254.136719 267.328125 259.234375 C 266.894531 264.335938 266.28125 269.785156 264.695312 272.582031 C 264.339844 273.261719 263.925781 273.617188 263.507812 273.605469 C 263.074219 273.539062 262.625 272.824219 262.472656 271.699219 C 262.304688 270.449219 262.535156 269.152344 262.75 268.019531 C 263.390625 264.621094 263.925781 261 264.085938 257.132812 C 264.246094 253.261719 264.074219 251.839844 263.269531 248.449219 C 262.347656 245.171875 260.78125 242.554688 259.042969 240.117188 L 262.597656 234.070312 L 265.0625 234.589844 "/>
<path style=" stroke:none;fill-rule:nonzero;fill:rgb(36.470588%,28.235294%,28.235294%);fill-opacity:1;" d="M 263.425781 191.414062 C 263.425781 191.414062 261.664062 192.414062 260.960938 191.898438 C 255.402344 187.855469 243.574219 169.570312 239.132812 177.546875 C 235.183594 184.644531 236.210938 196.140625 238.722656 205.855469 C 241.1875 215.402344 256.890625 239.546875 256.890625 239.546875 L 262.160156 226.765625 L 260.117188 224.0625 L 260.855469 223.722656 C 262.214844 224.269531 263.59375 224.15625 264.9375 223.378906 L 271.589844 219.550781 L 271.589844 199.042969 L 263.425781 191.414062 "/>
<path style=" stroke:none;fill-rule:nonzero;fill:rgb(36.470588%,28.235294%,28.235294%);fill-opacity:1;" d="M 285.472656 197.539062 C 285.472656 197.539062 287.953125 205.308594 288.355469 219.042969 C 288.492188 223.691406 287.664062 232.28125 286.320312 235.679688 C 283.84375 241.835938 280.648438 244.855469 277.429688 244.078125 L 262.570312 241.90625 L 262.15625 225.320312 C 262.15625 225.320312 268.210938 218.617188 269.898438 217.679688 L 271.585938 217.054688 L 271.585938 199.046875 C 271.585938 199.046875 276.65625 199.863281 279 200.242188 C 281.339844 200.621094 285.46875 197.542969 285.46875 197.542969 "/>
<path style=" stroke:none;fill-rule:nonzero;fill:rgb(9.019608%,15.686275%,18.431373%);fill-opacity:1;" d="M 241.1875 194.253906 C 241.160156 194.3125 240.714844 192.46875 240.03125 190.574219 C 239.351562 188.671875 238.703125 187.476562 238.722656 187.390625 C 238.875 187.574219 239.023438 187.816406 239.160156 188.113281 C 239.496094 188.773438 239.8125 189.519531 240.105469 190.339844 C 240.402344 191.160156 240.671875 192.050781 240.914062 193.003906 C 241.023438 193.382812 241.117188 193.800781 241.1875 194.253906 "/>
<path style=" stroke:none;fill-rule:nonzero;fill:rgb(100%,82.352941%,82.745098%);fill-opacity:1;" d="M 262.15625 225.507812 L 253.210938 228.507812 L 253.71875 242.121094 L 264.027344 242.121094 L 262.15625 225.511719 "/>
<path style=" stroke:none;fill-rule:nonzero;fill:rgb(100%,82.352941%,82.745098%);fill-opacity:1;" d="M 256.261719 242.046875 C 254.890625 242.167969 252.253906 245.710938 251.328125 248.355469 C 250.398438 251.003906 249.753906 254.371094 249.230469 257.855469 C 249.054688 259.015625 248.847656 260.3125 248.417969 260.65625 C 248.03125 260.964844 247.578125 260.335938 247.304688 259.375 C 247.054688 258.40625 246.90625 257.234375 246.878906 256.015625 C 246.6875 250.683594 247.769531 246.0625 248.867188 242.0625 C 249.960938 238.0625 250.246094 236.332031 250.535156 230 C 250.632812 227.832031 251.242188 224.382812 251.917969 223.554688 C 252.699219 222.589844 253.183594 223.335938 253.757812 224.363281 L 255.773438 227.765625 "/>
<path style=" stroke:none;fill-rule:nonzero;fill:rgb(98.431373%,33.333333%,34.117647%);fill-opacity:1;" d="M 285.792969 197.539062 L 282.148438 161.519531 L 283.679688 105.269531 C 281.921875 101.300781 278.210938 97.699219 274.277344 97.234375 L 271.542969 97.234375 L 262.097656 107.382812 L 262.523438 143.402344 L 264.875 173.203125 L 263.425781 191.414062 C 269.355469 204.046875 277.234375 205.425781 285.792969 197.539062 "/>
<path style=" stroke:none;fill-rule:nonzero;fill:rgb(98.431373%,33.333333%,34.117647%);fill-opacity:1;" d="M 280.300781 137.746094 C 280.300781 137.746094 287.390625 138.824219 287.390625 137.085938 C 287.390625 133.53125 287.019531 123.433594 286.003906 115.578125 C 285.238281 109.632812 283.90625 105.257812 283.199219 104.359375 C 281.554688 102.273438 280.300781 137.746094 280.300781 137.746094 "/>
<path style=" stroke:none;fill-rule:nonzero;fill:rgb(98.431373%,33.333333%,34.117647%);fill-opacity:1;" d="M 262.222656 107.617188 L 262.742188 145.363281 L 260.460938 152.945312 L 256.257812 136.101562 C 256.257812 136.101562 256.742188 133.679688 258.410156 121.9375 C 259.820312 112.027344 261.066406 109.28125 261.066406 109.28125 "/>
<use xlink:href="#surface8" mask="url(#mask1)"/>
<path style=" stroke:none;fill-rule:nonzero;fill:rgb(65.490196%,66.27451%,65.882353%);fill-opacity:1;" d="M 262.695312 145.628906 L 262.671875 145.597656 L 262.691406 145.535156 L 262.695312 145.625 "/>
<path style=" stroke:none;fill-rule:nonzero;fill:rgb(72.941176%,17.254902%,25.882353%);fill-opacity:1;" d="M 262.789062 145.722656 L 262.699219 145.628906 L 262.691406 145.535156 L 262.742188 145.363281 L 262.710938 144.644531 C 262.734375 145.003906 262.761719 145.363281 262.789062 145.726562 "/>
<path style=" stroke:none;fill-rule:nonzero;fill:rgb(72.941176%,17.254902%,25.882353%);fill-opacity:1;" d="M 262.671875 145.601562 C 262.636719 145.5625 262.597656 145.527344 262.5625 145.492188 L 261.933594 144.273438 C 262.097656 143.511719 262.300781 142.835938 262.539062 142.265625 L 262.710938 144.644531 L 262.742188 145.363281 L 262.691406 145.535156 L 262.671875 145.601562 "/>
<path style=" stroke:none;fill-rule:nonzero;fill:rgb(96.470588%,75.294118%,63.529412%);fill-opacity:1;" d="M 250.859375 82.410156 L 250.3125 82.410156 C 249.851562 82.410156 249.429688 83.203125 249.234375 84.445312 C 249.058594 85.554688 249.085938 86.847656 249.3125 87.875 L 250.160156 91.753906 C 250.160156 91.753906 249.320312 93.105469 249.554688 95.816406 C 249.554688 95.816406 249.003906 96.8125 249.292969 100.160156 C 249.292969 100.160156 248.925781 102.960938 249.371094 104.90625 C 249.816406 106.851562 251.238281 114.324219 251.238281 114.324219 L 251.238281 122.574219 L 255.015625 121.285156 L 255.015625 111.757812 C 255.277344 110.429688 255.46875 108.984375 255.570312 107.476562 C 255.730469 105.0625 255.125 95.8125 255.125 95.8125 L 253.390625 89.878906 L 251.445312 87.625 C 251.320312 88.246094 251.277344 88.988281 251.324219 89.699219 C 251.335938 89.84375 251.351562 89.980469 251.367188 90.117188 L 251.078125 89.726562 L 250.429688 86.222656 L 250.429688 85.757812 C 250.429688 85.757812 252.027344 84.695312 251.414062 83.019531 C 251.261719 82.617188 251.0625 82.398438 250.859375 82.410156 "/>
<path style=" stroke:none;fill-rule:nonzero;fill:rgb(9.019608%,15.686275%,18.431373%);fill-opacity:1;" d="M 251.839844 91.210938 C 251.835938 91.25 251.753906 91.21875 251.644531 91.03125 C 251.5 90.773438 251.386719 90.390625 251.320312 89.933594 C 251.253906 89.476562 251.234375 88.96875 251.269531 88.480469 C 251.296875 88.113281 251.34375 87.917969 251.355469 87.9375 C 251.386719 87.953125 251.277344 88.839844 251.421875 89.804688 C 251.5625 90.769531 251.855469 91.132812 251.839844 91.210938 "/>
<path style=" stroke:none;fill-rule:nonzero;fill:rgb(36.470588%,28.235294%,28.235294%);fill-opacity:1;" d="M 253.867188 104.558594 C 254.011719 105.332031 254.117188 106.175781 254.171875 107.050781 C 254.234375 107.898438 254.25 108.769531 254.226562 109.632812 C 254.148438 111.039062 253.929688 115.023438 254.238281 115.960938 C 254.542969 116.898438 256.621094 121.933594 256.621094 121.933594 L 257.925781 121.933594 C 257.925781 121.933594 255.277344 117.089844 254.917969 113.832031 C 254.5625 110.570312 254.90625 108.832031 254.726562 106.796875 C 254.535156 104.648438 253.835938 100.261719 253.835938 100.261719 L 250.808594 85.496094 L 250.308594 85.84375 L 253.863281 104.558594 "/>
<path style=" stroke:none;fill-rule:nonzero;fill:rgb(96.470588%,75.294118%,63.529412%);fill-opacity:1;" d="M 250.066406 92.269531 C 250.417969 91.175781 250.921875 90.636719 251.425781 90.816406 C 251.925781 91.007812 252.398438 91.609375 252.785156 92.558594 C 253.171875 93.503906 253.527344 94.546875 253.851562 95.679688 C 254.066406 96.378906 254.289062 97.121094 254.351562 98.046875 C 254.414062 98.972656 254.246094 100.105469 253.933594 100.246094 C 253.628906 100.382812 253.375 99.59375 253.164062 98.929688 C 252.875 98.019531 252.546875 97.21875 252.191406 96.535156 C 251.980469 96.082031 251.734375 95.773438 251.476562 95.636719 C 251.160156 95.589844 250.84375 95.757812 250.550781 96.128906 "/>
<path style=" stroke:none;fill-rule:nonzero;fill:rgb(96.470588%,75.294118%,63.529412%);fill-opacity:1;" d="M 249.96875 99.78125 C 250.632812 100.253906 251.382812 99.785156 251.96875 100.816406 C 252.15625 101.1875 252.332031 101.632812 252.484375 102.136719 L 253.398438 104.9375 C 253.566406 105.449219 253.796875 106.007812 254.023438 105.675781 C 254.128906 105.507812 254.203125 105.199219 254.21875 104.847656 C 254.234375 104.230469 254.175781 103.613281 254.058594 103.097656 C 253.84375 101.902344 253.605469 100.742188 253.34375 99.625 C 253.210938 99.050781 253.0625 98.515625 252.890625 98.03125 C 252.640625 97.308594 252.261719 96.324219 251.96875 96.058594 C 251.496094 95.625 251.144531 95.402344 250.667969 96.058594 "/>
<path style=" stroke:none;fill-rule:nonzero;fill:rgb(96.470588%,75.294118%,63.529412%);fill-opacity:1;" d="M 255.914062 136.25 L 255.015625 120.171875 L 251.238281 122.234375 C 251.238281 122.234375 251.433594 144.152344 251.613281 149.546875 C 251.90625 158.28125 253.363281 167.542969 255.597656 165.898438 C 257.679688 164.367188 260.132812 151.488281 260.132812 151.488281 L 255.914062 136.25 "/>
<path style=" stroke:none;fill-rule:nonzero;fill:rgb(98.431373%,33.333333%,34.117647%);fill-opacity:1;" d="M 256.160156 120.699219 C 256.066406 119.722656 256.15625 118.671875 256.398438 117.953125 C 256.644531 117.253906 256.960938 116.835938 257.300781 116.773438 C 257.597656 116.679688 257.894531 116.839844 258.160156 117.234375 C 258.425781 117.640625 258.625 118.34375 258.710938 119.1875 C 258.804688 120.273438 258.703125 121.421875 258.445312 122.238281 C 258.1875 123.035156 257.835938 123.511719 257.460938 123.574219 C 257.148438 123.679688 256.835938 123.421875 256.585938 122.855469 C 256.347656 122.261719 256.15625 121.425781 256.160156 120.699219 "/>
<path style=" stroke:none;fill-rule:nonzero;fill:rgb(27.058824%,72.54902%,58.431373%);fill-opacity:1;" d="M 253.023438 124.113281 C 251.3125 125.449219 249.433594 120.144531 248.917969 116.53125 C 248.84375 116.167969 248.835938 115.722656 248.894531 115.339844 C 249 115.015625 249.152344 114.871094 249.304688 114.960938 C 250.171875 115.113281 251 116.082031 251.671875 117.722656 C 252.339844 119.375 252.8125 121.613281 253.023438 124.113281 "/>
<path style=" stroke:none;fill-rule:nonzero;fill:rgb(98.431373%,33.333333%,34.117647%);fill-opacity:1;" d="M 251.554688 122.464844 C 251.460938 121.488281 251.550781 120.4375 251.792969 119.71875 C 252.039062 119.019531 252.355469 118.601562 252.695312 118.539062 C 252.988281 118.445312 253.289062 118.605469 253.554688 119.003906 C 253.816406 119.410156 254.019531 120.113281 254.105469 120.957031 C 254.199219 122.039062 254.097656 123.1875 253.839844 124.003906 C 253.582031 124.804688 253.230469 125.28125 252.855469 125.34375 C 252.542969 125.445312 252.230469 125.1875 251.980469 124.621094 C 251.742188 124.03125 251.546875 123.191406 251.554688 122.464844 "/>
<path style=" stroke:none;fill-rule:nonzero;fill:rgb(27.058824%,72.54902%,58.431373%);fill-opacity:1;" d="M 258.074219 121.730469 C 258.03125 119.785156 258.421875 117.304688 258.761719 115.644531 C 259.109375 113.96875 259.621094 112.652344 260.226562 111.863281 C 260.265625 111.792969 260.316406 111.773438 260.359375 111.800781 C 260.402344 111.867188 260.4375 111.984375 260.449219 112.125 C 260.777344 114.375 260.683594 116.96875 260.203125 118.964844 C 259.703125 120.925781 258.898438 121.972656 258.074219 121.730469 "/>
<path style=" stroke:none;fill-rule:nonzero;fill:rgb(27.058824%,72.54902%,58.431373%);fill-opacity:1;" d="M 263.117188 117.355469 C 263.4375 116.25 263.71875 115.0625 263.960938 113.800781 C 264.207031 112.53125 264.328125 111.089844 264.3125 109.628906 C 264.316406 109.410156 264.285156 109.195312 264.234375 109.046875 C 264.167969 108.949219 264.09375 108.9375 264.027344 109.011719 C 263.113281 109.652344 262.289062 111.121094 261.667969 113.214844 C 261.050781 115.316406 260.671875 117.9375 260.582031 120.707031 L 260.539062 121.421875 C 261.316406 122.746094 262.234375 123.128906 263.105469 122.484375 C 263.808594 122.089844 264.480469 121.285156 265.078125 120.113281 C 265.679688 118.921875 266.105469 117.101562 266.269531 115.015625 C 265.152344 114.371094 264 115.230469 263.117188 117.355469 "/>
<path style=" stroke:none;fill-rule:nonzero;fill:rgb(27.058824%,72.54902%,58.431373%);fill-opacity:1;" d="M 254.796875 115.402344 C 253.953125 114.066406 252.957031 113.839844 252 114.050781 C 252.183594 116.847656 252.730469 119.320312 253.523438 120.925781 C 254.320312 122.507812 255.300781 123.089844 256.242188 122.542969 L 256.265625 122.207031 C 256.296875 119.371094 255.640625 116.742188 254.796875 115.40625 "/>
<path style=" stroke:none;fill-rule:nonzero;fill:rgb(100%,100%,100%);fill-opacity:1;" d="M 250.429688 122.4375 C 250.914062 127.046875 251.605469 131.445312 252.480469 135.515625 C 253.085938 138.242188 253.871094 140.914062 254.804688 142.605469 C 258.609375 149.492188 264.324219 140.324219 264.8125 136.726562 C 265.296875 133.128906 266.148438 118.480469 266.148438 118.480469 L 250.429688 122.441406 "/>
<path style=" stroke:none;fill-rule:nonzero;fill:rgb(100%,100%,100%);fill-opacity:1;" d="M 254.28125 139.375 C 254.214844 139.242188 254.15625 139.085938 254.105469 138.910156 C 253.992188 138.59375 253.839844 138.121094 253.65625 137.519531 C 253.179688 135.949219 252.746094 134.277344 252.351562 132.515625 C 251.957031 130.753906 251.609375 128.910156 251.304688 127 C 251.191406 126.265625 251.105469 125.664062 251.050781 125.242188 C 251.015625 125.027344 250.992188 124.804688 250.976562 124.570312 C 251.019531 124.765625 251.058594 124.972656 251.089844 125.191406 C 251.15625 125.597656 251.253906 126.183594 251.375 126.898438 C 251.695312 128.769531 252.054688 130.585938 252.441406 132.335938 C 252.835938 134.082031 253.257812 135.765625 253.714844 137.371094 C 253.890625 137.988281 254.035156 138.480469 254.132812 138.820312 C 254.191406 138.988281 254.238281 139.171875 254.28125 139.371094 "/>
<path style=" stroke:none;fill-rule:nonzero;fill:rgb(96.470588%,75.294118%,63.529412%);fill-opacity:1;" d="M 279.90625 138.078125 L 278.855469 154.167969 L 268.066406 137.210938 L 265.644531 144.78125 C 265.644531 144.78125 275.917969 172.617188 278.070312 177.707031 C 280.203125 182.742188 283.152344 176.917969 284.011719 167.480469 C 284.867188 158.039062 286.003906 145.835938 286.328125 137.914062 L 279.90625 138.078125 "/>
<path style=" stroke:none;fill-rule:nonzero;fill:rgb(96.470588%,75.294118%,63.529412%);fill-opacity:1;" d="M 269 139.164062 C 269 139.164062 265.878906 132.15625 264.773438 132.867188 C 264.441406 133.0625 264.121094 133.367188 263.816406 133.78125 C 263.453125 134.3125 263.050781 134.597656 262.644531 134.613281 C 262.238281 134.617188 261.71875 134.605469 261.21875 134.539062 C 260.261719 134.410156 259.972656 135.160156 259.886719 136.25 C 259.851562 136.75 259.886719 137.273438 259.988281 137.6875 C 260.09375 138.097656 260.25 138.359375 260.421875 138.402344 C 261.007812 138.539062 261.894531 138.800781 262.265625 139.160156 C 262.84375 139.722656 262.167969 139.367188 261.445312 140.757812 C 260.722656 142.148438 257.78125 142.4375 257.78125 142.4375 L 256.183594 138.808594 C 255.988281 138.367188 255.722656 138.367188 255.527344 138.808594 C 255.335938 139.246094 255.265625 140.015625 255.359375 140.683594 L 255.371094 140.757812 L 255.226562 140.320312 C 255.074219 139.855469 254.828125 139.785156 254.648438 140.148438 C 254.46875 140.515625 254.402344 141.214844 254.492188 141.804688 L 254.503906 141.863281 L 255.804688 145.578125 L 257.78125 148.007812 L 261.207031 147.007812 C 261.207031 147.007812 263.710938 144.292969 264.195312 143.863281 C 264.675781 143.433594 266.269531 144.78125 267.492188 148.828125 L 269 139.160156 "/>
<path style=" stroke:none;fill-rule:nonzero;fill:rgb(100%,100%,100%);fill-opacity:1;" d="M 217.367188 299 C 187.636719 266.417969 210.542969 130.816406 237.636719 163.125 C 246.480469 173.664062 248.175781 205.863281 256.226562 217.0625 C 261.089844 223.828125 265.929688 214.6875 270.835938 213.277344 C 299.019531 205.183594 295.019531 346.0625 268.25 345.132812 C 260.203125 344.851562 255.558594 332.199219 254.238281 309.375 C 253.597656 298.308594 255.132812 283.949219 250.28125 280.714844 C 245.351562 277.425781 238.425781 292.777344 233.625 296.65625 C 230.863281 298.886719 219.0625 306.242188 217.367188 299 "/>
<path style=" stroke:none;fill-rule:nonzero;fill:rgb(100%,100%,100%);fill-opacity:1;" d="M 283.800781 223.550781 C 283.800781 223.550781 299.136719 254.042969 302.300781 278.609375 C 305.46875 303.179688 279.300781 289.847656 279.300781 289.847656 L 270.886719 236.882812 Z M 283.800781 223.550781 "/>
<path style=" stroke:none;fill-rule:nonzero;fill:rgb(98.431373%,33.333333%,34.117647%);fill-opacity:1;" d="M 260.28125 111.808594 C 260.28125 111.808594 261.226562 103.335938 269.664062 98.199219 C 278.101562 93.066406 262.175781 110.097656 262.175781 110.097656 Z M 260.28125 111.808594 "/>
<path style=" stroke:none;fill-rule:nonzero;fill:rgb(36.470588%,28.235294%,28.235294%);fill-opacity:1;" d="M 270.976562 50.285156 C 270.71875 50.644531 270.488281 49.59375 270.367188 48.960938 C 269.867188 46.328125 270.214844 43.042969 270.921875 41.097656 C 272.585938 36.515625 275.605469 36.652344 275.953125 44.605469 C 276.109375 48.230469 275.679688 52.640625 274.53125 54.398438 C 273.808594 55.503906 272.585938 55.941406 271.875 54.515625 C 271.542969 53.847656 271.386719 51.070312 270.976562 50.285156 "/>
<path style=" stroke:none;fill-rule:nonzero;fill:rgb(36.470588%,28.235294%,28.235294%);fill-opacity:1;" d="M 270.496094 200.855469 C 270.496094 200.855469 271.042969 201.195312 273.367188 202.273438 C 275.691406 203.355469 273.367188 202.679688 273.367188 202.679688 L 272.457031 212.941406 C 272.457031 212.941406 271.292969 212.265625 270.359375 213.414062 C 269.425781 214.558594 270.496094 200.855469 270.496094 200.855469 Z M 270.496094 200.855469 "/>
<path style=" stroke:none;fill-rule:nonzero;fill:rgb(100%,82.352941%,82.745098%);fill-opacity:1;" d="M 13.980469 223.859375 C 15.691406 225.214844 16.703125 230.417969 16.246094 235.480469 L 12.652344 275.285156 C 12.195312 280.347656 10.4375 283.355469 8.730469 282 C 7.023438 280.644531 6.007812 275.441406 6.464844 270.378906 L 10.058594 230.574219 C 10.515625 225.511719 12.273438 222.503906 13.980469 223.859375 Z M 13.980469 223.859375 "/>
<path style=" stroke:none;fill-rule:nonzero;fill:rgb(100%,82.352941%,82.745098%);fill-opacity:1;" d="M 45.085938 282.457031 C 43.375 283.808594 41.621094 280.804688 41.164062 275.738281 L 37.566406 235.9375 C 37.109375 230.875 38.125 225.671875 39.835938 224.316406 C 41.542969 222.960938 43.300781 225.96875 43.757812 231.03125 L 47.351562 270.832031 C 47.808594 275.898438 46.792969 281.101562 45.085938 282.457031 Z M 45.085938 282.457031 "/>
<path style=" stroke:none;fill-rule:nonzero;fill:rgb(27.058824%,72.54902%,58.431373%);fill-opacity:1;" d="M 26.941406 299.023438 L 13.96875 299.023438 L 15.207031 249.023438 L 15.109375 245.6875 L 8.113281 244.207031 L 10.59375 217.65625 C 10.921875 212.238281 12.210938 207.765625 13.96875 205.960938 L 13.96875 205.964844 L 13.96875 205.960938 L 22.921875 197.691406 C 23.964844 200.992188 25.417969 202.863281 26.941406 202.863281 C 28.464844 202.863281 29.921875 200.992188 30.960938 197.691406 L 39.917969 205.960938 L 39.917969 205.972656 C 41.664062 207.785156 42.949219 212.25 43.273438 217.65625 L 45.757812 244.207031 L 38.773438 245.683594 L 38.679688 249.023438 L 39.917969 299.023438 Z M 26.941406 299.023438 "/>
<path style=" stroke:none;fill-rule:nonzero;fill:rgb(57.647059%,72.941176%,72.156863%);fill-opacity:1;" d="M 38.679688 249.019531 L 38.972656 238.847656 L 39.164062 240.207031 L 38.679688 249.019531 "/>
<use xlink:href="#surface11" mask="url(#mask2)"/>
<path style=" stroke:none;fill-rule:nonzero;fill:rgb(25.882353%,69.803922%,56.078431%);fill-opacity:1;" d="M 14.519531 274.089844 L 15.203125 249.019531 L 16.15625 247.71875 L 14.519531 274.089844 "/>
<path style=" stroke:none;fill-rule:nonzero;fill:rgb(27.058824%,72.54902%,58.431373%);fill-opacity:1;" d="M 39.546875 248.472656 L 39.324219 246.601562 L 36.390625 221.769531 L 37.121094 218.050781 L 39.917969 240.347656 L 39.546875 248.472656 "/>
<path style=" stroke:none;fill-rule:nonzero;fill:rgb(25.882353%,69.803922%,56.078431%);fill-opacity:1;" d="M 16.683594 224.070312 L 14.285156 245.480469 L 15.164062 245.664062 "/>
<path style=" stroke:none;fill-rule:nonzero;fill:rgb(25.882353%,69.803922%,56.078431%);fill-opacity:1;" d="M 38.035156 224.070312 L 40.441406 245.222656 L 39.414062 245.488281 "/>
<path style=" stroke:none;fill-rule:nonzero;fill:rgb(100%,75.686275%,61.568627%);fill-opacity:1;" d="M 34.625 225.144531 C 35.113281 229.285156 33.195312 235.050781 30.339844 238.015625 C 27.484375 240.980469 24.773438 240.03125 24.28125 235.890625 C 23.792969 231.75 25.363281 223.050781 28.21875 220.082031 C 31.074219 217.117188 34.136719 221 34.625 225.144531 "/>
<path style=" stroke:none;fill-rule:nonzero;fill:rgb(14.901961%,59.607843%,45.490196%);fill-opacity:1;" d="M 34.652344 220.890625 C 34.570312 221.800781 34.207031 222.140625 34.03125 222.910156 C 33.695312 224.386719 34.144531 226.785156 33.777344 228.179688 C 33.542969 229.058594 33.105469 229.042969 32.734375 228.882812 C 32.363281 228.71875 31.949219 228.503906 31.648438 229.152344 C 31.398438 229.6875 31.300781 230.65625 31.1875 231.523438 C 31.074219 232.390625 30.886719 233.304688 30.582031 233.449219 C 30.164062 233.652344 29.804688 232.273438 29.378906 232.242188 C 28.964844 232.210938 28.679688 233.402344 28.480469 234.496094 C 28.28125 235.585938 28.042969 236.832031 27.636719 237.015625 C 27.226562 237.203125 26.855469 236.195312 26.5625 235.242188 C 26.273438 234.289062 25.929688 233.226562 25.511719 233.261719 C 25.105469 233.296875 24.78125 234.390625 24.375 234.433594 C 23.996094 234.476562 23.644531 233.53125 23.535156 232.40625 C 23.441406 231.269531 23.511719 230.070312 23.726562 229.089844 C 23.9375 228.152344 24.207031 227.335938 24.515625 226.6875 C 25.789062 223.792969 27.277344 221.875 28.808594 220.542969 C 30.089844 219.476562 31.390625 218.648438 32.707031 218.054688 C 33.210938 217.8125 34.914062 218.039062 34.652344 220.890625 "/>
<path style=" stroke:none;fill-rule:nonzero;fill:rgb(98.431373%,33.333333%,34.117647%);fill-opacity:1;" d="M 33.816406 218.300781 C 34.304688 222.445312 32.386719 228.207031 29.53125 231.171875 C 26.675781 234.136719 23.960938 233.1875 23.472656 229.046875 C 22.980469 224.902344 24.550781 216.207031 27.410156 213.242188 C 30.265625 210.273438 33.324219 214.160156 33.816406 218.300781 "/>
<path style=" stroke:none;fill-rule:nonzero;fill:rgb(14.901961%,59.607843%,45.490196%);fill-opacity:1;" d="M 22.886719 227.257812 C 23.144531 227.8125 23.5 227.410156 23.796875 227.6875 C 24.371094 228.214844 24.527344 230.921875 25.109375 231.328125 C 25.476562 231.582031 25.8125 230.765625 26.070312 229.949219 C 26.324219 229.132812 26.601562 228.199219 26.976562 228.152344 C 27.28125 228.109375 27.5625 228.6875 27.835938 229.148438 C 28.109375 229.613281 28.445312 229.984375 28.710938 229.535156 C 29.082031 228.917969 29.074219 227.175781 29.398438 226.363281 C 29.714844 225.574219 30.191406 225.976562 30.574219 226.460938 C 30.960938 226.945312 31.410156 227.480469 31.765625 226.871094 C 32.125 226.257812 32.203125 224.78125 32.230469 223.496094 C 32.257812 222.210938 32.300781 220.75 32.632812 220.003906 C 32.960938 219.28125 33.445312 219.53125 33.769531 218.816406 C 34.074219 218.152344 34.148438 216.761719 33.996094 215.679688 C 33.832031 214.617188 33.523438 213.808594 33.148438 213.441406 C 32.789062 213.101562 32.40625 212.960938 32.027344 213.03125 C 30.421875 213.121094 28.855469 214.378906 27.378906 216.171875 C 26.152344 217.710938 24.960938 219.46875 23.808594 221.445312 C 23.363281 222.1875 22.082031 225.511719 22.886719 227.257812 "/>
<path style=" stroke:none;fill-rule:nonzero;fill:rgb(100%,75.686275%,61.568627%);fill-opacity:1;" d="M 33.042969 211.78125 C 33.535156 215.921875 31.617188 221.6875 28.757812 224.652344 C 25.902344 227.617188 23.191406 226.667969 22.699219 222.527344 C 22.210938 218.382812 23.78125 209.6875 26.636719 206.71875 C 29.496094 203.753906 32.554688 207.636719 33.042969 211.78125 "/>
<path style=" stroke:none;fill-rule:nonzero;fill:rgb(98.823529%,81.568627%,48.235294%);fill-opacity:1;" d="M 27.933594 208.582031 C 27.964844 208.851562 27.863281 209.203125 27.707031 209.367188 C 27.550781 209.527344 27.402344 209.4375 27.367188 209.167969 C 27.335938 208.898438 27.4375 208.546875 27.59375 208.386719 C 27.746094 208.222656 27.902344 208.3125 27.933594 208.582031 "/>
<path style=" stroke:none;fill-rule:nonzero;fill:rgb(98.823529%,81.568627%,48.235294%);fill-opacity:1;" d="M 28.863281 211.09375 C 28.894531 211.363281 28.792969 211.714844 28.636719 211.875 C 28.484375 212.039062 28.332031 211.949219 28.296875 211.679688 C 28.265625 211.410156 28.367188 211.058594 28.523438 210.898438 C 28.679688 210.734375 28.832031 210.824219 28.863281 211.09375 "/>
<path style=" stroke:none;fill-rule:nonzero;fill:rgb(98.823529%,81.568627%,48.235294%);fill-opacity:1;" d="M 26.976562 212.3125 C 27.007812 212.582031 26.90625 212.933594 26.75 213.097656 C 26.59375 213.257812 26.441406 213.167969 26.410156 212.898438 C 26.378906 212.628906 26.480469 212.28125 26.636719 212.117188 C 26.792969 211.957031 26.945312 212.042969 26.976562 212.3125 "/>
<path style=" stroke:none;fill-rule:nonzero;fill:rgb(98.823529%,81.568627%,48.235294%);fill-opacity:1;" d="M 29.761719 208.320312 C 29.792969 208.589844 29.691406 208.941406 29.539062 209.101562 C 29.382812 209.265625 29.230469 209.175781 29.199219 208.90625 C 29.164062 208.636719 29.265625 208.285156 29.421875 208.125 C 29.578125 207.960938 29.730469 208.050781 29.761719 208.320312 "/>
<path style=" stroke:none;fill-rule:nonzero;fill:rgb(100%,82.352941%,82.745098%);fill-opacity:1;" d="M 19.878906 230.960938 L 17.949219 237.132812 L 20.503906 246.273438 L 22.660156 237.621094 C 23.503906 236.6875 23.675781 234.082031 23.902344 231.496094 L 24.546875 224.101562 L 20.957031 217.339844 L 19.878906 230.957031 "/>
<path style=" stroke:none;fill-rule:nonzero;fill:rgb(100%,82.352941%,82.745098%);fill-opacity:1;" d="M 23.8125 213.097656 C 22.917969 214.214844 22.1875 216.273438 21.769531 218.878906 L 22.046875 219.398438 C 22.347656 217.695312 22.835938 216.34375 23.429688 215.558594 C 24.265625 214.503906 25.125 213.660156 26.007812 213.035156 C 26.007812 212.734375 25.980469 212.441406 25.925781 212.1875 C 25.207031 211.984375 24.484375 212.296875 23.8125 213.09375 "/>
<path style=" stroke:none;fill-rule:nonzero;fill:rgb(100%,82.352941%,82.745098%);fill-opacity:1;" d="M 23.8125 213.097656 C 24.484375 212.296875 25.210938 211.984375 25.929688 212.191406 C 25.859375 211.855469 25.757812 211.585938 25.640625 211.410156 C 25.425781 211.136719 25.191406 211.019531 24.957031 211.066406 C 23.410156 211.136719 21.820312 213.542969 20.957031 217.347656 L 21.769531 218.878906 C 22.1875 216.273438 22.917969 214.214844 23.8125 213.097656 "/>
<path style=" stroke:none;fill-rule:nonzero;fill:rgb(100%,82.352941%,82.745098%);fill-opacity:1;" d="M 24.414062 215.097656 C 25.148438 214.054688 25.984375 213.800781 26.777344 214.378906 C 26.824219 214.066406 26.832031 213.71875 26.792969 213.398438 C 26.734375 212.972656 26.613281 212.644531 26.46875 212.492188 C 26.320312 212.34375 26.167969 212.273438 26.015625 212.28125 C 24.375 212.15625 22.652344 214.785156 21.769531 218.878906 L 22.6875 220.601562 C 23.011719 218.199219 23.628906 216.242188 24.414062 215.097656 "/>
<path style=" stroke:none;fill-rule:nonzero;fill:rgb(100%,82.352941%,82.745098%);fill-opacity:1;" d="M 24.414062 215.097656 C 23.628906 216.242188 23.011719 218.199219 22.6875 220.601562 L 22.910156 221.027344 C 23.632812 218.472656 24.625 216.714844 25.722656 216.039062 C 25.988281 215.949219 26.246094 215.730469 26.488281 215.382812 C 26.617188 215.148438 26.71875 214.796875 26.777344 214.378906 C 25.984375 213.800781 25.148438 214.054688 24.414062 215.101562 "/>
<path style=" stroke:none;fill-rule:nonzero;fill:rgb(100%,82.352941%,82.745098%);fill-opacity:1;" d="M 25.082031 217.253906 C 25.738281 216.5 26.464844 216.484375 27.125 217.21875 C 27.164062 216.785156 27.140625 216.320312 27.058594 215.945312 C 26.921875 215.433594 26.730469 215.074219 26.519531 214.925781 C 25.8125 214.308594 25.035156 214.84375 24.394531 215.925781 C 23.753906 217.007812 23.183594 218.996094 22.683594 220.601562 L 23.511719 222.152344 C 23.78125 219.945312 24.351562 218.171875 25.082031 217.253906 "/>
<path style=" stroke:none;fill-rule:nonzero;fill:rgb(100%,82.352941%,82.745098%);fill-opacity:1;" d="M 25.082031 217.253906 C 24.351562 218.171875 23.78125 219.945312 23.507812 222.152344 L 23.796875 222.695312 C 24.351562 219.878906 25.359375 218.121094 26.460938 218.050781 C 26.65625 218.050781 26.875 218.085938 27.019531 217.707031 C 27.070312 217.574219 27.105469 217.40625 27.125 217.21875 C 26.464844 216.484375 25.738281 216.496094 25.082031 217.253906 "/>
<path style=" stroke:none;fill-rule:nonzero;fill:rgb(100%,82.352941%,82.745098%);fill-opacity:1;" d="M 24.546875 224.105469 C 24.808594 222.132812 25.390625 220.691406 26.09375 220.269531 C 26.261719 220.21875 26.425781 220.121094 26.585938 219.976562 C 26.746094 219.824219 26.871094 219.425781 26.90625 218.933594 C 26.914062 218.425781 26.820312 217.949219 26.664062 217.722656 C 26.511719 217.507812 26.34375 217.414062 26.175781 217.445312 C 25.128906 217.460938 24.035156 219.464844 23.511719 222.152344 L 24.546875 224.105469 "/>
<path style=" stroke:none;fill-rule:nonzero;fill:rgb(100%,82.352941%,82.745098%);fill-opacity:1;" d="M 8.8125 281.257812 C 7.90625 279.085938 7.769531 275.148438 8.5 272.46875 L 17.253906 240.445312 C 17.984375 237.765625 19.3125 237.351562 20.21875 239.523438 C 21.125 241.695312 21.136719 245.226562 20.402344 247.90625 L 11.78125 280.335938 C 11.046875 283.015625 9.71875 283.429688 8.8125 281.257812 Z M 8.8125 281.257812 "/>
<path style=" stroke:none;fill-rule:nonzero;fill:rgb(100%,82.352941%,82.745098%);fill-opacity:1;" d="M 19.835938 232.195312 L 13.835938 250.714844 L 17.636719 251.71875 L 22.851562 233.253906 Z M 19.835938 232.195312 "/>
<path style=" stroke:none;fill-rule:nonzero;fill:rgb(100%,82.352941%,82.745098%);fill-opacity:1;" d="M 20.929688 218.644531 L 22.417969 225.839844 L 24.511719 225.359375 L 23.53125 223.421875 L 22.652344 221.8125 L 21.746094 220.070312 L 21.125 218.644531 "/>
<path style=" stroke:none;fill-rule:nonzero;fill:rgb(100%,82.352941%,82.745098%);fill-opacity:1;" d="M 36.898438 234.308594 L 38.480469 241.300781 L 35.472656 249.140625 L 33.800781 239.597656 C 33.019531 238.28125 32.984375 235.628906 32.898438 232.972656 L 32.648438 225.367188 L 36.550781 220.359375 L 36.898438 234.308594 "/>
<path style=" stroke:none;fill-rule:nonzero;fill:rgb(100%,82.352941%,82.745098%);fill-opacity:1;" d="M 33.960938 214.914062 C 34.789062 216.4375 35.398438 218.808594 35.675781 221.574219 L 35.375 221.960938 C 35.164062 220.136719 34.753906 218.578125 34.210938 217.523438 C 33.441406 216.101562 32.636719 214.867188 31.796875 213.839844 C 31.8125 213.542969 31.855469 213.265625 31.921875 213.039062 C 32.644531 213.171875 33.34375 213.816406 33.960938 214.914062 "/>
<path style=" stroke:none;fill-rule:nonzero;fill:rgb(100%,82.352941%,82.745098%);fill-opacity:1;" d="M 33.960938 214.917969 C 33.339844 213.816406 32.640625 213.175781 31.917969 213.042969 C 32.007812 212.746094 32.121094 212.523438 32.246094 212.40625 C 32.472656 212.234375 32.710938 212.226562 32.9375 212.382812 C 34.460938 213.167969 35.90625 216.285156 36.558594 220.4375 L 35.671875 221.574219 C 35.398438 218.808594 34.789062 216.4375 33.960938 214.917969 "/>
<path style=" stroke:none;fill-rule:nonzero;fill:rgb(100%,82.352941%,82.745098%);fill-opacity:1;" d="M 33.265625 216.613281 C 32.59375 215.242188 31.777344 214.601562 30.964844 214.804688 C 30.9375 214.476562 30.949219 214.132812 31.003906 213.832031 C 31.085938 213.441406 31.21875 213.167969 31.371094 213.085938 C 31.523438 213.007812 31.679688 213.007812 31.832031 213.085938 C 33.457031 213.726562 35.019531 217.117188 35.675781 221.570312 L 34.679688 222.851562 C 34.484375 220.324219 33.980469 218.105469 33.265625 216.613281 "/>
<path style=" stroke:none;fill-rule:nonzero;fill:rgb(100%,82.352941%,82.745098%);fill-opacity:1;" d="M 33.265625 216.613281 C 33.980469 218.105469 34.484375 220.324219 34.683594 222.847656 L 34.4375 223.164062 C 33.859375 220.308594 32.972656 218.113281 31.921875 216.933594 C 31.664062 216.722656 31.421875 216.386719 31.203125 215.933594 C 31.085938 215.640625 31.003906 215.246094 30.96875 214.804688 C 31.78125 214.601562 32.59375 215.242188 33.265625 216.613281 "/>
<path style=" stroke:none;fill-rule:nonzero;fill:rgb(100%,82.352941%,82.745098%);fill-opacity:1;" d="M 32.492188 218.429688 C 31.882812 217.378906 31.167969 217.027344 30.476562 217.449219 C 30.457031 217 30.507812 216.550781 30.609375 216.21875 C 30.769531 215.777344 30.976562 215.511719 31.195312 215.464844 C 31.925781 215.183594 32.667969 216.070312 33.242188 217.433594 C 33.816406 218.800781 34.277344 221.027344 34.683594 222.847656 L 33.785156 223.996094 C 33.632812 221.691406 33.164062 219.675781 32.492188 218.429688 "/>
<path style=" stroke:none;fill-rule:nonzero;fill:rgb(100%,82.352941%,82.745098%);fill-opacity:1;" d="M 32.496094 218.429688 C 33.167969 219.675781 33.636719 221.691406 33.789062 223.996094 L 33.476562 224.398438 C 33.078125 221.363281 32.171875 219.15625 31.089844 218.578125 C 30.898438 218.488281 30.679688 218.421875 30.558594 217.976562 C 30.515625 217.824219 30.488281 217.640625 30.480469 217.449219 C 31.167969 217.027344 31.886719 217.378906 32.496094 218.429688 "/>
<path style=" stroke:none;fill-rule:nonzero;fill:rgb(100%,82.352941%,82.745098%);fill-opacity:1;" d="M 32.664062 225.441406 C 32.503906 223.371094 32.007812 221.675781 31.335938 220.933594 C 31.175781 220.808594 31.015625 220.636719 30.867188 220.421875 C 30.714844 220.195312 30.613281 219.742188 30.605469 219.238281 C 30.625 218.734375 30.742188 218.308594 30.90625 218.15625 C 31.066406 218.015625 31.238281 217.996094 31.402344 218.105469 C 32.4375 218.609375 33.410156 221.09375 33.789062 223.992188 L 32.664062 225.441406 "/>
<path style=" stroke:none;fill-rule:nonzero;fill:rgb(100%,82.352941%,82.745098%);fill-opacity:1;" d="M 44.351562 280.390625 C 45.359375 278.664062 45.703125 274.839844 45.121094 271.851562 L 39.058594 243.585938 C 38.476562 240.597656 37.1875 239.574219 36.179688 241.300781 C 35.167969 243.027344 34.972656 246.507812 35.554688 249.496094 L 41.46875 278.101562 C 42.050781 281.089844 43.339844 282.117188 44.351562 280.390625 Z M 44.351562 280.390625 "/>
<path style=" stroke:none;fill-rule:nonzero;fill:rgb(100%,82.352941%,82.745098%);fill-opacity:1;" d="M 36.9375 234.394531 L 41.886719 255.46875 L 38.078125 254.699219 L 33.902344 234.042969 Z M 36.9375 234.394531 "/>
<path style=" stroke:none;fill-rule:nonzero;fill:rgb(100%,82.352941%,82.745098%);fill-opacity:1;" d="M 36.570312 220.507812 L 34.722656 226.925781 L 32.679688 225.476562 L 33.753906 224.019531 L 34.703125 222.832031 L 35.691406 221.535156 L 36.378906 220.414062 "/>
</g>
</svg>
