<svg xmlns="http://www.w3.org/2000/svg" id="android_2" width="17.416" height="22" data-name="android 2" viewBox="0 0 17.416 22">
    <defs>
        <style>
            .cls-1{fill:#fff}
        </style>
    </defs>
    <g id="Group_752" data-name="Group 752" transform="translate(3.666 8.251)">
        <g id="Group_751" data-name="Group 751">
            <path id="Path_724" d="M148.307 192.034h-9.166a.459.459 0 0 0-.458.458v7.333a2.3 2.3 0 0 0 1.833 2.246v2.337a1.375 1.375 0 1 0 2.75 0v-2.291h.917v2.291a1.375 1.375 0 1 0 2.75 0v-2.337a2.3 2.3 0 0 0 1.833-2.246v-7.333a.458.458 0 0 0-.459-.458z" class="cls-1" data-name="Path 724" transform="translate(-138.683 -192.034)"/>
        </g>
    </g>
    <g id="Group_754" data-name="Group 754" transform="translate(3.666)">
        <g id="Group_753" data-name="Group 753">
            <path id="Path_725" d="M146.124 2.442l.773-1.8a.458.458 0 0 0-.842-.36l-.773 1.8a4.995 4.995 0 0 0-3.111 0L141.4.279a.458.458 0 1 0-.841.36l.773 1.8a5.045 5.045 0 0 0-2.643 4.434.458.458 0 0 0 .458.458h9.166a.458.458 0 0 0 .458-.458 5.046 5.046 0 0 0-2.647-4.431zM141.892 5.5a.458.458 0 1 1 .458-.458.458.458 0 0 1-.458.458zm3.666 0a.458.458 0 1 1 .458-.458.458.458 0 0 1-.457.458z" class="cls-1" data-name="Path 725" transform="translate(-138.684 .001)"/>
        </g>
    </g>
    <g id="Group_756" data-name="Group 756" transform="translate(14.666 8.251)">
        <g id="Group_755" data-name="Group 755">
            <path id="Path_726" d="M396.059 192.034a1.377 1.377 0 0 0-1.375 1.375v4.583a1.375 1.375 0 1 0 2.75 0v-4.583a1.377 1.377 0 0 0-1.375-1.375z" class="cls-1" data-name="Path 726" transform="translate(-394.684 -192.034)"/>
        </g>
    </g>
    <g id="Group_758" data-name="Group 758" transform="translate(0 8.251)">
        <g id="Group_757" data-name="Group 757">
            <path id="Path_727" d="M54.725 192.034a1.377 1.377 0 0 0-1.375 1.375v4.583a1.375 1.375 0 1 0 2.75 0v-4.583a1.377 1.377 0 0 0-1.375-1.375z" class="cls-1" data-name="Path 727" transform="translate(-53.35 -192.034)"/>
        </g>
    </g>
</svg>
