<svg xmlns="http://www.w3.org/2000/svg" width="1920" height="1080" viewBox="0 0 1920 1080">
  <defs>
    <clipPath id="clip-path">
      <path id="Rectangle_223" fill="#fff" stroke="#707070" d="M0 0H1920V1080H0z" data-name="Rectangle 223"/>
    </clipPath>
    <style>
      .cls-7{fill:#fff}.cls-8{stroke:#707070}.cls-4{fill:#5d4848}.cls-5{fill:#ffd2d3}.cls-8{fill:none}.cls-10{fill:#f6c0a2}.cls-12{fill:#1d064c}.cls-13{fill:#17282f}.cls-14{fill:#fb5557}.cls-17{fill:#ba2c42}.cls-18{fill:#45b995}.cls-21{fill:#42b28f}.cls-22{fill:#ffc19d}.cls-23{fill:#269874}.cls-24{fill:#fcd07b}
    </style>
  </defs>
  <g id="background_signin_sign_up" clip-path="url(#clip-path)" data-name="background signin sign up">
    <g id="Group_829" data-name="Group 829">
      <path id="path148" fill="#a6ffbe"
            d="M191.774 684.742a165.482 165.482 0 0 1-44.889-35.173c-32.029-35.827-46.91-85.774-41.794-133.362 5.646-52.445 25.043-100.1-.632-151.7C75.671 306.649-12.1 240.979 1.4 170.794 18.666 81.092 111.231 18.017 195.839 2.6c99.089-18.05 168.892 61.963 243.352 112.627 68.191 46.4 178.532 18.35 202.938 120.582 12.022 50.357 12.392 115.929-22.469 158.231-26.294 31.9-66.031 35.088-103.354 42.988-90.321 19.12-71.272 112.67-106.988 179.751-24.548 46.114-64.437 83.459-118.093 88.473a176.6 176.6 0 0 1-99.449-20.509"
            opacity="0.75" transform="rotate(-146 255.311 448.727)"/>
      <path id="Path_1057"
            d="M15071 13519.231c24.4 119.169.4 320.769-8.4 452.769s-59.8 0-59.8 0l-8.8-314.8-44 314.8h-57.6s-.2-364 33.6-452.769 120.6-119.168 145 0z"
            class="cls-4" data-name="Path 1057" transform="translate(-14824 -12880)"/>
      <path id="path154" d="M447.768-519.539l-7.735 52.739 60.8 5.12-19.068-43.831-15.535-3.459-18.462-10.566"
            class="cls-5" transform="translate(-295.073 905.883)"/>
      <path id="path156" fill="#ffbfc0" d="M452.635-512.293l33.1 21.015-5.106-15.576-9.535-5.459-18.462.02"
            transform="translate(-292.94 906.223)"/>
      <path id="path158"
            d="M436.982-559.805v69.46a5.441 5.441 0 0 0 5.439 5.439h16.553a34 34 0 0 0 34-34v-9.279a31.616 31.616 0 0 0-31.621-31.62h-24.371"
            class="cls-5" transform="translate(-284.286 887.275)"/>
      <path id="path208"
            d="M456.508-517.032l.921-11.639a7.784 7.784 0 0 1 7.111-7.413c4.68-.23 10.84-1.332 14.78-5.134a4.1 4.1 0 0 1 6.519 1.276c3.352 6.642 10.2 16.98 21.108 15.832s11.477-12.379 11.477-12.379c4.743-10.89-2.811-23.347-13.978-23.054l-7.076.186-5.614-6.809c-7.747-9.4-21.9-7.2-26.866 4.167l-1.753 4.015-9 .152c-12.352.208-21.532 12.374-19.194 25.433l2.41 13.446 5.573 28.378c.8 4.081 3.235 7.552 7.019 8.448l1.058.154 5.505-35.059"
            class="cls-7" transform="translate(-298.833 871.961)"/>
      <path id="Path_1050" d="M0 14.479s8.062 13.738 10.009 2.864S3.581 0 3.581 0" class="cls-5" data-name="Path 1050"
            transform="rotate(177 75.929 187.512)"/>
      <path id="Union_4" fill="#ffe7d9"
            d="M-14269.289-12069.743c-41.754 11.11-86.691 11.991-126.113 3.846-98.635-20.383-133.384-120.716-183.44-195.587-45.845-68.562-158.66-83.892-142.993-187.823 7.719-51.192 31.938-112.128 80.108-138.292 36.328-19.725 74.368-7.8 111.932-1.139 90.908 16.107 108.288-77.768 166.534-126.586 40.034-33.558 91.009-53.241 142.638-37.789a176.611 176.611 0 0 1 84.524 56.271 165.478 165.478 0 0 1 28.442 49.425c16.278 45.219 11.362 97.1-11.206 139.309-24.881 46.51-60.713 83.426-56.241 140.892 5.019 64.427 61.8 158.2 22.986 218.212-16.078 24.858-38.446 44.162-64.2 58.308v45.968z"
            data-name="Union 4" transform="translate(16135.877 12640.328)"/>
      <path id="path214"
            d="M478.934-283.412c-4.007-9.954-19.211-5.88-25.5-1.435-13.905 9.825-18.939 26.679-16.6 42.948 1.389 9.649 4.71 20.584.429 30.063-2.245 4.974-7.9 8.078-10.888 12.881-5.13 8.24-7.129 21.556-.157 29.461 7.134 8.091 18.518 7.926 28.089 6.635 9.114-1.226 19.481-2.469 25.666-10.033C491.745-187.3 492.622-205 492.9-223.06c.263-17.131-.217-36.571-8.384-52.089-1.14-2.162-3.639-7.487-5.581-8.264"
            class="cls-4" transform="translate(1268.064 392.566)"/>
      <path id="path220" d="M491.526-237.282v48.3H455.12l6.443-19.694 4.623-14.1 8.629-4.943 16.711-9.564"
            class="cls-10" transform="translate(1278.868 409.479)"/>
      <path id="path222" fill="#e6ad8e" d="M489.951-230.036l-29.963 19.02 4.623-14.1 8.629-4.943 16.711.019"
            transform="translate(1280.443 411.816)"/>
      <path id="path224"
            d="M495.014-277.547v62.872a4.925 4.925 0 0 1-4.923 4.923H475.11a30.779 30.779 0 0 1-30.775-30.774v-8.4a28.617 28.617 0 0 1 28.622-28.621h22.058"
            class="cls-10" transform="translate(1275.38 396.455)"/>
      <path id="path268"
            d="M460.642-273.019c-4.53 1.417 8.7 18.506 10.554 20.555 4.406 4.86 12.282 9.6 18.839 9.539-1 1.475-.651 4.948-.741 6.8-.215 4.464-.572 8.844-.992 13.282-1.152 12.151-1.775 24.36-2.132 36.606-.291 10.025-2.366 20.7 9.995 23.291 10.062 2.107 20.743.732 30.725 3.194 4.842 1.193 9.55 3.16 14.286 4.741 6.095 2.036 14.883 2.1 18.638-4.512 2.8-4.935.851-12.858-2.142-17.185-5.417-7.831-13.178-9.423-20.658-14.5-14.646-9.959 3.014-32.548-12.695-41.842-6.882-4.073-12.716-5.322-16.838-12.89-4.067-7.468-2.529-16.5-3.586-24.623-2.428-18.694-20.069-25.008-35.2-15.435a15.434 15.434 0 0 0-6.425 7.286 24.164 24.164 0 0 0-1.626 5.693"
            class="cls-4" transform="translate(1280.497 392.291)"/>
      <path id="path270"
            d="M442.707-255.458c3.789 3.339 8.668.651 12.8-.993 3.249-1.292 7.043-2.5 9.614-4.976 2.4-2.313 4.078-5.53 5.67-8.426 1.96-3.566 3.266-8.207-1.3-10.222-7.445-3.289-18.689 4.325-22.4 10.307-1.6 2.578-6.106 10.707-4.392 14.311"
            class="cls-12" transform="translate(1274.73 584.379)"/>
      <path id="path272"
            d="M465.988-274.5c-2.172 1.023-4.136-1.985-5.156-3.792-4.233-7.526-1.276-16.917 4.708-22.475 14.108-13.1 39.688-12.7 42.615 10.033 1.334 10.358-2.3 22.962-12.029 27.984-6.125 3.166-16.483 4.417-22.516.337-2.813-1.9-4.134-9.846-7.621-12.087"
            class="cls-12" transform="translate(1280.071 575.129)"/>
      <path id="path280"
            d="M301.736-83.839c10.062.776 20.655.214 28.53 3.406 4.052 1.642 7.265 3.191 8.632 8.557 1.181 4.629-2.521 12.37-5.958 15.75-10.04 9.886-13.948 14.506-16.722 25.52s-6.694 22.785-16.855 28.824a13.675 13.675 0 0 1-7.6 2.214c-2.754-.143-5.646-1.69-6.613-4.12-1.078-2.7.4-5.5 1.765-7.944 4.1-7.343 7.522-15.162 8.554-23.518s-.063-11.428-5.213-18.753c-5.918-7.08-15.922-12.734-27.063-18l22.752-13.061 15.789 1.119"
            class="cls-5" transform="translate(1394.676 590.555)"/>
      <path id="path282"
            d="M292-176.435s-11.27 2.153-15.776 1.045c-35.564-8.739-111.273-48.229-139.685-31-25.279 15.332-18.7 40.16-2.644 61.141 15.782 20.626 116.29 72.776 116.29 72.776l33.707-27.608-13.072-5.84 4.741-.732a80.173 80.173 0 0 0 26.119-.74l42.565-8.271v-44.3L292-176.435"
            class="cls-4" transform="translate(1393.922 589.893)"/>
      <path id="path284"
            d="M432.238-163.456s15.878 16.784 18.452 46.448c.871 10.041-4.419 28.595-13.023 35.934a78.6 78.6 0 0 1-56.9 18.143l-95.1-4.695-2.642-35.824s38.757-14.482 49.555-16.5l10.8-1.351v-38.9s32.442 1.767 47.435 2.586 41.418-5.836 41.418-5.836"
            class="cls-4" transform="translate(1394.779 590.141)"/>
      <path id="path296"
            d="M149.6-170.442c-.177.13-3.01-3.856-7.391-7.943-4.355-4.113-8.511-6.691-8.392-6.876a11.96 11.96 0 0 1 2.8 1.56 45.708 45.708 0 0 1 6.068 4.808 45.781 45.781 0 0 1 5.179 5.753 11.892 11.892 0 0 1 1.733 2.7"
            class="cls-13" transform="translate(1393.996 590.027)"/>
      <path id="path298" d="M283.332-103.356l-57.262 6.478 3.248 29.4h65.987l-11.973-35.874" class="cls-5"
            transform="translate(1394.48 590.457)"/>
      <path id="path300"
            d="M245.8-67.608c-8.767.263-25.633 7.915-31.58 13.63S204.155-40.986 200.8-33.46c-1.117 2.506-2.439 5.305-5.194 6.048-2.473.669-5.385-.691-7.113-2.766a13.4 13.4 0 0 1-2.726-7.259c-1.23-11.516 5.7-21.5 12.706-30.141s8.821-12.373 10.676-26.054c.634-4.68 4.529-12.128 8.852-13.922 5.012-2.078 8.114-.467 11.78 1.745l12.9 7.35"
            class="cls-5" transform="translate(1394.269 590.43)"/>
      <path id="path320"
            d="M434.342-162.324l-23.333-77.8 9.789-121.5c-11.254-8.575-35-16.353-60.163-17.359h-17.516l-60.437 21.923 2.713 77.8 15.061 64.372-9.279 39.333c37.954 27.29 88.39 30.261 143.165 13.228"
            class="cls-14" transform="translate(1394.744 589.01)"/>
      <path id="path322"
            d="M398.536-291.556s45.376 2.331 45.376-1.426c0-7.681-2.376-29.491-8.87-46.457-4.912-12.838-13.425-22.291-17.959-24.233-10.527-4.509-18.546 72.116-18.546 72.116"
            class="cls-14" transform="translate(1395.386 589.088)"/>
      <path id="path324"
            d="M283.642-356.689l3.321 81.535-14.607 16.375-26.9-36.379s3.1-5.231 13.792-30.6c9.016-21.4 17-27.334 17-27.334"
            class="cls-14" transform="translate(1394.583 589.141)"/>
      <path id="path338"
            d="M396.407-188.133h-.016c-10.3-.009-19.1-7.041-26.95-13.709-.572-.487-2.1-1.946-2.1-1.946h-.192c-11.469-9.746-22.894-19.588-33.2-30.553-14.087-14.992-27.086-32.77-46.13-40.095l-.021-.1q-.875-4.144-1.725-8.14a25.124 25.124 0 0 1 15.041-4.534 32.716 32.716 0 0 1 12.724 2.585c10.992 4.7 19.306 13.864 28.065 22a194.028 194.028 0 0 0 63.359 39.26c4.325 1.631 9.047 3.375 11.45 7.325a13.8 13.8 0 0 1 1.426 9.24c-1.571 10.282-11.333 18.664-21.734 18.663"
            opacity="0.1" transform="translate(1394.796 589.492)"/>
      <path id="path340" fill="#a7a9a8" d="M286.466-275l-.173-.06.126-.141.047.2"
            transform="translate(1394.796 589.555)"/>
      <path id="path342" d="M287.044-274.78l-.579-.208-.047-.2.33-.37-.2-1.553q.245 1.16.495 2.332" class="cls-17"
            transform="translate(1394.799 589.545)"/>
      <path id="path344"
            d="M286.317-275.022c-.225-.079-.453-.157-.681-.232l-4.04-2.631a18.241 18.241 0 0 1 3.89-4.337l1.088 5.136.2 1.553-.33.37-.126.141"
            class="cls-17" transform="translate(1394.772 589.518)"/>
      <path id="path350"
            d="M211.16-410.836h-3.493a7.642 7.642 0 0 0-6.919 4.4 7.645 7.645 0 0 0 .5 7.405l5.426 8.374s-5.38 2.923-3.867 8.775c0 0-3.53 2.153-1.681 9.382 0 0-2.355 6.053.5 10.256s11.946 20.344 11.946 20.344v17.821l24.174-2.789v-20.581a29.789 29.789 0 0 0 3.568-9.247c1.009-5.213-2.859-25.187-2.859-25.187L227.36-394.7l-12.442-4.875a6.283 6.283 0 0 0-.788 4.485 5.639 5.639 0 0 0 .283.9l-1.848-.842-4.158-7.565v-1.009s10.217-2.293 6.3-5.915a5.209 5.209 0 0 0-3.548-1.315"
            class="cls-10" transform="translate(1394.344 588.842)"/>
      <path id="path354"
            d="M217.357-391.887c-.028.082-.536.017-1.241-.393a5.192 5.192 0 0 1-2.084-2.367 5.21 5.21 0 0 1-.328-3.136c.178-.8.476-1.214.554-1.18.2.04-.5 1.952.416 4.036s2.789 2.868 2.685 3.04"
            class="cls-13" transform="translate(1394.415 588.904)"/>
      <path id="path360"
            d="M230.356-363.032a17.246 17.246 0 0 1 1.956 5.389 18.659 18.659 0 0 1 .348 5.574c-.492 3.039-1.885 11.642.078 13.667s15.249 12.907 15.249 12.907h8.352S239.382-335.961 237.1-343s-.087-10.8-1.234-15.19c-1.214-4.647-5.7-14.119-5.7-14.119L210.783-404.2l-3.2.751 22.771 40.419"
            class="cls-4" transform="translate(1394.383 588.875)"/>
      <path id="path364"
            d="M206.056-389.632a10.3 10.3 0 0 1 8.7-3.146 17.174 17.174 0 0 1 8.7 3.766 54.225 54.225 0 0 1 6.828 6.739c1.367 1.512 2.8 3.12 3.2 5.117s-.677 4.449-2.691 4.751c-1.953.294-3.559-1.409-4.915-2.844a34.1 34.1 0 0 0-6.215-5.171 11.225 11.225 0 0 0-4.577-1.942 13.457 13.457 0 0 0-5.944 1.063"
            class="cls-10" transform="translate(1394.374 588.938)"/>
      <path id="path368"
            d="M205.425-373.463c4.245 1.019 9.042.005 12.792 2.238a16.646 16.646 0 0 1 3.3 2.85l5.864 6.044c1.075 1.107 2.543 2.32 4 1.6a2.4 2.4 0 0 0 1.241-1.787 6.025 6.025 0 0 0-1.007-3.781 79.9 79.9 0 0 0-4.591-7.5 22.053 22.053 0 0 0-2.884-3.449c-1.606-1.555-4.048-3.681-5.91-4.257-3.029-.936-5.277-1.415-8.317 0"
            class="cls-10" transform="translate(1394.372 588.992)"/>
      <path id="path374"
            d="M243.428-294.971l-5.753-34.729-24.175 4.46s1.259 47.336 2.413 58.988c1.867 18.866 11.208 38.871 25.5 35.322 13.314-3.305 29.029-31.122 29.029-31.122l-27.013-32.918"
            class="cls-10" transform="translate(1394.414 589.27)"/>
      <path id="path408"
            d="M244.845-328.52a6.052 6.052 0 0 1 1.536-5.934A9.079 9.079 0 0 1 252.15-337a9.852 9.852 0 0 1 5.49 1 7.137 7.137 0 0 1 3.544 4.217 7.108 7.108 0 0 1-1.7 6.585 9.5 9.5 0 0 1-6.306 2.892 7.829 7.829 0 0 1-5.608-1.557c-1.524-1.28-2.757-3.088-2.721-4.66"
            class="cls-14" transform="translate(1394.577 589.23)"/>
      <path id="path410"
            d="M232.337-315.577c-10.954 2.884-22.973-8.569-26.288-16.379a2.782 2.782 0 0 1-.137-2.57 2.823 2.823 0 0 1 2.607-.823 26.271 26.271 0 0 1 15.162 5.966 26.282 26.282 0 0 1 8.656 13.806"
            class="cls-18" transform="translate(1387.02 583.662)"/>
      <path id="path412"
            d="M215.521-324.725a6.052 6.052 0 0 1 1.536-5.935 9.084 9.084 0 0 1 5.767-2.547 9.85 9.85 0 0 1 5.49 1.005 7.135 7.135 0 0 1 3.545 4.217 7.116 7.116 0 0 1-1.7 6.586 9.5 9.5 0 0 1-6.306 2.891 7.827 7.827 0 0 1-5.609-1.559c-1.523-1.279-2.757-3.087-2.719-4.659"
            class="cls-14" transform="translate(1394.424 589.25)"/>
      <path id="path414"
            d="M257.037-326.239c-.268-4.2 2.216-9.556 4.408-13.147a20.777 20.777 0 0 1 9.368-8.165 1.177 1.177 0 0 1 .85-.131 1.171 1.171 0 0 1 .579.694 15.134 15.134 0 0 1-1.595 14.776 15.137 15.137 0 0 1-13.61 5.974"
            class="cls-18" transform="translate(1394.642 589.174)"/>
      <path id="path416"
            d="M289.232-331.673a50.469 50.469 0 0 0 4.858-8.033 16.973 16.973 0 0 0 1.594-9.142 1.6 1.6 0 0 0-.589-1.217 1.656 1.656 0 0 0-1.324.017 28.9 28.9 0 0 0-14.414 10.106 28.9 28.9 0 0 0-5.794 16.624l-.177 1.558a22.141 22.141 0 0 0 16.545 1.136 34.361 34.361 0 0 0 12.232-5.987 18.2 18.2 0 0 0 6.82-11.512 24.493 24.493 0 0 0-19.75 6.45"
            class="cls-18" transform="matrix(.998 .07 -.07 .998 1372.079 564.25)"/>
      <path id="path418"
            d="M237.2-338.1c-4.615-4.029-10.723-5.947-16.78-6.873a23.306 23.306 0 0 0 6.153 16.659 23.3 23.3 0 0 0 16.18 7.323l.3-.679c1.585-5.92-1.239-12.4-5.856-16.43"
            class="cls-18" transform="rotate(-13 3511.604 -6159.708)"/>
      <path id="path420"
            d="M208.362-324.781a117.993 117.993 0 0 0 13.132 28.247c3.879 5.888 8.9 11.663 14.871 15.314 24.345 14.878 60.933-4.927 64.045-12.7s8.558-39.412 8.558-39.412l-100.607 8.557"
            class="cls-7" transform="translate(1394.386 589.248)"/>
      <path id="path424"
            d="M233-288.268a6.221 6.221 0 0 1-1.141-1.007c-.706-.677-1.686-1.7-2.859-3a93.426 93.426 0 0 1-8.352-10.81 93.51 93.51 0 0 1-6.691-11.913c-.736-1.586-1.293-2.886-1.641-3.8a6.367 6.367 0 0 1-.481-1.444 6.326 6.326 0 0 1 .729 1.334c.422.878 1.047 2.143 1.836 3.694a121.5 121.5 0 0 0 6.829 11.744 121.7 121.7 0 0 0 8.143 10.871c1.119 1.332 2.04 2.4 2.683 3.134a6.524 6.524 0 0 1 .944 1.192"
            class="cls-7" transform="translate(1394.404 589.318)"/>
      <path id="path428"
            d="M396.516-291.213l-6.738 34.752-69.042-36.627-15.513 16.351s65.754 60.133 79.53 71.122c13.642 10.879 32.534-1.7 38.023-22.091s12.756-46.747 14.832-63.861l-41.092.355"
            class="cls-10" transform="translate(1394.896 589.461)"/>
      <path id="path430"
            d="M327.076-288.816s-19.96-15.14-27.057-13.6a27.592 27.592 0 0 0-6.107 1.97 17.416 17.416 0 0 1-7.5 1.8c-2.611.009-5.927-.017-9.133-.162-6.135-.273-7.98 1.347-8.517 3.7a3.815 3.815 0 0 0 3.418 4.643c3.76.3 9.423.861 11.8 1.639 3.7 1.214-.617.45-5.245 3.454s-23.451 3.623-23.451 3.623l-10.238-7.837a3.435 3.435 0 0 0-5.262 4.05l.072.164-.93-.949a2.883 2.883 0 0 0-4.687 3.207l.063.13 8.332 8.022 12.65 5.245 21.908-2.159s16.044-5.863 19.131-6.789 13.277 1.985 21.11 10.723l9.649-20.884"
            class="cls-10" transform="translate(1394.521 589.41)"/>
      <g id="Group_824" data-name="Group 824">
        <path id="path16"
              d="M538.9-333.593C668.506-177.5 395.094 2.856 279.805-144.286c-37.618-48.012-12.241-113.666-44.767-160.377-19.657-28.227-56.361-26.616-85.07-39.678-164.96-75.049 9.368-325.772 156.742-238.368 44.3 26.273 56.37 64.8 39.044 111.728-8.4 22.748-32.422 44.7-9.031 66.264 23.777 21.93 78.737 15.373 109.537 23.487 17.728 4.672 91.079 28.673 92.639 47.637"
              class="cls-7" transform="rotate(150 833.808 270.304)"/>
        <path id="Path_1053"
              d="M16633.334 13579.867s98.131 65.865 118.4 118.933-147.2 24.267-147.2 24.267l-53.867-114.4z"
              class="cls-7" data-name="Path 1053" transform="translate(-14817 -13097)"/>
      </g>
      <path id="Path_1055" d="M16482.8 13143.7s6.047-18.3 60.051-29.39-47.93 25.7-47.93 25.7z" class="cls-14"
            data-name="Path 1055" transform="translate(-14817 -12902.196)"/>
      <path id="path272-2"
            d="M464.242-283.045c-1.641.773-3.125-1.5-3.9-2.865-3.2-5.687-.964-12.783 3.557-16.983 10.66-9.9 29.988-9.6 32.2 7.581 1.008 7.827-1.737 17.351-9.089 21.145-4.628 2.392-12.455 3.337-17.013.255-2.125-1.437-3.124-7.44-5.759-9.133"
            class="cls-4" data-name="path272" transform="translate(1270 391.664)"/>
      <path id="Path_1058"
            d="M16548.18 13321.851s3.5.73 18.369 3.063 0 .874 0 .874l-5.832 22.162s-7.437-1.457-13.414 1.021.877-27.12.877-27.12z"
            class="cls-4" data-name="Path 1058" transform="translate(-14817 -12888)"/>
      <rect id="Rectangle_221" width="41" height="130" class="cls-5" data-name="Rectangle 221" rx="20.5"
            transform="rotate(14.98 -1783.903 504.092)"/>
      <rect id="Rectangle_222" width="41" height="130" class="cls-5" data-name="Rectangle 222" rx="20.5"
            transform="rotate(165.02 114.414 322.672)"/>
      <path id="Union_5"
            d="M-11710.486-10509.123h-83.037l7.922-108-.613-7.207-44.785-3.194 15.894-57.35a32.867 32.867 0 0 1 21.58-25.265v.007-.007l57.317-17.857a35.19 35.19 0 0 0 51.438 0l57.32 17.857v.03a32.856 32.856 0 0 1 21.494 25.234l15.9 57.35-44.7 3.188-.614 7.213 7.922 108z"
            class="cls-18" data-name="Union 5" transform="translate(11882.916 11155.012)"/>
      <path id="path24" fill="#93bab8" d="M255.022-427.717l1.871-21.979 1.245 2.944-3.116 19.035"
            transform="translate(-7.476 965.603)"/>
      <path id="path26"
            d="M288-311.12h-9.1l-11.332-88.638v-14.414l-11.5-11.877c-11.866 12.159-27.292 17.963-43.618 17.963a73.6 73.6 0 0 1-15.182-1.619c-6.484-1.366-13.8-5.467-16.6-11.472l-14.924 22.887-43.825 87.17 3.545-53.856 10.454-56.958 13.584-6.285 24.354-48.042 57.522-19.1 48.7 76.241 7.921 108"
            opacity="0.08" transform="translate(-32.527 957.008)"/>
      <path id="path28" d="M124.9-376.607l4.377-54.146 6.077-2.812-10.454 56.958" class="cls-21"
            transform="translate(-31.966 968.639)"/>
      <path id="path30" d="M262.887-421.787l-1.415-4.042-18.786-53.638 4.694-8.029 17.885 48.156-2.379 17.552"
            class="cls-18" transform="translate(-9.798 958.488)"/>
      <path id="path30-2" d="M254.571-470.495l-15.352 46.247 5.637.392" class="cls-21" data-name="path30"
            transform="translate(-147.798 954.488)"/>
      <path id="path30-3" d="M239.219-470.495l15.4 45.687-6.583.577" class="cls-21" data-name="path30"
            transform="translate(4.202 954.488)"/>
      <path id="path60"
            d="M247.969-469.989c3.137 8.945-9.138 21.394-27.419 27.8s-35.642 4.355-38.778-4.591 6.917-27.731 25.2-34.141 37.864 1.983 41 10.93"
            class="cls-22" transform="translate(-26.369 956.302)"/>
      <path id="path62"
            d="M248.857-476.29c-.535 1.968-2.847 2.7-3.972 4.365-2.155 3.183.726 8.367-1.64 11.38-1.489 1.9-4.281 1.866-6.659 1.513s-5.025-.816-6.957.589c-1.589 1.157-2.21 3.246-2.947 5.119s-1.93 3.845-3.864 4.16c-2.679.434-4.994-2.538-7.717-2.609-2.638-.07-4.474 2.508-5.745 4.867s-2.792 5.044-5.388 5.445c-2.639.406-5.016-1.773-6.882-3.832s-4.049-4.355-6.727-4.278c-2.6.078-4.685 2.438-7.288 2.536-2.414.093-4.664-1.953-5.364-4.382a9.153 9.153 0 0 1 1.215-7.167 19.85 19.85 0 0 1 5.065-5.184c8.142-6.25 17.665-10.394 27.467-13.276a207.619 207.619 0 0 1 24.956-5.369c3.234-.531 14.124-.038 12.446 6.123"
            class="cls-23" transform="translate(-27.082 953.415)"/>
      <path id="path64"
            d="M243.607-482.428c3.137 8.945-9.14 21.394-27.419 27.8s-35.642 4.354-38.779-4.593 6.917-27.731 25.2-34.141 37.863 1.984 41 10.93"
            class="cls-14" transform="translate(-27.19 953.961)"/>
      <path id="path66"
            d="M174.44-463.368c1.646 1.2 3.91.334 5.827.928 3.669 1.141 4.658 6.988 8.387 7.864 2.35.553 4.51-1.215 6.145-2.977s3.416-3.777 5.8-3.883c1.961-.09 3.752 1.155 5.5 2.156s3.908 1.8 5.616.836c2.362-1.334 2.315-5.1 4.4-6.857 2.015-1.7 5.059-.835 7.525.212s5.331 2.2 7.608.889c2.316-1.331 2.81-4.517 2.982-7.291s.444-5.932 2.584-7.541c2.082-1.565 5.181-1.022 7.275-2.57 1.944-1.435 2.422-4.439 1.453-6.773a9.14 9.14 0 0 0-5.425-4.838 19.859 19.859 0 0 0-7.194-.887c-10.26.2-20.287 2.913-29.742 6.785a207.32 207.32 0 0 0-22.844 11.389c-2.856 1.606-11.055 8.791-5.9 12.555"
            class="cls-23" transform="translate(-27.956 954.244)"/>
      <path id="path68"
            d="M239.451-494.281c3.137 8.945-9.14 21.393-27.419 27.8s-35.642 4.355-38.779-4.591 6.917-27.731 25.2-34.141 37.864 1.983 41 10.93"
            class="cls-22" transform="translate(-27.973 951.729)"/>
      <path id="path70"
            d="M197.715-502.089c.2.583-.439 1.339-1.435 1.689s-1.969.16-2.175-.425.439-1.339 1.434-1.689 1.972-.16 2.177.425"
            class="cls-24" transform="translate(-18.948 952.629)"/>
      <path id="path72"
            d="M202.725-497.524c.206.583-.437 1.339-1.434 1.689s-1.971.16-2.175-.424.437-1.339 1.435-1.689 1.969-.158 2.174.425"
            class="cls-24" transform="translate(-18.005 953.488)"/>
      <path id="path74"
            d="M192.56-495.307c.2.583-.437 1.339-1.434 1.689s-1.971.16-2.175-.423.437-1.34 1.434-1.689 1.971-.16 2.175.423"
            class="cls-24" transform="translate(-19.918 953.905)"/>
      <path id="path76"
            d="M207.569-502.567c.2.585-.439 1.34-1.435 1.69s-1.969.158-2.175-.425.439-1.339 1.435-1.689 1.969-.16 2.175.423"
            class="cls-24" transform="translate(-17.094 952.539)"/>
      <g id="Group_827" data-name="Group 827" transform="translate(2 -3)">
        <path id="path78"
              d="M151.289-453.175L139.4-439.419l17.045 19.161 13.127-19.161c5.322-2.208 6.233-7.869 7.483-13.5l3.58-16.106-23.474-13.791-5.868 29.636"
              class="cls-5" transform="rotate(2 -27219.16 -722.077)"/>
        <path id="path84"
              d="M171.627-490.676a25.377 25.377 0 0 0-12.633 12.937l1.8 1.061a18.624 18.624 0 0 1 8.565-8.6 104.477 104.477 0 0 1 16.3-6.022 3.3 3.3 0 0 0-.586-1.809 28.867 28.867 0 0 0-13.454 2.43"
              class="cls-5" transform="rotate(2 -27165.256 -621.535)"/>
        <path id="path86"
              d="M172.471-490.329a28.865 28.865 0 0 1 13.454-2.43 4.591 4.591 0 0 0-1.907-1.616 9.424 9.424 0 0 0-4.395-.591c-9.881.493-19.876 6.049-25.108 14.449l5.323 3.126a25.375 25.375 0 0 1 12.633-12.937"
              class="cls-5" transform="rotate(2 -27154.932 -645.459)"/>
        <path id="path88"
              d="M175.612-486.522a22.6 22.6 0 0 1 15.079-2.085 2.926 2.926 0 0 0 .019-2.115 3.537 3.537 0 0 0-2.156-1.887 8.549 8.549 0 0 0-2.915-.356c-10.494.1-21.307 6.156-26.645 15.192l5.985 3.517a22.758 22.758 0 0 1 10.632-12.266"
              class="cls-5" transform="rotate(2 -27166.256 -621.546)"/>
        <path id="path90"
              d="M174.664-487.137a22.759 22.759 0 0 0-10.632 12.266l1.48.87a31.949 31.949 0 0 1 17.611-11.4 14.959 14.959 0 0 0 4.83-1.583 4.6 4.6 0 0 0 1.79-2.234 22.6 22.6 0 0 0-15.079 2.085"
              class="cls-5" transform="rotate(2 -27184.301 -594.773)"/>
        <path id="path92"
              d="M179.109-482.834a18.292 18.292 0 0 1 13.053-.536 3.29 3.29 0 0 0-.52-2.734 6.118 6.118 0 0 0-3.52-2.075c-4.564-1.176-9.5.15-13.509 2.627s-7.516 6.9-10.581 10.477l5.39 3.167a18.337 18.337 0 0 1 9.688-10.925"
              class="cls-5" transform="rotate(2 -27190.132 -594.9)"/>
        <path id="path94"
              d="M178.256-483.514a18.337 18.337 0 0 0-9.688 10.925l1.89 1.109a20.212 20.212 0 0 1 16.678-10.62c1.247-.044 2.641-.017 3.549-.873a2.321 2.321 0 0 0 .624-1.077 18.293 18.293 0 0 0-13.053.536"
              class="cls-5" transform="rotate(2 -27209.997 -570.837)"/>
        <path id="path96"
              d="M175.344-468.867a13.573 13.573 0 0 1 9.612-8.626 16.657 16.657 0 0 0 3.115-.735 3.034 3.034 0 0 0 1.974-2.327 2.769 2.769 0 0 0-1.627-2.559 6.361 6.361 0 0 0-3.148-.494c-6.708.273-13.536 4.84-16.7 10.76l6.776 3.981"
              class="cls-5" transform="rotate(2 -27217.399 -570.965)"/>
        <path id="Path_1062"
              d="M13.5 0A13.5 13.5 0 0 1 27 13.5v89A13.5 13.5 0 0 1 13.5 116c-7.456 0-12.316-5.876-12.316-13.332L0 13.5A13.5 13.5 0 0 1 13.5 0z"
              class="cls-5" data-name="Path 1062" transform="scale(-1) rotate(39 841.572 -401.137)"/>
        <path id="Path_1063" d="M11952.943 11232.542l-38.4 40 24.344 2.172 33.371-39.886z" class="cls-5"
              data-name="Path 1063" transform="translate(-11828 -10728)"/>
        <path id="Path_1064"
              d="M11959.958 11203.276l9.511 15.542 13.412-1.041-6.292-4.187-5.606-3.478-5.8-3.762-3.975-3.075"
              class="cls-5" data-name="Path 1064" transform="translate(-11828 -10728)"/>
      </g>
      <g id="Group_828" data-name="Group 828" transform="rotate(9 -2796.607 1479.846)">
        <path id="path78-2"
              d="M11.893 32.918L0 19.161 17.045 0l13.126 19.161c5.322 2.208 6.233 7.869 7.483 13.5l3.58 16.106-23.473 13.786-5.868-29.635"
              class="cls-5" data-name="path78" transform="scale(-1) rotate(-2 -2210.99 1666.795)"/>
        <path id="path84-2"
              d="M12.633 14A25.376 25.376 0 0 1 0 1.061L1.8 0a18.624 18.624 0 0 0 8.565 8.6 104.476 104.476 0 0 0 16.3 6.022 3.3 3.3 0 0 1-.586 1.809A28.866 28.866 0 0 1 12.633 14"
              class="cls-5" data-name="path84" transform="scale(-1) rotate(-2 -555.335 978.446)"/>
        <path id="path86-2"
              d="M17.956 12.937a28.865 28.865 0 0 0 13.454 2.43 4.591 4.591 0 0 1-1.91 1.617 9.424 9.424 0 0 1-4.395.591C15.226 17.082 5.231 11.526 0 3.126L5.323 0a25.375 25.375 0 0 0 12.633 12.937"
              class="cls-5" data-name="path86" transform="scale(-1) rotate(-2 -522.388 1129.966)"/>
        <path id="path88-2"
              d="M16.617 12.266A22.6 22.6 0 0 0 31.7 14.35a2.926 2.926 0 0 1 .019 2.115 3.537 3.537 0 0 1-2.156 1.887 8.549 8.549 0 0 1-2.915.356C16.15 18.609 5.337 12.552 0 3.517L5.985 0a22.758 22.758 0 0 0 10.632 12.266"
              class="cls-5" data-name="path88" transform="scale(-1) rotate(-2 -625.5 979.675)"/>
        <path id="path90-2"
              d="M10.632 13.135A22.759 22.759 0 0 1 0 .87L1.48 0a31.95 31.95 0 0 0 17.61 11.4 14.959 14.959 0 0 1 4.83 1.583 4.6 4.6 0 0 1 1.79 2.234 22.6 22.6 0 0 1-15.079-2.085"
              class="cls-5" data-name="path90" transform="scale(-1) rotate(-2 -653.312 809.13)"/>
        <path id="path92-2"
              d="M15.078 10.925a18.292 18.292 0 0 0 13.053.536 3.29 3.29 0 0 1-.52 2.734 6.118 6.118 0 0 1-3.52 2.075c-4.564 1.176-9.5-.15-13.509-2.627S3.066 6.747 0 3.167L5.39 0a18.337 18.337 0 0 0 9.688 10.925"
              class="cls-5" data-name="path92" transform="scale(-1) rotate(-2 -718.904 810.296)"/>
        <path id="path94-2"
              d="M9.688 12.034A18.337 18.337 0 0 1 0 1.109L1.89 0a20.212 20.212 0 0 0 16.678 10.62c1.247.044 2.641.017 3.549.873a2.321 2.321 0 0 1 .624 1.077 18.292 18.292 0 0 1-13.053-.536"
              class="cls-5" data-name="path94" transform="scale(-1) rotate(-2 -753.304 656.894)"/>
        <path id="path96-2"
              d="M6.776 0a13.573 13.573 0 0 0 9.612 8.626 16.657 16.657 0 0 1 3.115.735 3.034 3.034 0 0 1 1.974 2.327 2.769 2.769 0 0 1-1.627 2.559 6.361 6.361 0 0 1-3.148.494C9.994 14.469 3.165 9.9 0 3.981L6.776 0"
              class="cls-5" data-name="path96" transform="scale(-1) rotate(-2 -835.3 658.315)"/>
        <path id="Path_1062-2"
              d="M16.577 99.272a13.5 13.5 0 0 0 13.5-13.5L27 13.5A13.5 13.5 0 0 0 13.5 0C6.045 0 1.185 5.876 1.185 13.332l1.892 72.44a13.5 13.5 0 0 0 13.5 13.5z"
              class="cls-5" data-name="Path 1062" transform="rotate(-39 112.632 -13.828)"/>
        <path id="Path_1063-2" d="M11933.854 11232.543l38.4 40-24.344 2.172-33.371-39.886z" class="cls-5"
              data-name="Path 1063" transform="translate(-11887.083 -11188.729)"/>
        <path id="Path_1064-2"
              d="M11982.881 11203.276l-9.511 15.542-13.411-1.041 6.291-4.187 5.606-3.478 5.8-3.762 3.975-3.075"
              class="cls-5" data-name="Path 1064" transform="translate(-11943.125 -11188.728)"/>
      </g>
    </g>
  </g>
</svg>
