<svg xmlns="http://www.w3.org/2000/svg" width="18.006" height="18" viewBox="0 0 18.006 18">
    <defs>
        <style>
            .cls-1{fill:#b0b3bc}
        </style>
    </defs>
    <g id="calendrier_2" transform="translate(-358.072 -57.254)">
        <g id="Group_741" transform="translate(358.072 57.254)">
            <g id="Group_740">
                <circle id="Ellipse_51" cx=".704" cy=".704" r=".704" class="cls-1" transform="translate(12.869 6.678)"/>
                <path id="Path_745" d="M373.266 58.658h-.916v-.7a.7.7 0 0 0-1.406 0v.7h-3.2v-.7a.7.7 0 0 0-1.407 0v.7h-3.167v-.7a.7.7 0 0 0-1.406 0v.7h-.879a2.815 2.815 0 0 0-2.813 2.813V72.44a2.813 2.813 0 0 0 2.812 2.812h5.38a.7.7 0 1 0 .044-1.406h-5.424a1.408 1.408 0 0 1-1.406-1.406V61.471a1.407 1.407 0 0 1 1.406-1.406h.879v.7a.7.7 0 0 0 1.406 0v-.7h3.174v.7a.7.7 0 0 0 1.406 0v-.7h3.2v.7a.7.7 0 0 0 1.406 0v-.7h.912a1.407 1.407 0 0 1 1.406 1.405v4.01a.7.7 0 0 0 1.406 0v-4.01a2.816 2.816 0 0 0-2.816-2.815z" class="cls-1" transform="translate(-358.072 -57.254)"/>
                <path id="Path_746" d="M371.292 66.218a4.254 4.254 0 1 0 4.254 4.255 4.258 4.258 0 0 0-4.254-4.255zm0 7.1a2.849 2.849 0 1 1 2.848-2.85 2.85 2.85 0 0 1-2.848 2.853z" class="cls-1" transform="translate(-357.545 -56.727)"/>
                <path id="Path_747" d="M372.115 69.653h-.315v-.738a.7.7 0 0 0-1.406-.046.315.315 0 0 0 0 .046v1.439a.7.7 0 0 0 .7.7h1.021a.7.7 0 0 0 0-1.407z" class="cls-1" transform="translate(-357.347 -56.611)"/>
                <circle id="Ellipse_52" cx=".704" cy=".704" r=".704" class="cls-1" transform="translate(9.81 6.678)"/>
                <circle id="Ellipse_53" cx=".704" cy=".704" r=".704" class="cls-1" transform="translate(6.751 9.738)"/>
                <circle id="Ellipse_54" cx=".704" cy=".704" r=".704" class="cls-1" transform="translate(3.692 6.678)"/>
                <circle id="Ellipse_55" cx=".704" cy=".704" r=".704" class="cls-1" transform="translate(3.692 9.738)"/>
                <circle id="Ellipse_56" cx=".704" cy=".704" r=".704" class="cls-1" transform="translate(3.692 12.796)"/>
                <circle id="Ellipse_57" cx=".704" cy=".704" r=".704" class="cls-1" transform="translate(6.751 12.796)"/>
                <circle id="Ellipse_58" cx=".704" cy=".704" r=".704" class="cls-1" transform="translate(6.751 6.678)"/>
            </g>
        </g>
    </g>
</svg>
