<svg xmlns="http://www.w3.org/2000/svg" width="11.919" height="21" viewBox="0 0 11.919 21">
  <path
    d="M117.862 20H114.5a1.02 1.02 0 0 1-1.019-1.019V11.4h-1.962a1.02 1.02 0 0 1-1.019-1.019V7.127a1.02 1.02 0 0 1 1.019-1.019h1.962V4.481A5.542 5.542 0 0 1 114.946.51 5.278 5.278 0 0 1 118.838-1h2.562a1.02 1.02 0 0 1 1.019 1.023v3.018a1.02 1.02 0 0 1-1.019 1.018h-1.727c-.527 0-.661.106-.689.138-.047.054-.1.205-.1.624v1.287h2.39a1.035 1.035 0 0 1 .5.128 1.022 1.022 0 0 1 .524.891v3.25a1.02 1.02 0 0 1-1.019 1.018h-2.4v7.585a1.02 1.02 0 0 1-1.017 1.02zm-3.151-1.231h2.938v-7.924a.681.681 0 0 1 .68-.68h2.737V7.339h-2.736a.681.681 0 0 1-.68-.68V4.822a2.1 2.1 0 0 1 .412-1.439 2.087 2.087 0 0 1 1.612-.554h1.514V.235h-2.352a3.886 3.886 0 0 0-4.125 4.25v2.174a.681.681 0 0 1-.68.68h-2.3v2.825h2.3a.681.681 0 0 1 .68.68zM121.4.235z"
    transform="translate(-110.5 1)"/>
</svg>
