<svg xmlns="http://www.w3.org/2000/svg" width="40" height="40" viewBox="0 0 40 40">
    <g transform="translate(-278 -205)">
        <circle cx="20" cy="20" r="20" fill="#fff" transform="translate(278 205)"/>
        <path fill="#fb5557" d="M-123.165-92.238a5.006 5.006 0 0 0-3.562-1.473 5.016 5.016 0 0 0-3.565 1.48l-.5.5-.506-.5a5.011 5.011 0 0 0-3.569-1.482 5 5 0 0 0-3.555 1.472 4.986 4.986 0 0 0-1.472 3.566 5.01 5.01 0 0 0 1.481 3.56l7.248 7.246a.528.528 0 0 0 .368.156.532.532 0 0 0 .365-.151l7.261-7.232a5.024 5.024 0 0 0 1.478-3.566 4.991 4.991 0 0 0-1.472-3.576z" transform="translate(429.004 311.221)"/>
    </g>
</svg>
