<svg xmlns="http://www.w3.org/2000/svg" width="40" height="40" viewBox="0 0 40 40">
    <g id="favoris_desactivé" data-name="favoris desactivé" transform="translate(-278 -205)">
        <circle id="Ellipse_48" cx="20" cy="20" r="20" fill="#fff" data-name="Ellipse 48" transform="translate(278 205)"/>
        <g id="Path_343" fill="none" stroke="none" data-name="Path 343">
            <path d="M-123.165-92.238a5.006 5.006 0 0 0-3.562-1.473 5.016 5.016 0 0 0-3.565 1.48l-.5.5-.506-.5a5.011 5.011 0 0 0-3.569-1.482 5 5 0 0 0-3.555 1.472 4.986 4.986 0 0 0-1.472 3.566 5.01 5.01 0 0 0 1.481 3.56l7.248 7.246a.528.528 0 0 0 .368.156.532.532 0 0 0 .365-.151l7.261-7.232a5.024 5.024 0 0 0 1.478-3.566 4.991 4.991 0 0 0-1.472-3.576z" transform="translate(429.004 311.221)"/>
            <path fill="#fb5557" d="M-134.876-91.721c-.804 0-1.56.314-2.128.884l-.003.003-.003.004c-.565.561-.887 1.34-.882 2.135V-88.682c0 .81.315 1.57.89 2.14l.002.002.003.003 6.205 6.203 6.211-6.186c.575-.574.891-1.336.89-2.147V-88.68c.004-.798-.318-1.577-.883-2.139l-.004-.004-.004-.004c-.56-.562-1.336-.884-2.13-.884h-.022c-.798 0-1.577.324-2.14.89l-.002.003-.003.003-.498.497-1.413 1.41-1.413-1.41-.506-.505-.004-.004-.003-.004c-.561-.566-1.34-.89-2.138-.89h-.022m0-2h.022c1.336 0 2.618.534 3.558 1.482l.506.505.498-.497c.941-.947 2.222-1.48 3.558-1.48h.022c1.33 0 2.608.53 3.547 1.473.95.943 1.481 2.229 1.474 3.568.002 1.338-.53 2.621-1.478 3.566l-7.261 7.232c-.098.095-.229.15-.365.151-.139-.002-.271-.058-.368-.156l-7.248-7.246c-.949-.942-1.482-2.223-1.481-3.56-.008-1.338.523-2.623 1.472-3.566.94-.942 2.214-1.472 3.544-1.472z" transform="translate(429.004 311.221)"/>
        </g>
    </g>
</svg>
