<svg xmlns="http://www.w3.org/2000/svg" width="21.25" height="21.25" viewBox="0 0 21.25 21.25">
  <g>
    <g>
      <path stroke="#000" stroke-width="0.25px"
            d="M20.817 8.539a.416.416 0 0 0-.408-.338h-9.687a.416.416 0 0 0-.416.416v3.989a.416.416 0 0 0 .416.416h4.756a5.581 5.581 0 0 1-10.2-.564 5.58 5.58 0 0 1 8.172-6.694.415.415 0 0 0 .483-.031L17.2 3.059a.415.415 0 0 0 0-.641 10.481 10.481 0 1 0 3.614 6.121zM10.5.831a9.684 9.684 0 0 1 5.773 1.912l-2.641 2.163a6.412 6.412 0 0 0-8.979 2.965L2.075 5.76A9.675 9.675 0 0 1 10.5.831zM.831 10.5a9.613 9.613 0 0 1 .858-3.981L4.348 8.7a6.437 6.437 0 0 0 .05 3.771l-2.642 2.158A9.7 9.7 0 0 1 .831 10.5zm9.669 9.669a9.665 9.665 0 0 1-8.349-4.789l2.571-2.1a6.411 6.411 0 0 0 8.761 2.9l2.66 2.178a9.692 9.692 0 0 1-5.643 1.811zm9.457-7.65a9.7 9.7 0 0 1-3.146 5.306l-2.581-2.113a6.433 6.433 0 0 0 2.27-2.961.415.415 0 0 0-.389-.561h-4.974V9.032h8.921a9.755 9.755 0 0 1-.1 3.488z"
            transform="translate(.125 .125)"/>
    </g>
  </g>
</svg>
