<svg xmlns="http://www.w3.org/2000/svg" width="164.225" height="50" viewBox="0 0 164.225 50">
    <defs>
        <style>
            .cls-1{fill:#fff}
        </style>
    </defs>
    <g id="logo_blanc" transform="translate(-36 -38.302)">
        <g id="Group_726" transform="translate(84.71 45.677)">
            <path id="Path_683" d="M168.638 92.876h-4.5V82.537c0-2.193-.9-3.368-3.016-3.368a3.967 3.967 0 0 0-3.642 2.036c0 .274.039.9.039 1.292v10.379h-4.5V82.223a2.75 2.75 0 0 0-2.938-3.055 4.271 4.271 0 0 0-3.681 1.88v11.828h-4.5V75.251h4.5v1.959a7.453 7.453 0 0 1 5.522-2.272c2.7 0 4.5 1.214 5.131 2.82a7.177 7.177 0 0 1 5.947-2.82c3.211 0 5.64 1.606 5.64 6.424z" class="cls-1" transform="translate(-141.887 -65.46)"/>
            <path id="Path_684" d="M216.337 93.244c-2.585 6.306-4.23 7.834-6.815 7.834a6.2 6.2 0 0 1-3.8-1.371l1.449-3.408a3.817 3.817 0 0 0 1.841.627c1.136 0 1.958-.9 2.7-2.742l.392-.94-8.144-17.625h5.405l4.113 9.635c.352.862.587 1.684.862 2.545a17.635 17.635 0 0 1 .627-2.585l3.172-9.6h5.131z" class="cls-1" transform="translate(-175.406 -65.828)"/>
            <path id="Path_685" d="M261.767 79.91a6.621 6.621 0 0 1-5.053 2.154c-5.052 0-8.3-3.565-8.3-8.93 0-5.562 4-9.439 9.675-9.439a6.836 6.836 0 0 1 3.682.862V54.334h4.5V81.75h-4.5zm0-3.838v-7.09a6.468 6.468 0 0 0-3.486-1.058 4.848 4.848 0 0 0-5.053 5.052c0 3.134 2.037 4.9 4.426 4.9a5.894 5.894 0 0 0 4.113-1.804z" class="cls-1" transform="translate(-199.408 -54.334)"/>
            <path id="Path_686" d="M300.364 56.121a2.589 2.589 0 0 1 2.585 2.624 2.643 2.643 0 0 1-2.585 2.821 2.692 2.692 0 0 1-2.82-2.821 2.648 2.648 0 0 1 2.82-2.624zm-2.35 8.969h4.5v17.625h-4.5z" class="cls-1" transform="translate(-225.939 -55.299)"/>
            <path id="Path_687" d="M317.858 80.049c0-3.446 2.82-5.366 6.462-5.366a9.75 9.75 0 0 1 6.7 2.232l-1.684 3.212a8.31 8.31 0 0 0-4.779-1.684c-1.37 0-2.193.744-2.193 1.528 0 2.937 9.517 1.331 9.517 7.559 0 3.486-2.82 5.64-7.128 5.64-3.251 0-6.541-1.763-7.363-3.016l2.193-2.937a9.074 9.074 0 0 0 5.483 2.193c1.293 0 2.311-.549 2.311-1.645-.001-2.86-9.519-1.293-9.519-7.716z" class="cls-1" transform="translate(-236.655 -65.322)"/>
            <path id="Path_688" d="M356.474 54.334h4.5v11.4a7.463 7.463 0 0 1 5.052-1.919c4.309 0 7.246 2.193 7.246 7.716V81.75h-4.5v-9.635c0-2.624-1.45-4.073-3.917-4.073a5.517 5.517 0 0 0-3.877 1.605v12.1h-4.5z" class="cls-1" transform="translate(-257.761 -54.334)"/>
        </g>
        <path id="Path_689" d="M55.043 38.3A19.065 19.065 0 0 0 36 57.345c0 6.779 2.062 9.5 11.971 22.56 1.72 2.267 3.67 4.838 5.9 7.812a1.464 1.464 0 0 0 2.343 0c2.218-2.958 4.159-5.518 5.872-7.777 9.933-13.1 12-15.827 12-22.594A19.064 19.064 0 0 0 55.043 38.3zm1.421 12.212a1.335 1.335 0 0 1 2.67 0v8.268a1.335 1.335 0 1 1-2.67 0zm-5.514 0a1.335 1.335 0 0 1 1.335-1.335 1.335 1.335 0 0 1 1.335 1.335v8.268a1.336 1.336 0 0 1-1.335 1.335 1.336 1.336 0 0 1-1.335-1.335zm13.57 11.996a9.476 9.476 0 0 1-9.476 9.476 9.476 9.476 0 0 1-9.476-9.476V50.514a1.335 1.335 0 0 1 2.67 0V62.3a6.806 6.806 0 0 0 6.805 6.8 6.805 6.805 0 0 0 6.806-6.8V50.514a1.335 1.335 0 0 1 1.335-1.335 1.335 1.335 0 0 1 1.335 1.335z" class="cls-1"/>
    </g>
</svg>
