<svg xmlns="http://www.w3.org/2000/svg" width="25.001" height="25" viewBox="0 0 25.001 25">
    <path fill="#fb5557" d="M1425.157 1376.069a.963.963 0 0 0-.213-.6v-.152h-.152a.956.956 0 0 0-.6-.209.964.964 0 0 0-.683.282l-1.973 1.973a2.671 2.671 0 0 0-.293-.093l-6.495-1.605a2.422 2.422 0 0 0-2.28.63l-11.613 11.594a2.409 2.409 0 0 0 0 3.395l8.126 8.125a2.408 2.408 0 0 0 3.394 0l11.593-11.614a2.42 2.42 0 0 0 .631-2.276l-1.606-6.5a2.446 2.446 0 0 0-.093-.292l1.974-1.973a.955.955 0 0 0 .283-.685zm-6.98 6.139a.474.474 0 1 1-.394-.21.479.479 0 0 1 .264.078v.131zm.48-1.971a2.4 2.4 0 1 0 1.36 1.362l1.306-1.3 1.4 5.684a.475.475 0 0 1-.124.449l-11.593 11.611a.47.47 0 0 1-.669 0l-8.124-8.126a.474.474 0 0 1 0-.668l11.613-11.593a.473.473 0 0 1 .337-.138.448.448 0 0 1 .113.015l5.685 1.4z" transform="translate(-1400.156 -1375.103)"/>
</svg>
