<svg xmlns="http://www.w3.org/2000/svg" id="personne_1" width="19.942" height="25" viewBox="0 0 19.942 25">
    <defs>
        <style>
            .cls-1{fill:#fb5557}
        </style>
    </defs>
    <path id="Path_788" d="M1691.981 1956.545a6.8 6.8 0 0 0 1.505 3.743 4.631 4.631 0 0 0 3.443 1.536h.244a4.636 4.636 0 0 0 3.547-1.537c1.873-2.111 1.592-5.691 1.554-6.085a5.1 5.1 0 0 0-2.427-4.519l-.009-.006a5.542 5.542 0 0 0-2.678-.7h-.1a5.561 5.561 0 0 0-2.665.682l-.01.006a5.1 5.1 0 0 0-2.456 4.532 11.413 11.413 0 0 0 .052 2.348zm1.8-2.2a.367.367 0 0 0 .005-.047c.139-3.013 2.119-3.463 3.288-3.463h.05c1.427.032 3.157.655 3.292 3.438a.348.348 0 0 0 0 .085c.007.071.3 3.12-1.088 4.688a2.8 2.8 0 0 1-2.2.913h-.065a2.782 2.782 0 0 1-2.188-.911c-1.2-1.342-1.156-3.779-1.11-4.541l.018-.009z" class="cls-1" transform="translate(-1687.139 -1948.976)"/>
    <path id="Path_789" d="M1663.344 2089.186h-.049l.049-.009v-.081-.086c-.03-1.015-.122-4.1-2.334-4.856l-.062-.018a13.263 13.263 0 0 1-3.816-1.738.932.932 0 0 0-1.3.225l-.012.017a.939.939 0 0 0 .243 1.284 14.917 14.917 0 0 0 4.375 2c.963.354 1.028 2.478 1.05 3.173a1.213 1.213 0 0 0 .005.132 8.386 8.386 0 0 1-.073 1.245 18.524 18.524 0 0 1-16.08-.006 7.867 7.867 0 0 1-.072-1.26v-.037-.072c.021-.7.085-2.826 1.046-3.18a15.076 15.076 0 0 0 4.379-2 .93.93 0 0 0 .234-1.285l-.008-.012a.93.93 0 0 0-1.291-.23 13.19 13.19 0 0 1-3.831 1.744l-.055.017c-2.209.757-2.3 3.841-2.332 4.855v.168a7.471 7.471 0 0 0 .251 2.225l.009.028a.9.9 0 0 0 .365.438l.017.01a20.209 20.209 0 0 0 18.666 0l.021-.012a.926.926 0 0 0 .358-.432l.012-.037a7.893 7.893 0 0 0 .235-2.21z" class="cls-1" transform="translate(-1643.407 -2069.16)"/>
</svg>
