<svg xmlns="http://www.w3.org/2000/svg" width="40" height="40" viewBox="0 0 40 40">
    <g id="suivant_desactive" data-name="suivant desactive" transform="rotate(180 866.5 507.5)">
        <g id="Group_731" data-name="Group 731">
            <g id="Groupe_731" data-name="Groupe 731" opacity="0.1" transform="rotate(180 910.25 551)">
                <g id="Groupe_730" data-name="Groupe 730">
                    <path id="Tracé_694" fill="#333a50" d="M127.5 107a20 20 0 1 0-20 20 20 20 0 0 0 20-20z" data-name="Tracé 694"/>
                </g>
            </g>
            <g id="Groupe_733" data-name="Groupe 733" opacity="0.3" transform="rotate(180 909.378 549.399)">
                <g id="Groupe_732" data-name="Groupe 732" transform="translate(102.755 97.798)">
                    <path id="Tracé_695" d="M104.449 109.525l5.031-5.033a1.006 1.006 0 0 0 0-1.419l-5.033-5.033a1.007 1.007 0 0 0-1.419 1.419l4.318 4.318-4.318 4.328a1 1 0 0 0 1.419 1.419z" data-name="Tracé 695" transform="translate(-102.755 -97.798)"/>
                </g>
            </g>
        </g>
    </g>
</svg>
