<svg xmlns="http://www.w3.org/2000/svg" width="25.01" height="25" viewBox="0 0 25.01 25">
  <path id="search_desactivé" data-name="search desactivé" d="M446.1-1430.172l-6.072-6.073a10.664,10.664,0,0,0-1.068-15.042,10.664,10.664,0,0,0-15.043,1.068,10.663,10.663,0,0,0,1.068,15.042,10.664,10.664,0,0,0,13.99-.013l6.072,6.072a.752.752,0,0,0,.527.221.727.727,0,0,0,.526-.221A.748.748,0,0,0,446.1-1430.172Zm-23.278-13.056a9.159,9.159,0,0,1,9.165-9.154,9.159,9.159,0,0,1,9.154,9.165,9.159,9.159,0,0,1-9.159,9.154A9.17,9.17,0,0,1,422.825-1443.228Z" transform="translate(-421.311 1453.897)"/>
</svg>
