<svg xmlns="http://www.w3.org/2000/svg" width="25.01" height="25" viewBox="0 0 25.01 25">
    <path d="M24.789 23.725l-6.072-6.073A10.664 10.664 0 0 0 17.649 2.61 10.664 10.664 0 0 0 2.606 3.678 10.663 10.663 0 0 0 3.674 18.72a10.664 10.664 0 0 0 13.99-.013l6.072 6.072a.752.752 0 0 0 .527.221.727.727 0 0 0 .526-.221.748.748 0 0 0 0-1.054zM1.511 10.669a9.159 9.159 0 0 1 9.165-9.154 9.159 9.159 0 0 1 9.154 9.165 9.159 9.159 0 0 1-9.159 9.154 9.17 9.17 0 0 1-9.157-9.165z" data-name="search desactivé"/>
</svg>
