<svg xmlns="http://www.w3.org/2000/svg" width="21.781" height="12.5" viewBox="0 0 21.781 12.5">
    <defs>
        <style>
            .cls-1{fill:#333a50;stroke:#333a50;stroke-width:.5px}
        </style>
    </defs>
    <g id="see" transform="translate(19.097 -362.556)">
        <g id="Group_457-2" data-name="Group 457-2">
            <g id="Group_456-2" data-name="Group 456-2">
                <path id="Path_590-2" d="M2.037 367.809a13.116 13.116 0 0 0-4.451-3.644 12.847 12.847 0 0 0-5.629-1.359h-.328A12.846 12.846 0 0 0-14 364.165a13.116 13.116 0 0 0-4.451 3.644 1.619 1.619 0 0 0 0 1.994A13.094 13.094 0 0 0-14 373.447a12.846 12.846 0 0 0 5.628 1.359h.328a12.847 12.847 0 0 0 5.629-1.359 13.1 13.1 0 0 0 4.452-3.647 1.619 1.619 0 0 0 0-1.991zm-15.652 4.869a12.263 12.263 0 0 1-4.157-3.4.76.76 0 0 1 0-.934 12.249 12.249 0 0 1 4.157-3.4 12.285 12.285 0 0 1 1.4-.592 5.989 5.989 0 0 0-1.994 4.463 5.993 5.993 0 0 0 1.994 4.464 12.285 12.285 0 0 1-1.4-.592zm5.408 1.269a5.145 5.145 0 0 1-5.144-5.144 5.144 5.144 0 0 1 5.144-5.143 5.144 5.144 0 0 1 5.144 5.14 5.144 5.144 0 0 1-5.143 5.144zm9.565-4.674a12.219 12.219 0 0 1-4.157 3.4 12.051 12.051 0 0 1-1.4.591 5.992 5.992 0 0 0 1.999-4.458 5.985 5.985 0 0 0-2-4.464 12.039 12.039 0 0 1 1.4.593 12.219 12.219 0 0 1 4.157 3.4.765.765 0 0 1 0 .934z" class="cls-1" data-name="Path 590-2"/>
            </g>
        </g>
        <g id="Group_459-2" data-name="Group 459-2">
            <g id="Group_458-2" data-name="Group 458-2">
                <path id="Path_591-2" d="M-8.207 366.606a2.2 2.2 0 0 0-2.2 2.2 2.2 2.2 0 0 0 2.2 2.2 2.2 2.2 0 0 0 2.2-2.2 2.2 2.2 0 0 0-2.2-2.2zm0 3.539a1.34 1.34 0 0 1-1.339-1.339 1.339 1.339 0 0 1 1.339-1.338 1.339 1.339 0 0 1 1.339 1.338 1.341 1.341 0 0 1-1.339 1.339z" class="cls-1" data-name="Path 591-2"/>
            </g>
        </g>
    </g>
</svg>
