<svg xmlns="http://www.w3.org/2000/svg" width="22.28" height="15.121" viewBox="0 0 22.28 15.121">
    <defs>
        <style>
            .cls-1{fill:#485262;stroke-width:.5px;stroke:#485262}
        </style>
    </defs>
    <g id="see_disabled" data-name="see disabled" transform="translate(19.346 -415.442)">
        <g id="Group_460" data-name="Group 460">
            <g id="Group_457" data-name="Group 457">
                <g id="Group_456" data-name="Group 456">
                    <path id="Path_590" d="M2.279 421.81a13.411 13.411 0 0 0-4.557-3.73 13.141 13.141 0 0 0-5.76-1.391h-.335a13.141 13.141 0 0 0-5.76 1.391 13.4 13.4 0 0 0-4.557 3.73 1.658 1.658 0 0 0 0 2.04 13.4 13.4 0 0 0 4.557 3.73 13.141 13.141 0 0 0 5.76 1.391h.335a13.141 13.141 0 0 0 5.76-1.391 13.4 13.4 0 0 0 4.557-3.73 1.658 1.658 0 0 0 0-2.04zm-16.02 4.982A12.538 12.538 0 0 1-18 423.308a.775.775 0 0 1 0-.956 12.515 12.515 0 0 1 4.254-3.483 12.433 12.433 0 0 1 1.433-.607 6.132 6.132 0 0 0-2.041 4.568 6.134 6.134 0 0 0 2.041 4.569 12.606 12.606 0 0 1-1.433-.606zm5.535 1.3a5.265 5.265 0 0 1-5.264-5.265 5.264 5.264 0 0 1 5.264-5.264 5.264 5.264 0 0 1 5.264 5.264 5.264 5.264 0 0 1-5.264 5.265zm9.789-4.784a12.519 12.519 0 0 1-4.254 3.484 12.371 12.371 0 0 1-1.43.605 6.132 6.132 0 0 0 2.039-4.567 6.13 6.13 0 0 0-2.038-4.569 12.433 12.433 0 0 1 1.433.607 12.508 12.508 0 0 1 4.254 3.484.783.783 0 0 1 0 .956z" class="cls-1" data-name="Path 590"/>
                </g>
            </g>
            <g id="Group_459" data-name="Group 459">
                <g id="Group_458" data-name="Group 458">
                    <path id="Path_591" d="M-8.206 420.579a2.254 2.254 0 0 0-2.252 2.251 2.256 2.256 0 0 0 2.252 2.252 2.256 2.256 0 0 0 2.252-2.252 2.255 2.255 0 0 0-2.252-2.251zm0 3.622a1.371 1.371 0 0 1-1.37-1.371 1.369 1.369 0 0 1 1.37-1.369 1.371 1.371 0 0 1 1.37 1.369 1.372 1.372 0 0 1-1.37 1.37z" class="cls-1" data-name="Path 591"/>
                </g>
            </g>
        </g>
        <path id="Path_592" fill="none" stroke="#485262" stroke-linecap="round" stroke-width="1.5px" d="M-1.589 416.5l-13.5 13" data-name="Path 592"/>
    </g>
</svg>
